<svg xmlns="http://www.w3.org/2000/svg" width="47" height="44" viewBox="0 0 47 44">
    <g fill="none" fill-rule="evenodd">
        <path fill="#503A12" d="M45.531 16.406v26.922H1.285V16.342C.546 15.758.07 14.987.042 14.169 1.447 10.095 3.24 5.423 5.423.154h6.552c-1.6 6.2-3.16 11.363-4.682 15.488-.065.156-.216.334-.429.514h4.19c-.772-.58-1.315-1.315-1.341-2.078A449.361 449.361 0 0 0 13.109.154h6.701c-.614 5.988-1.282 10.993-2.005 15.013-.11.26-.501.632-1.035.99h3.786c-.561-.49-.912-1.105-.945-1.73.236-4.16.482-8.918.74-14.273h6.403c.192 6.572.38 11.386.568 14.445-.147.371-.577 1.008-1.226 1.557h4.073c-.512-.348-.885-.707-.992-.96-.723-4.02-1.391-9.024-2.005-15.012h6.702a449.361 449.361 0 0 0 3.396 13.924c-.026.75-.552 1.473-1.304 2.048h4.07c-.214-.18-.365-.358-.43-.514-1.52-4.125-3.082-9.288-4.682-15.488h6.552c2.183 5.27 3.977 9.94 5.382 14.015-.028.848-.54 1.646-1.327 2.237z"/>
        <path fill="#FFF" d="M23.684 27.723h13.402v15.605H23.684z"/>
    </g>
</svg>
