<svg xmlns="http://www.w3.org/2000/svg" width="178" height="180" viewBox="0 0 178 180">
    <g fill="none" fill-rule="evenodd">
        <path fill="#796CBA" d="M127.24 112.298c0 20.355-17.64 36.857-39.401 36.857-21.76 0-39.401-16.502-39.401-36.857 0-16.591 11.72-30.622 27.837-35.244.389-.609.583-1.17.583-1.683 0-2.957-.719-5.08-2.155-6.371 1.731.527 3.172 1.078 4.323 1.65a15.544 15.544 0 0 1 3.153 2.073c1.293-1.176 2.328-1.999 3.104-2.47.746-.453 1.658-.856 2.737-1.209 1.23.353 2.157.756 2.92 1.209.797.471 1.857 1.294 3.181 2.47a15.967 15.967 0 0 1 3.23-2.072c1.18-.573 2.656-1.124 4.43-1.651-1.472 1.29-2.208 3.414-2.208 6.371 0 .59.252 1.243.756 1.96 7.098 2.218 13.296 6.274 17.95 11.564l.295.144c5.354 6.343 8.666 14.44 8.666 23.259z"/>
        <path fill="#3DA1E3" d="M.356 112.986c10.085 38.507 45.43 66.942 87.483 66.942 2.037 0 4.058-.066 6.061-.198.056-1.12.084-2.246.084-3.38 0-37.549-30.75-67.988-68.68-67.988-8.801 0-17.215 1.638-24.948 4.624z"/>
        <path fill="#80C027" d="M27.046 156.661c16.052 14.456 37.383 23.267 60.793 23.267 46.517 0 84.826-34.793 89.818-79.524-5.794-4.86-14.563-7.43-27.801-7.43-43.617 0-60.316 78.004-117.997 64.595a53.756 53.756 0 0 0-4.813-.908z"/>
        <path fill="#503A12" stroke="#503A12" stroke-width=".794" d="M126.544 7.567c-.024.17-.132.327-.294.448-.193.145-.375.206-.545.183-.34-.048-.662-.437-.96-1.197-.331-.735-.459-1.27-.412-1.608.079-.563.373-.81.912-.735.369.051.596.284.72.646.024.233.147.595.311 1.077.213.547.3.96.268 1.186zm-2.195.816c-.078.564-.401.806-.912.735-.368-.051-.872-.58-1.536-1.62-.64-1.009-.922-1.68-.882-1.962.07-.507.365-.753.875-.682.397.055.661.235.792.54.445.953.942 1.74 1.515 2.394.118.189.18.37.148.595zm-3.565-.753c-.09.648-.946 1.19-2.543 1.658-1.298.394-2.803.616-4.543.662.633 1.466 1.29 2.764 2.007 3.84.187.314.261.611.214.95-.102.732-.55 1.043-1.287.94-.794-.11-1.964-2.081-3.505-5.943a98.381 98.381 0 0 1-2.414-.307 25.314 25.314 0 0 1-2.086-.375c-.871-.179-1.237-.66-1.135-1.393.114-.817.541-1.189 1.279-1.087.056.008.506.1 1.405.282.956.19 1.604.308 1.916.352-.465-1.013-.666-1.644-.627-1.926.118-.845.546-1.217 1.283-1.114.397.055.706.327.934.761.123.362.47 1.186 1.034 2.528 2.559.097 4.408-.106 5.551-.637.307-.13.772-.353 1.386-.612.85.118 1.245.603 1.131 1.42zm-5.23 16.768c-.08.563-.43 1.003-1.044 1.263a3.43 3.43 0 0 1-1.643.174c-1.02-.142-2.087-.577-3.199-1.306a11.142 11.142 0 0 1-2.595-2.314c-1.233-1.52-1.765-2.887-1.596-4.099.158-1.127.762-1.934 1.869-2.412.986-.438 1.649-.633 2.046-.578.226.032.41.172.608.4.196.257.306.503.282.672-.106.76-.428 1.204-.905 1.31-1.043.229-1.577.528-1.632.923-.145 1.043.909 2.395 3.166 4.03.812.6 1.546.933 2.198 1.023.113.016.287.011.494-.018.33-.298.641-.456.982-.41.737.103 1.079.553.968 1.342zM76.149 2.963a.735.735 0 0 1-.45.766c-.2.014-.609-.084-1.229-.32a17.434 17.434 0 0 0-1.312-.414c-.354-.026-.545-.24-.573-.643-.037-.53.144-.82.594-.852.451-.032 1.037.08 1.734.334.78.351 1.208.726 1.236 1.13zm-2.126 1.972c.014.202-.073.385-.213.547-.138.186-.283.273-.433.283a.879.879 0 0 1-.565-.163c-.948-.617-1.44-1.165-1.471-1.619-.028-.403.156-.644.607-.675.225-.016.46.094.7.305.375.329.695.585.956.718.262.16.402.352.42.604zm-.336 2.378c.042.605-.184.975-.652 1.11-1.526.486-3.805.974-6.891 1.443l.118 3.131c1.011.79 1.616 2.242 1.765 4.384.152 2.167-.345 5.138-1.437 8.937l-.415 1.624c-.249.751-.648 1.159-1.149 1.194-.675.047-1.027-.308-1.076-1.013-.011-.152.27-1.159.848-2.971.987-3.158 1.436-5.722 1.297-7.712-.016-.227-.07-.653-.14-1.282-.226 1.08-.476 1.831-.723 2.254-.29.526-.7.783-1.2.818-.726.05-1.374-.233-1.974-.9-.597-.617-.909-1.481-.983-2.54-.077-1.108.213-1.989.923-2.621a3.033 3.033 0 0 1 1.882-.79c.05-.003.177.013.354.026l-.085-2.298c-1.592.263-4.079.665-7.463 1.18-.678.022-1.028-.308-1.075-.988-.046-.655.278-1.058.975-1.157.672-.098 3.136-.473 7.366-1.123l-.27-2.057c-.063-.907.23-1.383.882-1.429.7-.049 1.075.28 1.148.958l.234 2.262 3.33-.562c.164-.543.67-.857 1.571-.92 1.827-.128 2.783.236 2.84 1.042zm-9.307 6.829c-.498.06-.912.266-1.216.591-.3.376-.426.739-.4 1.117.027.378.125.7.346.988.197.29.407.428.658.41.175-.012.327-.352.457-1.02.154-.668.206-1.356.155-2.086z"/>
        <path fill="#503A12" stroke="#503A12" stroke-width="1.27" d="M123.902 41.257c.041-.334-.14-.62-.52-.892a3.003 3.003 0 0 0-1.347-.505c-.17-.02-.389-.01-.65-.004a82.042 82.042 0 0 0-6.312-1.039c-1.794-.22-3.258-.306-4.391-.256-1.049.06-1.589.219-1.625.516-.032.26.069.498.322.736.229.254.538.386.9.43.45.056.836.084 1.187.052.413-.006.723-.062.908-.152.996.01 2.07.085 3.181.221.492.06 1.957.316 4.42.731 2.059.366 3.14.574 3.267.59.39.01.624-.13.66-.428z"/>
        <path fill="#503A12" stroke="#503A12" stroke-width=".794" d="M79.831 33.403c.072.522-.175.823-.682.894-.507.072-1.049-.324-1.578-1.254-.533-.545-.798-1.01-.849-1.387-.02-.145.041-.331.21-.562.146-.198.303-.309.5-.336.423-.06.937.34 1.514 1.204l.614.711c.136.158.228.411.271.73zm-1.83 1.53c.075.55-.17.85-.706.926-.282.04-.676-.111-1.125-.461a19.584 19.584 0 0 1-1.044-.71c-.117-.013-.206-.03-.29-.018-.31.044-.58-.036-.788-.302a1.424 1.424 0 0 1-.436-.884c-.095-.696.14-1.084.76-1.171.337-.048 1.434.625 3.285 1.988.193.15.305.341.344.631zm5.377 12.063c.032.232-.07.542-.308.9-.234.388-.496.573-.834.62-.732.104-1.36-.073-1.913-.556-.908-.759-1.979-1.878-3.222-3.416-1.577-1.875-2.571-3.064-3.045-3.588-2.139-2.21-3.858-3.238-5.21-3.047-1.437.203-2.61 1.492-3.554 3.841-.194.47-.532.726-.983.79-.732.103-1.13-.284-1.248-1.154-.032-.232.086-.633.353-1.202 1.503-2.872 3.124-4.46 4.927-4.715 2.254-.318 4.833 1.12 7.786 4.249.846.944 1.974 2.262 3.353 3.958.285.403.991 1.16 2.095 2.305.221-.061.386-.114.499-.13.732-.104 1.186.276 1.304 1.145zM39.114 43.892c-.114-.717-.562-1.028-1.34-.905-.539.085-.866.343-.982.773a11.036 11.036 0 0 1-2.04 2.616c-.96.916-1.893 1.417-2.73 1.55-.72.114-1.135-.38-1.312-1.498-.2-1.262-.035-4.287.53-9.05.06-.393.08-.66.062-.775-.118-.746-.597-1.052-1.375-.929-.658.105-1.023.515-1.102 1.174-.221 2.093-.365 3.704-.436 4.803-.19 2.676-.212 4.473-.067 5.39.164 1.033.604 1.875 1.316 2.497.786.699 1.717.963 2.825.788 1.047-.166 2.185-.729 3.38-1.712a13.95 13.95 0 0 0 2.586-2.85c.52-.788.757-1.413.685-1.872zm-14.352-3.636a14.995 14.995 0 0 0-.486-2.1c-.36-.912-.885-1.329-1.574-1.22-.898.142-1.203.926-.985 2.302.064.402.205.909.485 1.511.063.402.139.684.205.909-.1 1.691-.44 3.42-1.053 5.164-.426 1.185-1.026 2.632-1.858 4.352-.256.51-.342.936-.297 1.223.045.287.18.56.456.75.246.197.534.27.833.222.479-.076.853-.43 1.146-1.093 2.518-5.22 3.569-9.238 3.128-12.02zM17.956 36.047c.167.514-.03.847-.528 1.01-.498.16-1.08-.129-1.722-.878-.636-.452-1.006-.84-1.112-1.165-.053-.162-.014-.324.1-.54.121-.19.26-.325.482-.397.415-.135.97.164 1.658.868l.745.506c.18.18.306.38.377.596zm-1.557 1.792c.175.542-.022.875-.575 1.055-.166.054-.531-.037-1.124-.263-.283-.118-.694-.254-1.187-.453-.183 0-.275 0-.303.009-.608.198-1.035-.082-1.299-.895-.22-.676-.085-1.109.468-1.289.276-.09 1.471.39 3.567 1.385.219.108.382.235.453.451zm-2.486 3.92c.906 2.788.424 6.386-1.454 10.767-.978 2.352-2.003 4.182-3.104 5.497-.812.982-1.757 1.648-2.863 2.008-.276.09-.652.062-1.155-.074-.484-.172-.765-.38-.853-.65-.281-.866-.016-1.461.813-1.73.056-.019.184 0 .34.009.173.063.31.108.365.09.719-.233 1.585-1.143 2.608-2.792 1.023-1.65 1.885-3.605 2.614-5.877.827-2.723 1.031-4.824.565-6.258-.334-1.029-.971-1.39-1.884-1.094-1.714.557-3.424 1.502-5.093 2.762-.435.92-1.067 1.514-1.841 1.765-1.05.342-1.708.106-1.98-.733-.15-.46-.043-.884.384-1.262 2.805-2.467 5.313-4.06 7.58-4.797 1.161-.377 2.216-.33 3.108.157.892.489 1.524 1.21 1.85 2.212z"/>
        <path fill="#503A12" stroke="#503A12" stroke-width="1.27" d="M104.376 34.482c-.136 2.602-.708 5.207-1.686 7.79-1.457 3.93-3.723 7.237-6.777 10.002-.456.398-.874.587-1.253.567-.705-.037-1.011-.422-.973-1.158.018-.342.14-.599.396-.796 1.931-1.585 3.613-3.58 5.016-5.983.959-1.689 1.698-3.336 2.187-4.892.436-1.585.723-3.414.833-5.517.026-.499-.058-.978-.224-1.434-.195-.432-.257-.804-.24-1.12.026-.499.128-.889.333-1.168.236-.357.572-.55 1.006-.527.596.031.934.339 1.069.873.266 1.147.37 2.26.313 3.363zm-8.814-2.491c-.065.207-.105.442-.173.702-.592 1.972-.927 3.694-1.06 5.189l-.01 1.739c-.092.733-.435 1.057-1.086 1.023-.65-.034-1.011-.422-1.051-1.214-.03-.476-.033-.925-.014-1.292.045-.868.285-2.33.72-4.416a4.826 4.826 0 0 1-.04-.767c.04-.788.234-1.358.603-1.654.344-.351.735-.542 1.169-.519.27.014.48.157.687.379.178.22.273.488.255.83zM57.986 39.43c-.04-.335-.286-.568-.72-.741a3.003 3.003 0 0 0-1.429-.164c-.17.021-.38.085-.632.153a82.042 82.042 0 0 0-6.375.52c-1.795.22-3.236.491-4.324.813-1.002.311-1.488.597-1.451.894.032.26.187.466.49.636.284.192.615.245.978.2.449-.055.831-.12 1.164-.237.399-.105.687-.235.844-.367.969-.232 2.03-.419 3.14-.555.492-.06 1.975-.167 4.466-.36 2.086-.143 3.184-.203 3.313-.218.38-.085.573-.278.536-.575z"/>
        <path fill="#503A12" stroke="#503A12" stroke-width=".992" d="M167.817 58.458c.13-.4-.067-.71-.555-.968l-6.41-2.083c.044-.06.088-.119.14-.2.688-.589 1.334-1.658 1.975-3.173.24-.586.538-1.35.894-2.293l1.068-2.902c.115-.356.32-.83.642-1.44.057-.178.07-.37.076-.541 1.316.083 2.46.16 3.416.2.359-.032.574-.159.639-.359.029-.089.012-.267-.035-.504a.99.99 0 0 0-.378-.368c-.585-.19-1.333-.335-2.239-.457-4.248-.47-7.231-.701-8.957-.671.006-.17.041-.356.068-.593.124-.993.107-1.86-.08-2.585l4.122-.9c.79-.137 1.357-.273 1.677-.416.387-.12.61-.269.667-.447.087-.267.085-.49.023-.682-.077-.222-.25-.377-.468-.472-.158-.051-.36-.043-.59-.02-3.07.874-4.634 1.325-4.752 1.385-.217.053-.44.128-.618.218a1.537 1.537 0 0 0-.468.29c-.06-.043-.12-.088-.21-.117l-.18-.058c-.33-.058-.65.084-.914.44-.005.245-.003.468-.001.616.083.814.123 1.689.073 2.607-.084 1.253-.274 2.372-.606 3.396a178.654 178.654 0 0 1-1.232 3.636c-.392 1.054-.828 2.167-1.286 3.347-.174.535-.043.897.43 1.05.427.14.768-.07 1.032-.575.823-1.922 1.702-4.32 2.642-7.213.137-.423.26-.875.389-1.35.322.08 1.287.172 2.879.246 1.114.092 2.183.168 3.155.238-.408.95-.75 1.848-1.024 2.694l-.832 2.56-.91 2.19a15.12 15.12 0 0 1-1.497 2.614.87.87 0 0 0-.05.23 52.094 52.094 0 0 0-2.54-.678 35.79 35.79 0 0 0-4.126-.922c-1.632-.333-3.076-.557-4.355-.677-.613-.027-.977.175-1.121.62-.036.185-.01.415.111.652.122.236.243.399.423.457.113.037.323.08.622.153 1.765.155 3.733.45 5.927.892a55.748 55.748 0 0 1 6.892 1.747l5.465 1.776c.501.064.843-.145.987-.59z"/>
        <path fill="#503A12" d="M147.372 42.049c-.287 2.34-1.47 4.737-3.551 7.188-2.084 2.483-4.251 4.032-6.465 4.619-.34.09-.576.127-.77.103-.844-.104-1.202-.676-1.079-1.684.064-.52.595-1.082 1.591-1.685.357-.22.762-.303 1.217-.247a18.084 18.084 0 0 0 4.106-3.655c1.392-1.677 2.187-3.328 2.387-4.954.208-1.69-.902-2.85-3.292-3.507-1.422 2.994-3.376 5.757-5.797 8.299-1.587 1.653-3.123 2.356-4.55 2.18-1.104-.135-1.917-.763-2.503-1.891a5.523 5.523 0 0 1-.611-3.343c.271-2.21 2.133-4.226 5.655-6.071 3.027-1.576 5.613-2.248 7.69-1.993 1.883.23 3.381.91 4.503 1.972 1.203 1.203 1.7 2.783 1.47 4.669zm-8.947-3.607c-1.532.406-3.064 1.076-4.56 1.981-1.993 1.208-3.061 2.397-3.209 3.6-.048.39.034.796.238 1.283.208.455.443.682.67.71.91.111 2.574-1.368 4.965-4.474.59-.785 1.213-1.831 1.896-3.1z"/>
        <path fill="#503A12" stroke="#503A12" stroke-width=".5" d="M99 16.474c0 .301-.164.636-.427.971-.295.335-.623.469-.984.469-.328 0-.82-.268-1.41-.87-.788 1.138-1.346 1.875-1.674 2.243-1.378 1.507-2.33 2.244-2.887 2.244-.361 0-.657-.134-.919-.402s-.36-.603-.36-.971c0-.402.294-1.072.95-1.943.296-.402.624-.636 1.018-.636a12.54 12.54 0 0 0 1.378-1.842c-.853-.302-1.575-.536-2.166-.737-4.2 4.689-8.005 7-11.352 7-1.181 0-2.166-.268-2.92-.87-.853-.637-1.247-1.541-1.247-2.747 0-1.273.59-2.58 1.805-3.852 1.903-2.043 4.921-3.081 9.055-3.081 1.247 0 2.428.167 3.61.435 1.443-2.11 2.165-3.818 2.165-5.124 0-.938-.295-1.641-.886-2.144-.623-.469-1.378-.737-2.297-.737-.984 0-2.001.235-3.051.637-.558.268-.984.368-1.313.368-.295 0-.557-.134-.754-.402a1.018 1.018 0 0 1-.361-.804c0-.837.558-1.44 1.706-1.842C87.254 1.301 88.599 1 89.748 1c1.509 0 2.788.536 3.904 1.54 1.05 1.005 1.608 2.312 1.608 3.852 0 1.876-.657 3.952-1.969 6.23a12.7 12.7 0 0 1 1.969.77l.557-1.105c.263-.536.69-.837 1.346-.837.82 0 1.246.502 1.246 1.507 0 .335-.295.971-.82 1.842.23.168.558.402.952.737.295.301.459.603.459.938zM88.402 14.43c-.492 0-.853-.034-1.082-.034-4.069 0-6.792.938-8.203 2.814-.36.502-.525.904-.525 1.205 0 .503.525.737 1.608.737.82 0 1.575-.134 2.264-.435 1.903-.804 3.904-2.21 5.938-4.287z"/>
        <path fill="#503A12" stroke="#503A12" stroke-width=".794" d="M54.978 19.613c-.447-3.186-1.668-5.69-3.626-7.485-.44-.384-.88-.545-1.322-.483-.379.053-.736.262-1.016.557-.272.356-.354.686-.301 1.061.096.687.544 1.357 1.407 2 1.127.925 1.834 2.29 2.089 4.102.114.812.124 1.798.038 3.02-.061.71-.063 1.156-.028 1.405.136.969.675 1.37 1.654 1.233 1.199-.168 1.588-1.975 1.105-5.41zm-11.67 6.262c-.132-.937-.608-1.348-1.428-1.233-.442.063-.903.446-1.32 1.141-.476.736-.905 1.115-1.284 1.168-.473.067-.962-.66-1.505-2.24-.45-1.37-.805-2.977-1.068-4.851l-.325-2.311c-.19-1.12-.273-1.714-.29-1.839-.238-1.686-.802-2.499-1.654-2.379-1.01.142-1.445.713-1.313 1.65.005.031.04.28.173.772.324 1.387.603 2.686.77 3.873.403 2.873.864 5.006 1.386 6.43.963 2.73 2.292 3.945 4 3.737 1.294-.182 2.491-1.05 3.583-2.669.24-.352.34-.78.275-1.249zM141.772 16.106c-.128.477-.447.783-.902.932-.58.176-1.126.331-1.628.437-.224.061-.433.065-.626.013a.848.848 0 0 1-.473-.337l-1.922.208c.226 1.145.496 2.24.815 3.26.174.679.254 1.152.187 1.405-.219.815-.711 1.105-1.485.897-.443-.118-.878-.927-1.25-2.413-.217-.961-.406-1.915-.595-2.87-3.546.406-5.868.446-6.947.157-.332-.089-.55-.268-.676-.573-.154-.312-.154-.643-.063-.98.135-.506.545-.818 1.213-.88 1.526.168 3.592.089 6.156-.188a39.887 39.887 0 0 1-.266-3.324c-.809.145-2.035.298-3.651.468-.23-.032-.423-.083-.533-.113-.634-.29-.868-.745-.695-1.39.143-.535.525-.854 1.209-.972.37-.052 1.596-.205 3.68-.46.014-1.381.11-2.29.222-2.71.18-.675.658-.909 1.46-.694.553.148.81.518.77 1.11-.018.176-.088.88-.196 2.056 1.539-.1 2.768-.042 3.652.195.692.186 1.29.496 1.768.926.545.507.757 1.046.606 1.608-.21.786-.613 1.07-1.166.922a1.762 1.762 0 0 1-1.068-.768 5.965 5.965 0 0 0-.724-.284c-.636-.17-1.657-.233-3.062-.188.038.853.12 1.99.27 3.415 2.878-.343 4.598-.455 5.206-.292.663.178.917.668.714 1.427zm-4.582 13.228c-.09.337-.276.589-.565.782-.796.54-2.028.601-3.687.157-1.493-.4-2.783-1.228-3.829-2.412-1.154-1.333-1.552-2.614-1.205-3.907.3-1.124.944-1.975 1.95-2.519.273-.137.602-.26.924-.355a.625.625 0 0 1 .558-.091c.774.207 1.056.705.845 1.491-.136.506-.49.833-1.035.988-.58.176-.9.482-1.013.903-.15.562.121 1.207.835 1.97.68.785 1.524 1.282 2.492 1.542.995.266 1.76.29 2.32.08.259-.082.502-.107.751-.04.25.066.44.238.581.487a1.3 1.3 0 0 1 .078.924z"/>
    </g>
</svg>
