<svg xmlns="http://www.w3.org/2000/svg" width="550" height="74" viewBox="0 0 550 74">
    <path fill="#FFF" fill-rule="evenodd" d="M22.686 17.672c-1.02.542-2.55 1.084-4.59 1.656-3.842 1.084-7.773 2.047-11.794 2.95-.6.18-1.26.271-1.92.331h-.24c-.601-.3-.901-.752-.901-1.354 0-.301.18-.572.54-.813.39-.15.93-.271 1.65-.392 3.662-.752 6.932-1.535 9.843-2.348.12-.21.27-.391.39-.572.36-.572.78-1.264 1.2-2.077.57-1.234 1.051-2.318 1.411-3.252.06-.18.09-.39.15-.572-.72.271-1.44.512-2.16.723-.09.331-.21.632-.33.933-.66 1.325-1.41 2.439-2.251 3.372-.27.301-.51.542-.69.662-.3.181-.54.241-.72.241-.21 0-.33-.15-.36-.451 0-.241.06-.422.24-.602.12-.181.27-.452.48-.843.24-.362.45-.813.69-1.355.18-.422.33-.783.45-1.114-.84.301-1.65.542-2.43.783.06 1.505.09 2.589.09 3.19 0 .723-.3 1.085-.841 1.115-.48 0-.72-.241-.75-.723-.03-.843-.09-1.866-.18-3.07-.84.27-1.68.511-2.461.722.24 1.114.54 2.047.84 2.8.18.391.27.662.27.813 0 .542-.36.782-1.05.782-.3 0-.63-.33-.99-1.053-.3-.813-.6-1.746-.87-2.83l-1.801.542c-.78.24-1.62.421-2.49.542H.87C.27 16.107 0 15.685 0 15.083c0-.301.18-.572.51-.813.54-.24 1.26-.451 2.16-.632.751-.18 1.501-.391 2.251-.602-.3-1.536-.42-2.83-.42-3.884 0-.873.3-1.324.96-1.355.66 0 .99.301.99.873.12 1.325.24 2.59.36 3.824.901-.24 1.741-.482 2.582-.723-.12-1.144-.24-2.107-.3-2.95.03-.18.12-.391.3-.572.18-.24.39-.361.63-.361.21 0 .39.03.54.06.27.12.48.331.6.602.03.482.06 1.355.12 2.62 1.08-.332 2.1-.663 3.091-.994v-.241c0-.542-.18-1.084-.51-1.686-.18-.21-.27-.421-.27-.662 0-.482.3-.753.93-.813.48 0 .81.15.99.391.6.663.96 1.415 1.05 2.258a84.03 84.03 0 0 0 2.161-.813c-.03-.632-.18-1.294-.48-2.017a1.868 1.868 0 0 1-.21-.873c0-.482.3-.753.9-.813.48 0 .78.15.96.422.54.692.87 1.505 1.02 2.438l.06-.03c1.651-.722 2.792-1.084 3.452-1.084.21 0 .42.06.6.15.24.182.39.362.42.543 0 .361-.15.662-.45.963-1.02.693-2.4 1.385-4.141 2.047a11.47 11.47 0 0 1-.96 2.86 19.219 19.219 0 0 1-2.281 3.794c.6-.18 1.2-.362 1.77-.542 1.26-.422 2.161-.632 2.671-.632.24 0 .45.06.66.18.3.18.45.362.48.542 0 .422-.18.783-.51 1.114zm-4.05-15.414c0 .24-.09.452-.24.632-.481.331-1.081.693-1.831 1.114a28.85 28.85 0 0 1-3.061 1.475c-1.83.723-3.451 1.054-4.862 1.054-.63 0-1.11-.271-1.47-.843a2.632 2.632 0 0 1-.27-1.204c.3-1.265.48-2.469.54-3.553.12-.421.42-.662.9-.692h.45c.6.03.9.542.9 1.505 0 .572-.24 1.385-.66 2.469.15.06.36.06.66.06.75 0 2.131-.361 4.112-1.144 1.05-.391 2.28-.933 3.66-1.596l.301-.12c.12 0 .27-.03.42-.03.3.06.45.331.45.873zm3 19.75c.12 0 .24.03.39.03.18.06.3.12.42.21.72.542 1.83 1.927 3.271 4.095.36.572.57 1.083.63 1.505 0 .602-.27.903-.75.903-.24 0-.51-.15-.81-.452-.3-.36-.72-.843-1.23-1.445-.84-1.114-1.77-2.107-2.731-3.07a.816.816 0 0 1-.15-.482v-.271c.03-.271.18-.512.42-.753.12-.12.3-.21.54-.27zM3.631 24.144c-.21-.602-.48-.933-.84-.933-.18.03-.36.09-.54.15-.42.331-.63.753-.63 1.265 0 .842.15 1.655.45 2.498.78 1.927 1.47 3.252 2.07 3.974.24.241.48.392.78.392.48 0 .75-.332.81-.964 0-.3-.06-.572-.18-.813-1.02-2.348-1.65-4.184-1.92-5.57zm11.433-1.596c.12 0 .24.03.36.03.18.06.33.12.48.241.66.572 1.68 2.077 3.061 4.516.33.572.54 1.114.6 1.596 0 .602-.27.933-.78.933-.24 0-.48-.18-.78-.482-.33-.421-.72-.963-1.2-1.656-.78-1.234-1.65-2.348-2.551-3.402-.12-.15-.15-.3-.15-.481v-.271c.03-.241.15-.482.39-.723.12-.15.33-.24.57-.3zm-6.932.903c-.24.06-.42.15-.6.301-.24.241-.36.482-.39.753v.271c0 .15.03.301.15.482a34.35 34.35 0 0 1 2.64 3.643c.48.782.871 1.354 1.171 1.776.3.3.57.481.84.481.48 0 .72-.33.72-.933-.06-.542-.27-1.084-.6-1.686-1.38-2.619-2.43-4.215-3.12-4.817-.12-.09-.3-.18-.48-.24-.12 0-.24-.03-.33-.03zm41.19-2.498c-.63.481-1.56.933-2.82 1.415-1.8.692-3.661 1.324-5.552 1.926.03.15.06.271.06.332 0 .24-.03.662-.06 1.204-.12.993-.15 2.047-.15 3.13 0 .452.15.693.39.693.18 0 .63-.21 1.29-.602.36-.24.81-.572 1.351-.933.3-.241.6-.482.84-.693-.42-.36-.84-.692-1.26-.993-.24-.241-.33-.482-.33-.723 0-.24.06-.421.18-.572.15-.3.42-.451.78-.511.3 0 .57.12.81.3.18.09.36.211.51.332.27.24.57.451.87.632.42-.391.84-.813 1.261-1.325.3-.391.63-.813.99-1.294.12-.211.3-.331.54-.331.24 0 .48.09.66.21.36.241.54.512.57.843 0 .12-.06.301-.18.482-.33.512-.84 1.054-1.53 1.716-.3.24-.6.512-.93.753.09.06.15.09.21.15 1.74 1.204 3.361 1.957 4.861 2.288.9.18 1.71.301 2.431.331.3 0 .48.09.54.271 0 .241-.12.482-.3.663-.54.36-1.41.542-2.64.542-.6 0-1.23-.09-1.921-.241-.66-.18-1.41-.482-2.19-.873-.69-.362-1.381-.783-2.101-1.295-.24-.18-.48-.331-.72-.512 0 0-.03.03-.03.06-.3.271-.63.603-.99 1.024-1.021.843-1.861 1.475-2.551 1.837-.51.24-1.05.391-1.651.391-.81 0-1.35-.331-1.65-.994-.12-.27-.18-.602-.18-1.023 0-.422.03-.783.15-1.114 0-.452.03-.843.03-1.204 0-.482-.03-.994-.03-1.536-.06-.27-.12-.511-.12-.752-.18.06-.39.12-.57.12h-.24c-.54-.27-.81-.692-.81-1.234 0-.271.15-.512.45-.693.27-.12.63-.21 1.05-.3 3.36-.844 6.211-1.777 8.582-2.74.78-.332 1.32-.512 1.62-.512.15 0 .33.06.51.12.18.15.3.301.33.452 0 .27-.12.542-.36.783zm-1.86-2.92c-1.35.481-3.3 1.113-5.852 1.926-1.26.422-1.98.602-2.13.602h-.21c-.15-.03-.3-.15-.42-.33-.12-.121-.15-.302-.15-.483 0-.27.12-.511.42-.722 1.14-.542 3.3-1.234 6.511-2.047.66-.15 1.2-.241 1.65-.241.181.03.331.12.451.24.12.211.18.392.18.512 0 .211-.15.392-.45.542zm.48-7.949c-.06.271-.15.482-.33.633-1.44.632-3.841 1.294-7.202 1.957-1.2.24-2.34.36-3.361.39-.09 0-.15 0-.21-.03-.18.723-.51 1.055-1.05 1.055-.6 0-.87-.271-.87-.874-.03-.3-.06-.752-.09-1.294-.03-.963-.03-1.746-.03-2.348 0-.873-.18-2.017-.48-3.463-.12-.541-.24-1.053-.36-1.565-.15-.452-.21-.783-.21-.963 0-.362.18-.693.54-.934.24-.12.51-.21.81-.21.33 0 .6.15.81.451.36-.12.78-.21 1.26-.331.24-.06.48-.09.75-.12l-.03-.06c-.27-.452-.39-.814-.39-1.054 0-.422.18-.753.54-.994.24-.12.45-.18.63-.18.33 0 .63.15.9.421.12.421.27.963.42 1.596.841-.06 1.711-.12 2.612-.12h.51c-.06-.212-.09-.422-.12-.603-.06-.18-.09-.361-.09-.512 0-.21.12-.421.36-.662.12-.06.3-.12.48-.18h.33c.18.03.33.09.51.15.39.27.6.602.6.993 0 .331-.03.633-.03.904 1.08.09 1.92.24 2.581.481 1.68.542 2.55 1.505 2.55 2.89-.12 1.174-.54 2.288-1.26 3.372a6.03 6.03 0 0 1-1.08 1.204zM36.45 4.576c.09.542.18 1.144.24 1.746 0 .331.03.632.06.903.75 0 1.5-.06 2.25-.12v-.06c0-.602-.12-1.385-.33-2.318a3.51 3.51 0 0 1-.12-.542c-.24.06-.48.09-.66.12-.6.12-1.08.21-1.44.271zm2.55 4.064c-.27.06-.51.09-.69.09-.54.06-1.02.091-1.47.091v2.408c.69-.06 1.44-.12 2.22-.21-.03-.873-.06-1.656-.06-2.379zm1.321-4.696c.03.421.09.813.15 1.234.06.572.09 1.174.15 1.776.84-.12 1.65-.24 2.49-.421.06-.903.12-1.746.12-2.529v-.27h-.51c-.66 0-1.41.09-2.28.21h-.12zm2.61 3.974c-.12.03-.21.06-.3.06-.66.18-1.32.301-1.95.391 0 .693.03 1.385.03 2.048 0 .18-.03.27-.06.33.69-.09 1.35-.21 1.98-.39.03-.302.09-.693.15-1.175.06-.421.09-.843.15-1.264zm2.191-4.064c-.03.722-.09 1.505-.18 2.288.24-.06.48-.12.69-.181.3-.06.54-.09.72-.15.12 0 .27.06.45.12.21.12.33.24.33.361 0 .12-.06.241-.18.391a.981.981 0 0 1-.45.332c-.54.18-1.11.33-1.71.481a32.84 32.84 0 0 1-.54 2.469c.93-.24 1.8-.542 2.58-.843.901-1.535 1.351-2.68 1.351-3.432-.18-.963-1.2-1.596-3.06-1.836zm-10.473 14.36c-.24.06-.42.06-.57.06-.54-.03-.84-.391-.9-1.114 0-.33.24-.632.78-.873.3-.12.69-.24 1.17-.391a137.02 137.02 0 0 0 6.692-1.505c3.121-.753 5.552-1.415 7.262-2.018.24 0 .39.09.48.241.03.06.06.15.06.211 0 .24-.12.452-.33.692-.93.783-3.27 1.747-7.021 2.83-1.861.542-3.601.994-5.222 1.355.06.361.09.753.12 1.204 0 1.175-.12 2.198-.33 3.101-.24.873-.48 1.686-.72 2.439a27.95 27.95 0 0 1-1.92 4.064c-.57.903-1.021 1.536-1.381 1.897-.24.21-.48.331-.69.331-.27 0-.48-.09-.66-.21a.827.827 0 0 1-.21-.543c0-.18.15-.481.45-.873.96-1.415 1.77-2.95 2.37-4.606.24-.662.48-1.385.66-2.107.09-.542.15-1.144.15-1.807 0-.963-.09-1.746-.24-2.378zm42.3 5.93c.12 0 .211.03.331.03.18.061.36.121.51.242 1.02.421 2.61 1.505 4.741 3.342.54.451.84.842.9 1.204 0 .602-.24.933-.72.933-.27 0-.54-.18-.81-.482-.48-.27-1.11-.632-1.83-1.114a34.413 34.413 0 0 0-3.991-2.288.973.973 0 0 1-.18-.542v-.27c.03-.302.18-.572.45-.753.15-.15.36-.241.6-.301zm6.183-4.334c0 .24-.15.511-.39.752-1.29.813-4.532 1.746-9.753 2.8.03.723.06 1.385.09 2.047 0 .542.03 1.024.03 1.506 0 1.083-.06 1.806-.12 2.197-.24.753-.69 1.325-1.35 1.716-.51.241-1.08.392-1.741.392-1.44 0-2.94-.512-4.441-1.475-.33-.241-.6-.422-.84-.603-.18.482-.36.873-.54 1.144-.18.482-.51.753-.991.753-.54-.06-.84-.361-.87-.933 0-.211.06-.422.18-.602.12-.301.21-.723.27-1.235v-.752c0-.271-.06-.572-.12-.873.03-.663.36-.994 1.02-.994h.21c.54 0 .9.331 1.02.994.06.24.12.481.12.782.81.542 1.651.964 2.521 1.265.87.27 1.62.421 2.28.421.811 0 1.231-.542 1.231-1.565v-1.084c-.03-1.084-.06-1.987-.12-2.68-2.64.542-5.101.994-7.442 1.416-.84.12-1.47.21-1.83.24-.42.06-.78.09-1.11.09-.54-.03-.871-.39-.931-1.143 0-.362.27-.693.81-.994.3-.06.72-.18 1.23-.361 3.091-.422 6.092-.873 9.003-1.385-.03-.27-.06-.542-.09-.783-.06-.24-.12-.481-.12-.692 0-.21.06-.422.21-.662.24-.211.48-.332.72-.332.6 0 .99.301 1.17.873.12.271.21.663.3 1.205 4.142-.723 7.383-1.415 9.783-2.017.24 0 .42.12.54.33.03.061.06.151.06.242zm-9.783-5.931c-.81.18-1.95.451-3.421.813-.54.12-.87.21-1.05.21-.03.783-.06 1.445-.09 1.987 1.5 0 2.7-.15 3.6-.391.21.15.33.301.39.421.12.03.21.06.3.06.24.091.48.181.691.272-.12-.723-.18-1.716-.18-2.92v-.633c-.12.09-.18.15-.24.18zm-4.801 4.847v.06c-.18.542-.51.843-.99.873-.63-.03-.961-.572-.961-1.596.3-1.595.48-3.582.51-5.93 0-.964-.06-2.048-.12-3.282-.24.09-.42.15-.6.15-.6 0-.87-.36-.87-1.143 0-.542.27-.873.84-.934.57 0 2.28-.542 5.131-1.655.54 0 .87.15.96.421 0 .12-.03.27-.03.421-.12.271-.3.482-.54.603-.42.36-1.02.752-1.74 1.114-.42.18-.78.33-1.14.451.03.12.06.271.06.391-.03.271-.03.512-.03.753.33-.12.69-.24 1.05-.331.9-.24 1.71-.361 2.43-.361.66 0 1.201.12 1.561.33.51.332.9 1.024 1.17 2.048.18.542.27 1.204.27 1.987-.03.873-.03 1.746-.03 2.59 0 .842.03 1.655.09 2.377-.03.783-.42 1.144-1.17 1.144-.18 0-.42-.06-.75-.21-.54-.18-.96-.482-1.29-.903-.06.06-.15.09-.21.09-1.08.18-2.281.361-3.601.542zm.42-7.557c-.03.663-.06 1.295-.06 1.897.78-.18 1.83-.391 3.21-.632.42-.03.72-.06.96-.06.18.03.33.09.45.21-.06-.391-.09-.722-.15-.993-.18-.843-.45-1.265-.78-1.265-.57 0-1.14.09-1.68.271-.78.18-1.44.362-1.95.572zm-4.862.663c.36-.03.54-.271.6-.753 0-.482-.18-.813-.51-1.024-1.74-.903-2.82-1.354-3.24-1.385-.45 0-.75.211-.9.572-.12.241-.18.482-.18.693 0 .27.45.662 1.35 1.144.84.512 1.8.753 2.88.753zm1.41 2.83c0 .33-.15.752-.45 1.294-.66.963-1.38 1.806-2.22 2.499-.51.451-.96.722-1.35.843-.3.06-.54.09-.78.09-.54 0-.9-.331-1.021-.993 0-.301.06-.512.18-.663.09-.12.3-.3.66-.511.42-.241.78-.452 1.02-.633.66-.391 1.471-1.023 2.401-1.866.39-.422.69-.632.93-.693.36.03.57.241.63.633zm16.805 1.866c.36-.06.54-.301.54-.692 0-.422-.24-.813-.69-1.144-.39-.301-.81-.602-1.29-.964-.81-.602-1.5-1.174-2.04-1.776l-.06-.06c.06-.03.15-.12.24-.271.9-1.054 1.53-1.927 1.95-2.62.18-.3.3-.571.33-.752-.06-.753-.45-1.144-1.23-1.144-.33 0-.66.21-.99.602-.24.482-.54 1.054-.9 1.746-.45.693-.781 1.235-.961 1.626-.12.18-.18.331-.18.482-.18.18-.27.421-.27.752 0 .211.06.452.18.723.03.12.09.21.21.3.75.814 1.68 1.536 2.79 2.199.45.3.871.572 1.261.752.42.18.72.241.93.241h.18zM67.226 5.69c-.06.421-.36.632-.9.632-.33 0-.57-.15-.69-.451a.641.641 0 0 1-.21-.452c-.03-.21-.06-.421-.06-.662-1.38.12-2.701.21-3.991.27-.57 0-.84-.36-.84-1.083 0-.542.27-.843.81-.933.72 0 1.89-.06 3.51-.181l-.03-.09c-.15-.15-.27-.301-.39-.482-.09-.15-.12-.331-.12-.542 0-.24.12-.482.36-.662.24-.15.54-.241.9-.241.24.03.48.15.69.391.241.18.421.422.571.693.15.24.24.481.3.722 1.86-.15 4.171-.361 6.902-.662-.06-.06-.09-.09-.09-.15-.12-.181-.18-.302-.18-.422 0-.452.12-.813.39-1.054.15-.12.39-.18.69-.21.3 0 .57.09.75.21.18.21.33.482.51.813.09.18.18.391.24.602 1.081-.12 2.191-.24 3.392-.361.48 0 .78.12.87.361 0 .12-.03.271-.03.392-.12.24-.27.421-.48.541-.99.271-2.22.542-3.691.783-.03.241-.09.482-.15.693-.12.33-.24.662-.39.963-.09.21-.18.361-.24.452-.18.24-.48.36-.9.36-.42-.03-.6-.24-.6-.601 0-.12 0-.241.03-.422.06-.3.09-.602.09-.933v-.18c-.06.03-.12.03-.15.03-2.342.33-4.622.602-6.783.782 0 .542-.03.903-.09 1.084zm40.44 17.762c0-.843-.42-1.294-1.23-1.294-.24 0-.51.15-.84.391-1.5 1.114-3.181 1.656-5.102 1.656-2.82 0-4.201-.722-4.201-2.228 0-1.234.48-2.228 1.44-2.98.66-.512 1.83-1.265 3.481-2.258 1.56-.933 2.701-1.716 3.481-2.348 1.47-1.235 2.221-2.228 2.221-2.95 0-.964-.42-1.446-1.2-1.446-.51 0-.96.422-1.38 1.234-.24.512-.871 1.114-1.891 1.837-.87.572-1.68 1.024-2.431 1.355-.6-3.161-1.83-5.72-3.691-7.677-.93-.934-1.74-1.415-2.4-1.415-.87 0-1.291.451-1.291 1.324 0 1.144.78 1.927 2.37 2.379.36.24.78.813 1.291 1.716.78 1.475 1.29 3.16 1.47 5.027-2.58 1.837-3.87 3.884-3.87 6.112 0 1.686.72 2.98 2.16 3.823 1.14.663 2.58 1.024 4.321 1.024 2.04 0 3.871-.452 5.432-1.295 1.23-.662 1.86-1.324 1.86-1.987zm18.864-14.39c-.39.692-1.53 1.415-3.42 2.137v1.205l-.09 3.552c.48-.27.99-.572 1.5-.873.3-.18.54-.271.72-.271.42 0 .69.21.84.572 0 .18.03.361.03.512a.804.804 0 0 1-.21.421c-.36.301-.99.813-1.95 1.506-.24.18-.54.421-.96.722-.06 1.295-.09 2.379-.12 3.252-.121 2.71-.391 4.726-.811 6.08-.18.754-.57 1.145-1.17 1.145-.48 0-.72-.361-.72-1.084.24-1.535.42-3.251.51-5.178l.03-2.59c-.66.483-1.38 1.024-2.161 1.566-.27.271-.54.392-.84.392-.3 0-.6-.12-.9-.422-.24-.18-.36-.512-.36-.963 0-.12.15-.361.45-.723.84-.662 2.13-1.565 3.87-2.68l.06-3.37c0-.693 0-1.386.03-2.108-.06.03-.09.03-.09.03-.84.21-1.65.3-2.43.3-.75 0-1.32-.21-1.71-.692-.3-.3-.42-.692-.42-1.204s.06-.993.24-1.475c.18-.512.36-.933.6-1.234.24-.301.51-.452.87-.452.24 0 .48.12.72.331.15.18.24.362.24.482 0 .27-.03.542-.09.783-.12.36-.21.722-.24 1.023 0 .12.03.211.12.211h.36c.6 0 1.2-.09 1.86-.27 0-1.295.06-2.65.12-4.065 0-.843.39-1.265 1.23-1.265.721.03 1.081.512 1.081 1.415-.06 1.144-.12 2.168-.12 3.071.6-.27 1.2-.602 1.86-.993.18-.09.33-.15.42-.211h.3c.331.06.601.18.781.421.06.09.12.181.15.301v.211c-.03.18-.09.361-.18.482zm12.124 1.716c-.84.482-1.771.933-2.851 1.355-1.05.451-2.13.812-3.271 1.083-.48.12-.93.211-1.35.211h-.42c-.57-.09-.84-.421-.84-.993v-.452c.09-.361.39-.692.93-.963.18.03.42.03.66.03.48 0 .99-.06 1.5-.18.03-.061.06-.151.12-.272.18-.542.36-1.144.51-1.806.09-.482.15-.933.15-1.355 0-.421-.03-.783-.06-1.144-.87.301-1.74.542-2.61.723-.6.12-1.2.18-1.771.18h-.51c-.54-.06-.78-.361-.78-.873v-.451c.09-.301.39-.602.87-.873.18.03.39.03.66.03 1.14 0 2.4-.211 3.751-.693h.03c-.12-.33-.21-.632-.33-.903-.3-.512-.45-.903-.45-1.174 0-.452.12-.783.39-.994.15-.15.39-.24.69-.27.3 0 .54.09.72.27.18.181.39.452.57.783.24.482.42.964.6 1.505a28.01 28.01 0 0 0 2.461-1.083c.24-.15.45-.271.63-.362.27 0 .54.09.84.211.36.241.57.452.57.632 0 .211-.09.422-.27.633-.18.24-.45.451-.75.602-.96.512-1.98.963-3.12 1.354.03.482.06.934.06 1.415 0 .663-.12 1.446-.36 2.288l-.27.904c.78-.301 1.62-.693 2.52-1.144.15-.12.3-.241.42-.301.24 0 .54.09.87.24.33.211.51.422.51.633 0 .18-.09.391-.24.632-.18.24-.42.451-.78.572zm4.92 4.516c-.03.3-.15.572-.39.873-.99.542-2.13 1.054-3.42 1.535 0 .723 0 1.385.03 2.017 0 1.415.03 2.83.06 4.275.06 1.536.09 2.95.15 4.275 0 .934-.18 1.566-.54 1.927-.3.301-.69.482-1.23.482-1.291 0-2.431-.663-3.452-1.987-.3-.422-.45-.873-.45-1.355.03-.542.33-.813.9-.813.27.03.54.21.78.542.811.963 1.471 1.475 1.981 1.475-.06-1.385-.15-2.98-.27-4.787-.06-1.415-.09-2.98-.15-4.666 0-.18-.03-.391-.03-.572-.3.12-.57.24-.84.301a51.92 51.92 0 0 1-4.111 1.234c.18.603.33 1.114.51 1.536.06.27.12.451.12.572-.06.572-.3.873-.78.903-.42 0-.75-.21-1.02-.632-.42-.422-.75-1.054-1.02-1.837-.841.211-1.651.362-2.431.482-.21.12-.36.15-.48.15-.27 0-.51-.15-.69-.451-.18-.24-.24-.602-.24-1.084 0-.331.21-.602.6-.783.96-.24 1.86-.421 2.64-.602-.06-.18-.09-.33-.09-.511-.03-.181-.03-.392-.03-.633.03-.692.45-1.053 1.23-1.114.42 0 .72.271.9.783.06.271.12.572.24.933 1.921-.481 3.752-.993 5.432-1.475-.03-.15-.03-.27-.03-.391-.06-.813-.06-1.626-.06-2.469 0-.662.39-1.023 1.17-1.054.75 0 1.14.362 1.14 1.054 0 .843.03 1.536.06 2.138.03 0 .06-.03.09-.03a43.67 43.67 0 0 1 2.522-.964c.15-.06.3-.09.45-.09.3.03.51.15.69.391.03.15.06.301.06.422zM167.63 1.867c0 .3-.15.572-.42.873-1.05.993-3.78 2.137-8.222 3.462-.66.21-1.29.391-1.89.542-.72 1.686-1.711 3.673-2.942 5.99-.96 1.777-1.89 3.403-2.73 4.878a69.309 69.309 0 0 1-1.74 2.95c-.63.964-1.141 1.626-1.561 2.047-.3.241-.6.362-.9.362-.27-.12-.39-.301-.39-.572 0-.18.06-.452.18-.753.12-.542.39-1.114.78-1.716.42-1.024 1.11-2.258 2.01-3.763 1.2-2.108 2.4-4.335 3.601-6.684.33-.632.63-1.294.93-1.957-.81.241-1.56.452-2.28.633-.66.15-1.14.24-1.41.24-.45.09-.84.12-1.2.12-.541-.03-.871-.45-.991-1.264 0-.33.27-.662.87-.963.36-.12.78-.24 1.32-.421 1.651-.332 3.271-.723 4.832-1.144.48-1.325.84-2.53 1.14-3.643.18-.422.48-.632.9-.663h.36c.48.12.72.512.72 1.144 0 .512-.18 1.355-.54 2.5.12-.03.27-.06.39-.121 3.662-.964 6.513-1.867 8.523-2.65.27 0 .48.09.6.271.03.09.06.181.06.302zm-9.332 16.558a90.6 90.6 0 0 0-.45 4.485c.42-.18.78-.36 1.11-.511.96-.452 1.8-.934 2.58-1.445.42-.301.69-.482.81-.542.15-.06.3-.09.42-.09.301.03.511.12.631.3.03.151.06.302.06.422-.03.301-.15.572-.33.843-.57.542-1.29 1.084-2.13 1.596-1.02.662-1.951 1.144-2.851 1.445-.18.09-.3.12-.42.12-.06 0-.12 0-.12-.03-.12 1.325-.21 2.438-.24 3.312-.06.632-.15 1.083-.27 1.324-.27.301-.57.482-.9.482-.421-.06-.691-.301-.811-.753-.03-.18-.03-.481-.03-.903 0-.783.27-3.402.81-7.918.42-3.974.66-6.984.69-9.001V9.875c0-.542.24-.903.75-1.084h.69c.21.03.39.09.51.21.691-.3 1.561-.601 2.642-.842 1.05-.241 1.74-.362 2.07-.362 1.74 0 2.67.753 2.85 2.258-.06 1.927-.09 4.125-.09 6.654 0 2.498.151 5.449.451 8.88.12 1.386.3 2.891.48 4.487 0 .933-.36 1.415-1.08 1.445-.54 0-1.14-.18-1.83-.482-1.111-.512-1.951-1.234-2.491-2.137-.12-.181-.18-.422-.21-.663 0-.361.18-.602.6-.722.48 0 1.41.421 2.73 1.264-.45-3.613-.69-7.647-.72-12.042v-.663c-.12.06-.24.151-.36.211a57.075 57.075 0 0 1-3.36 1.506c-1.111.421-1.831.632-2.191.632zm5.941-4.155c0-1.264.03-2.529.09-3.823-.06-.422-.33-.633-.81-.663-1.08 0-2.55.422-4.411 1.235-.06.361-.09.752-.12 1.114l-.3 2.8c-.06.541-.12 1.053-.18 1.565.12-.06.3-.12.48-.18 3-1.355 4.741-2.048 5.191-2.048h.06zm31.858.06c0 2.168-.81 4.486-2.43 6.955-1.621 2.499-3.422 4.154-5.372 4.937-.3.12-.51.18-.69.18-.78 0-1.17-.48-1.17-1.414 0-.482.42-1.054 1.26-1.716.3-.241.66-.362 1.08-.362a16.612 16.612 0 0 0 3.33-3.793c1.081-1.686 1.621-3.281 1.621-4.787 0-1.565-1.14-2.498-3.39-2.83-.961 2.89-2.431 5.63-4.352 8.22-1.26 1.685-2.58 2.498-3.901 2.498-1.02 0-1.83-.482-2.49-1.445a5.081 5.081 0 0 1-.931-2.98c0-2.048 1.47-4.095 4.471-6.172 2.581-1.776 4.862-2.68 6.782-2.68 1.74 0 3.181.452 4.321 1.295 1.23.963 1.86 2.348 1.86 4.094zm-8.552-2.288c-1.35.542-2.671 1.325-3.932 2.318-1.68 1.325-2.52 2.53-2.52 3.643 0 .362.12.723.36 1.144.24.392.48.572.69.572.84 0 2.19-1.535 4.021-4.636.45-.783.9-1.806 1.38-3.04zm23.545-6.924c.06-.03.15-.06.24-.09 2.1-.572 5.191-1.295 9.332-2.138 1.921-.451 3.301-.692 4.112-.692.24 0 .45.03.63.06.42.24.66.572.66 1.024 0 .752-.96 1.776-2.82 3.1-.18.181-.39.301-.631.422-.27.18-.48.24-.63.24-.18 0-.3-.06-.42-.24a.5.5 0 0 1-.15-.391c0-.181.09-.362.33-.542a9.29 9.29 0 0 0 1.29-1.385c-1.44.21-5.131 1.114-11.013 2.71-.24.09-.45.15-.63.18 0 .512-.09 1.054-.21 1.626-.18.481-.36.933-.54 1.354-.12.271-.24.482-.36.633-.21.27-.54.421-.96.421-.48-.06-.69-.301-.69-.722 0-.151.06-.362.15-.663.12-.391.21-.843.33-1.355.06-.33.09-.692.09-1.053 0-.813-.12-1.445-.36-1.927-.15-.24-.21-.421-.21-.572 0-.421.12-.753.39-.994.15-.15.39-.24.69-.27.3 0 .54.09.72.27.18.181.36.422.54.783.06.06.09.15.12.211zm3.51-2.68c-.48-.15-.72-.571-.72-1.234 0-.15.09-.361.33-.602.36-.361.81-.542 1.351-.602 0 .18.27.301.81.331.54.15 1.56.331 3.061.572.24.06.36.21.36.512 0 .361-.18.692-.54.933-.3.211-.63.301-.93.301-1.17 0-2.4-.06-3.721-.21zm9.063 6.835c-.63.33-1.56.662-2.79.993-.03.783-.12 1.626-.27 2.529.06 0 .12-.03.18-.06.72-.18 1.2-.301 1.5-.301.18 0 .36.03.54.09.18.15.27.301.3.482 0 .27-.12.511-.33.752-.6.301-1.5.602-2.67.904-.3.903-.63 1.746-1.021 2.528 1.62-.33 3.09-.692 4.471-1.053 1.32-.362 2.25-.542 2.761-.542.24 0 .45.06.63.15.24.181.36.362.39.542 0 .331-.15.632-.42.934-1.08.481-2.7.933-4.831 1.414.75.482 1.77 1.084 3.06 1.837 1.771.993 3.272 1.927 4.472 2.8.21.18.36.421.48.722 0 .09.03.18.03.271 0 .241-.12.482-.33.723-.18.18-.36.24-.48.24-.18 0-.39-.09-.69-.33l-4.592-2.47c-1.56-.902-3.18-1.836-4.861-2.86-.06-.09-.06-.18-.06-.24-1.44.301-2.85.602-4.291.873-.03.12-.06.21-.06.24-.12.392-.36.904-.78 1.506-2.011 2.8-3.661 4.727-4.952 5.87-.6.482-1.14.844-1.56 1.054-.24.09-.48.151-.69.151-.45 0-.69-.24-.75-.692 0-.271.09-.512.33-.753 2.34-2.077 4.29-4.335 5.851-6.864-.87.18-1.71.33-2.55.481-.63.12-1.291.211-2.011.271h-.21c-.57-.3-.84-.722-.84-1.264 0-.301.18-.542.51-.783.42-.12.99-.21 1.71-.27a286.31 286.31 0 0 0 5.552-.994c-.03-.12-.06-.301-.06-.482l-.18-1.626c-.3.09-.57.15-.81.211-.36.06-.72.12-1.08.15h-.211c-.42-.24-.63-.571-.63-1.053 0-.18.12-.361.36-.542.24-.06.57-.12.93-.18.42-.09.84-.181 1.2-.241-.03-.06-.03-.12-.03-.181-.09-.512-.21-1.234-.39-2.138-.18.06-.39.09-.57.15-.36.091-.78.151-1.23.182h-.21c-.54-.271-.78-.693-.78-1.235 0-.24.18-.481.48-.692.24-.06.6-.15 1.05-.21.3-.061.57-.121.81-.182-.03-.09-.03-.15-.03-.18-.03-.09-.06-.241-.09-.452 0-.662.24-1.084.72-1.204h.36c.54 0 .87.391 1.02 1.144 0 .12.03.21.06.271a58.18 58.18 0 0 0 3.782-.933 9.702 9.702 0 0 0-.24-1.084c-.18-.361-.24-.602-.24-.753 0-.361.09-.662.33-.903.12-.12.33-.18.6-.21.24 0 .45.09.6.21.18.18.33.422.51.723.15.481.27.963.33 1.505.21-.06.39-.12.57-.18.84-.242 1.411-.392 1.711-.392.21 0 .42.06.66.18.24.151.36.332.39.512 0 .331-.15.633-.42.934zm-6.692 8.369c.12-.271.27-.572.45-.903.24-.512.45-1.054.63-1.596-.72.21-1.44.392-2.13.512.03.421.06.753.09 1.024 0 .451.03.843.06 1.144.33-.06.63-.12.9-.181zm1.62-4.335c.03-.06.06-.09.06-.15.18-.844.301-1.626.331-2.41-1.17.302-2.34.603-3.541.874.03.21.06.391.09.512.06.722.15 1.324.21 1.866 1.05-.21 2.01-.451 2.85-.692zm-1.59 8.52c.27 0 .66.15 1.2.391.39.21.781.452 1.201.723.48.3.81.572.99.782.12.301.21.633.21.994-.06.421-.21.662-.48.783h-.18c-.09 0-.24-.03-.42-.15-.72-.302-1.29-.573-1.74-.754-.48-.18-.93-.36-1.35-.541-.42-.181-.63-.603-.63-1.265.12-.602.51-.903 1.2-.963zm2.431 9.393c-.6 0-1.35-.241-2.25-.723-.84-.512-1.35-.903-1.53-1.204-.271-.18-.391-.422-.391-.753 0-.3.03-.542.15-.722.18-.362.51-.512.99-.512.9.542 1.98 1.234 3.241 2.017.42.15.63.482.63.963-.06.572-.33.873-.84.934zm34.949-24.085c0-.873-.48-1.325-1.38-1.325-.601.362-1.051.663-1.351.843-1.11.723-3.001 1.205-5.672 1.476-.78-1.325-1.26-2.138-1.44-2.5-.3-.42-.66-.662-1.08-.662-.78 0-1.17.452-1.17 1.355 0 .301.3.933.93 1.927-.33 0-1.02-.03-2.041-.09-.96-.06-1.44-.09-1.5-.09-.78 0-1.17.45-1.17 1.324 0 .783.45 1.234 1.38 1.295.72.06 1.44.09 2.22.09.42 0 1.26 0 2.55-.03 2.161 3.823 3.662 5.72 4.502 5.72.78 0 1.2-.392 1.2-1.174 0-.362-.12-.663-.36-.964-.9-1.023-1.77-2.288-2.64-3.733 1.8-.3 3.33-.752 4.62-1.355 1.591-.722 2.402-1.414 2.402-2.107zM251.38 25.47c0-.842-.42-1.264-1.2-1.264-.36 0-.66.21-.96.572-.21.06-.391.09-.511.09-.69 0-1.5-.24-2.43-.752-2.581-1.385-3.872-2.65-3.872-3.763 0-.422.51-.813 1.56-1.205.48-.18.75-.692.75-1.505 0-.18-.15-.421-.39-.662-.24-.211-.45-.332-.69-.332-.42 0-1.08.302-2.04.904-1.08.662-1.59 1.595-1.59 2.8 0 1.294.75 2.649 2.25 4.064.9.843 1.89 1.505 3.031 2.047 1.26.602 2.43.903 3.511.903.6 0 1.17-.15 1.68-.421.6-.362.9-.873.9-1.476zm38.34-15.564c0 .572-.21.843-.631.843-.21 0-.72-.15-1.53-.482-.3-.06-.72-.21-1.26-.421-.571-.181-.841-.482-.841-.904 0-.24.09-.451.27-.662.18-.18.36-.301.54-.301.24 0 .99.24 2.22.692.811.302 1.231.723 1.231 1.235zm-2.762 2.167c0 .633-.27.934-.81.934-.27 0-.51-.06-.69-.241-1.08-.783-1.59-1.445-1.59-2.017 0-.482.24-.723.78-.723.27 0 .54.12.84.331.24.241.51.482.81.723.42.391.66.722.66.993zm-2.97-4.094c0 .602-.21.994-.6 1.174-2.041.994-3.842 2.56-5.402 4.667-1.74 2.348-2.61 4.576-2.61 6.683 0 1.024.48 1.867 1.5 2.469.96.662 2.28 1.023 3.9 1.084.84.06 1.261.481 1.261 1.294 0 .843-.42 1.265-1.2 1.265-1.32 0-2.641-.302-4.021-.843-2.521-1.024-3.782-2.92-3.782-5.72 0-3.101 1.53-6.323 4.622-9.634-3.241.662-6.062.963-8.433.963-2.46 0-3.66-.482-3.66-1.505 0-.663.42-1.174 1.26-1.566a5.603 5.603 0 0 1 2.13-.421c1.2 0 1.98.27 2.341.813 1.83 0 5.101-.512 9.813-1.566.36-.06.9-.21 1.65-.391.81 0 1.23.421 1.23 1.234zm16.583-3.854c0 .302-.12.693-.33 1.175-.18.481-.42 1.053-.78 1.686a41.78 41.78 0 0 1-2.101 3.401c-.15.241-.3.482-.42.693 0 .03.03.06.06.06.45.873.72 2.258.78 4.125 0 3.432-.18 6.683-.54 9.694a78.058 78.058 0 0 1-.42 3.552c-.18.602-.51.903-.99.903-.63 0-.93-.36-.93-1.053 0-.994.12-2.8.36-5.42a64.6 64.6 0 0 0 .24-5.569v-1.987c0-.662-.06-1.294-.12-1.897-.21.301-.42.603-.6.904-.571.812-1.171 1.776-1.801 2.86-.24.33-.51.481-.78.481-.51 0-.78-.24-.81-.722a.98.98 0 0 1 .3-.723c.3-.542.69-1.264 1.17-2.137.6-1.084 1.35-2.439 2.28-4.095.72-1.354 1.5-2.77 2.34-4.275.241-.511.511-1.053.751-1.595.15-.241.3-.542.42-.873.27-.12.66-.181 1.17-.181.48.18.75.512.75.993zm13.534 4.938c-1.17.421-2.491.993-3.931 1.656-.06 1.023-.09 2.017-.12 3.04-.12 1.626-.27 2.92-.42 3.944-.18 1.054-.39 1.957-.66 2.74-.42.542-.841.783-1.201.783-.54 0-.81-.211-.81-.663 0-.18.06-.361.18-.512.12-.541.21-1.053.33-1.565.21-1.415.39-3.643.51-6.714-1.23.572-2.31 1.084-3.241 1.506-.15.09-.27.15-.33.18-.12 2.53-.18 4.998-.18 7.376 0 2.047.3 3.492.93 4.275.96 1.235 2.82 1.927 5.612 2.047 1.08 0 2.01-.09 2.76-.24 2.101-.542 3.181-2.138 3.181-4.908 0-.421-.09-.873-.24-1.354 0-.663.27-1.024.81-1.084.39 0 .69.3.87.873.12.331.24.843.3 1.565.03.422.06.964.06 1.626-.12 1.927-.93 3.432-2.49 4.546-1.32.843-3.18 1.264-5.521 1.295-1.5 0-2.821-.211-3.901-.572-1.26-.452-2.221-1.054-2.851-1.807-1.08-1.204-1.62-3.281-1.62-6.232 0-1.866.03-3.974.15-6.292-.06.06-.12.09-.15.09-1.021.542-1.651.813-1.891.813-.63-.12-1.02-.481-1.14-1.114v-.27c0-.362.15-.663.51-.964.48-.27.96-.512 1.44-.722.45-.211.9-.392 1.35-.572.06-1.325.15-2.68.3-4.004.03-.753.39-1.145 1.08-1.145.57.03.871.422.931 1.145a55.93 55.93 0 0 0-.18 3.07c1.05-.421 2.04-.843 3-1.264.18-.06.33-.15.51-.21.03-1.476.09-3.885.151-7.196 0-.663.3-1.024.9-1.084h.39c.6.06.9.421.9 1.084 0 1.686-.06 3.763-.12 6.232.78-.301 1.561-.602 2.311-.873 1.41-.542 2.31-.813 2.671-.813.39 0 .66.09.84.24.33.332.51.723.54 1.145 0 .451-.12 1.174-.33 2.137a19.48 19.48 0 0 1-.75 2.348 11.612 11.612 0 0 1-2.22 3.463c-.3.18-.6.24-.87.24-.421-.03-.631-.27-.631-.722 0-.21.06-.391.18-.512.09-.18.21-.391.39-.632.3-.422.63-1.204 1.05-2.348.18-.482.3-.964.42-1.476.15-.722.24-1.234.24-1.595zm34.048.843c0 .572-.21.843-.63.843-.21 0-.72-.15-1.53-.482-.3-.06-.721-.21-1.261-.421-.57-.181-.84-.482-.84-.904 0-.24.09-.451.27-.662.18-.18.36-.301.54-.301.24 0 .99.24 2.22.692.81.302 1.23.723 1.23 1.235zm-2.76 2.167c0 .633-.271.934-.811.934-.27 0-.51-.06-.69-.241-1.08-.783-1.59-1.445-1.59-2.017 0-.482.24-.723.78-.723.27 0 .54.12.84.331.24.241.51.482.81.723.42.391.66.722.66.993zm-2.972-4.094c0 .602-.21.994-.6 1.174-2.04.994-3.841 2.56-5.401 4.667-1.741 2.348-2.611 4.576-2.611 6.683 0 1.024.48 1.867 1.5 2.469.96.662 2.28 1.023 3.901 1.084.84.06 1.26.481 1.26 1.294 0 .843-.42 1.265-1.2 1.265-1.32 0-2.64-.302-4.02-.843-2.522-1.024-3.782-2.92-3.782-5.72 0-3.101 1.53-6.323 4.621-9.634-3.24.662-6.061.963-8.432.963-2.46 0-3.661-.482-3.661-1.505 0-.663.42-1.174 1.26-1.566a5.603 5.603 0 0 1 2.131-.421c1.2 0 1.98.27 2.34.813 1.831 0 5.102-.512 9.813-1.566.36-.06.9-.21 1.65-.391.811 0 1.231.421 1.231 1.234zM374.7 23.001c0 .933-.36 1.385-1.02 1.385-.81 0-1.2-.362-1.2-1.084 0-2.348-.961-3.763-2.882-4.305-.54 1.836-1.38 3.341-2.52 4.516-1.35 1.445-2.881 2.137-4.592 2.137-1.35 0-2.55-.21-3.57-.692-1.41-.572-2.101-1.475-2.101-2.68 0-1.505 1.02-2.8 3.06-3.944 2.311-1.264 4.952-1.926 7.953-1.926 0-1.024-.09-2.258-.21-3.643-1.8.24-3.12.361-3.901.361-1.32 0-2.55-.15-3.691-.451-.54-.151-.81-.603-.81-1.355 0-.271.12-.512.36-.753.24-.24.51-.361.81-.361 1.32.3 2.49.421 3.45.421.541 0 1.531-.09 2.942-.27l-.87-1.205c-.33-.451-.48-.813-.48-1.084 0-.782.36-1.174 1.11-1.174.33 0 .66.211.99.602.6.873 1.08 1.716 1.47 2.53 1.2-.242 2.19-.422 2.971-.603.72 0 1.11.422 1.11 1.265 0 .782-.63 1.234-1.83 1.415l-1.41.24c.12 1.144.18 2.078.18 2.83 0 .18-.03.663-.03 1.415 1.44.422 2.61 1.174 3.45 2.258.84 1.114 1.26 2.499 1.26 4.155zm-7.412-4.215c-2.01 0-4.081.542-6.182 1.626-.33.18-.72.451-1.2.843-.6.481-.9.843-.9 1.023 0 .18.39.392 1.17.602.78.241 1.47.332 2.07.332 2.191 0 3.872-1.476 5.042-4.426zm-12.904.331c-.18-1.023-.27-2.137-.27-3.402 0-.421.03-1.114.09-2.077.03-.482.06-.963.12-1.445 0-.361-.09-.662-.27-.933-.21-.271-.42-.422-.66-.422-.6 0-1.11.391-1.47 1.174-.24.542-.42 1.024-.48 1.415 0 .392.18.753.6 1.114.03 2.409.09 3.854.15 4.335.15 1.144.6 1.686 1.35 1.686.54 0 .84-.481.84-1.445zm34.379-5.99c-.06.692-.09 1.354-.12 1.956.63-.331 1.47-.692 2.52-1.084a52.77 52.77 0 0 1 2.61-.752c.241-.723.481-1.446.691-2.108-2.34.723-4.261 1.355-5.732 1.867 0 .06.03.09.03.12zm-2.251.51c-.36-.09-.54-.36-.6-.842 0-.271.15-.512.45-.753 1.17-.752 3.6-1.565 7.322-2.468.48-.09.87-.15 1.23-.15.33 0 .66.09.96.24.42.301.66.632.66 1.024 0 .421-.15 1.083-.39 1.987-.51 1.565-1.11 3.1-1.83 4.576-.3.602-.57 1.053-.78 1.354-.24.332-.57.482-.93.482-.12 0-.18 0-.24-.06-.09.06-.15.12-.21.15a45.83 45.83 0 0 1-3.902 1.807l-.06.03c-.03.21-.06.391-.06.572-.09 1.897-.15 3.462-.15 4.696 0 .602.03.994.12 1.174.9-.33 1.92-.842 3.001-1.535.12-.18.33-.27.57-.27.24.03.39.24.39.631 0 .362-.18.723-.51 1.144-.63.723-1.38 1.325-2.22 1.837-.72.391-1.38.602-1.98.602-.901 0-1.351-.662-1.381-1.957 0-1.867.06-3.884.21-6.111.21-2.83.33-5.299.36-7.376 0-.211-.03-.482-.03-.783zm5.701 3.433c.36-.783.66-1.505.93-2.228-1.32.572-2.85 1.204-4.62 1.927-.06.843-.12 1.596-.18 2.228 1.53-.602 2.82-1.265 3.87-1.927zm2.821 6.985c.84.602 1.65 1.204 2.461 1.746 2.31 1.445 4.531 2.498 6.692 3.221.39.12.78.24 1.2.421.51.241.78.512.78.813-.06.301-.27.482-.66.572-.24.03-.57.06-.99.06-.54-.06-1.14-.18-1.8-.33-1.2-.302-2.461-.813-3.752-1.476-1.44-.662-2.94-1.565-4.5-2.65a70.388 70.388 0 0 1-3.842-2.95c-.21-.18-.33-.36-.36-.541 0-.362.12-.663.36-.934.15-.18.36-.3.66-.3.3 0 .51.06.63.15.18.09.45.24.78.481.3.211.6.422.93.663.871-.753 1.681-1.596 2.402-2.56.12-.24.3-.48.48-.722.12-.18.3-.3.54-.361.27 0 .51.09.75.21.3.242.45.513.45.874 0 .12-.06.3-.15.482-.09.18-.24.421-.45.662-.75.903-1.62 1.746-2.61 2.469zm8.763-11.862c-.57-.241-1.47-.753-2.731-1.536l-4.771-2.83a325.1 325.1 0 0 1-4.712-3.16c-.42-.211-.72-.422-.93-.603-.48.813-1.02 1.686-1.65 2.65.42.06.84.09 1.32.09.9 0 1.74-.12 2.46-.361.36.391.57.632.57.752 0 .843-1.11 1.325-3.27 1.475-.99 0-1.71-.06-2.16-.21l-.09-.03-.03.03a24.776 24.776 0 0 1-2.581 3.01c-.9.903-1.801 1.686-2.641 2.409-.54.481-.96.873-1.29 1.174-.15.12-.27.21-.36.3a1 1 0 0 1-.45.091c-.27-.06-.451-.24-.511-.602 0-.24.06-.482.21-.692.15-.271.42-.602.81-1.024.48-.542 1.14-1.294 2.01-2.258a87.748 87.748 0 0 0 3.572-4.516c.72-1.023 1.41-2.047 2.01-3.07.48-.874.93-1.596 1.29-2.198.15-.361.45-.542.901-.542a.8.8 0 0 1 .33.06c.42.18.66.452.66.843 0 .18-.06.422-.18.693.42.24.93.572 1.5.933 1.441.963 3.722 2.408 6.813 4.395 1.62 1.024 2.94 1.837 3.93 2.499.33.24.6.452.841.662.21.241.33.482.36.693 0 .662-.3.963-.84.963-.12 0-.27-.03-.39-.09zm25.946-5.118c0 .18-.09.361-.27.482-.18.18-.36.24-.54.24-.48 0-.99-.451-1.501-1.415-.42-.722-.63-1.264-.63-1.595 0-.15.09-.301.27-.482.18-.12.36-.21.54-.21.48 0 .93.481 1.41 1.414.48.693.72 1.205.72 1.566zm-2.1 1.174c0 .602-.301.903-.901.903-.24 0-.6-.21-1.02-.632-.6-.602-1.02-.903-1.32-.903-.27 0-.511-.15-.751-.452-.21-.27-.3-.572-.3-.933 0-.723.3-1.084.93-1.084.24 0 .9.482 1.98 1.445.9.843 1.381 1.385 1.381 1.656zm4.62 15.414c0 .903-.45 1.325-1.29 1.325-.84 0-1.92-.903-3.27-2.74-1.051-1.385-1.981-2.95-2.822-4.636-.81-1.566-1.86-3.432-3.18-5.63-.69-1.114-1.441-1.686-2.281-1.686-1.41 0-3.331 1.566-5.792 4.636-.39.482-.81.693-1.23.693-.78 0-1.17-.452-1.17-1.355 0-.361.09-.632.3-.843 3.27-3.853 5.881-5.81 7.862-5.81 1.56 0 3.06 1.023 4.471 3.01.54.783 1.14 1.807 1.8 3.041.54 1.054 1.11 2.107 1.681 3.161.15.301 1.05 1.505 2.73 3.583 1.441 1.836 2.191 2.92 2.191 3.251zm16.584-17.792c0-.512-.48-.964-1.38-1.325-1.801-1.084-2.882-1.626-3.242-1.626-.78 0-1.17.482-1.17 1.445 0 .392.27.873.87 1.415.24.211.6.331 1.14.331l1.591.934c.42.24.75.361.99.361.78 0 1.2-.512 1.2-1.535zm9.302 10.145c0-1.415-.48-2.649-1.38-3.703-.99-1.084-2.19-1.656-3.601-1.656-2.64 0-5.072 1.325-7.292 3.914.54-1.626.84-2.89.84-3.733 0-1.716-.48-2.589-1.41-2.589-.51 0-.9.21-1.2.632-.3.452-.45.933-.45 1.475 0 .422.09.753.3 1.054.12.391.18.693.24.933-.63 2.53-1.081 4.245-1.321 5.148-.15.422-.21.753-.21.994 0 .301.09.542.33.783.18.24.42.33.72.33.78 0 1.32-.42 1.59-1.324.51-1.023 1.801-2.258 3.902-3.643 1.32-.903 2.64-1.354 4.02-1.354 1.621 0 2.432.933 2.432 2.77 0 1.354-.48 2.8-1.44 4.365-.871 1.385-1.861 2.559-2.972 3.462-1.2.993-2.31 1.475-3.3 1.475-.27 0-.6-.03-.99-.15-.451-.09-.751-.151-.871-.151-.54.21-.81.662-.81 1.385 0 .963.78 1.445 2.37 1.445 1.23 0 2.251-.24 3.061-.662 2.941-1.716 5.102-4.095 6.482-7.166.63-1.505.96-2.83.96-4.034zm34.349 5.69c0 .452-.24.843-.69 1.174-2.131 1.506-3.782 2.258-4.952 2.258-1.65 0-2.46-1.083-2.46-3.251 0-.843.24-2.529.78-5.058.54-2.65.84-3.974.84-4.004 0-.301-.12-.542-.36-.783a1.56 1.56 0 0 0-.87-.27c-2.671 0-5.942 2.167-9.813 6.502.15.843.54 2.56 1.14 5.118l.33 1.475c0 .873-.42 1.325-1.2 1.325-.6 0-1.02-.452-1.29-1.295a48.71 48.71 0 0 1-1.05-4.004c-.841 1.265-1.351 2.349-1.561 3.252-.18.813-.6 1.204-1.2 1.204-.841 0-1.261-.421-1.261-1.294 0-.934.6-2.349 1.8-4.215.18-.241.75-1.205 1.77-2.83l-.06-2.56c0-.39 0-1.354.06-2.86-.42.181-.9.452-1.5.783-.66.482-1.29.723-1.89.723-.3 0-.57-.12-.81-.361-.24-.241-.36-.482-.36-.753 0-.662.24-1.114.72-1.325.78-.3 2.13-.722 4.051-1.324l.36-2.8c.27-1.385.69-2.077 1.29-2.077.84 0 1.29.451 1.29 1.354-.06.362-.15 1.235-.33 2.62.66-.241 1.561-.633 2.701-1.114.9-.482 1.47-.753 1.711-.753.18 0 .36.09.54.271.15.21.24.421.24.662 0 .542-.27 1.084-.81 1.626-.48.602-1.44 1.987-2.94 4.155 3.06-2.71 5.7-4.095 7.921-4.095 2.551 0 3.841 1.114 3.841 3.312 0 .722-.24 2.168-.72 4.335-.66 2.95-.96 4.727-.96 5.359 0 .361.15.512.45.512.54 0 1.23-.362 2.13-1.144.9-.783 1.501-1.174 1.861-1.174.84 0 1.26.451 1.26 1.324zM477.402 9.754c-.63.18-1.53.542-2.67 1.054l-.18 3.04 2.85-4.094zm41.79 3.763c0 .482-.12.904-.33 1.205-.27.3-.57.451-.9.451-.39 0-.72-.12-.96-.361-.3-.24-.42-.512-.42-.843 0-.06 0-.24.06-.482-.18-.21-.45-.511-.75-.873-.78-.602-1.14-1.144-1.14-1.565 0-.903.42-1.385 1.26-1.385.33 0 .96.482 1.92 1.385.84.843 1.26 1.656 1.26 2.468zm-1.23-6.954c0 .572-.33.963-.93 1.144-2.94.903-5.972 1.445-9.152 1.656-1.35 3.522-3.151 7.165-5.372 10.898-.15.482-.54.723-1.17.723-.33 0-.6-.12-.78-.422-.24-.24-.33-.542-.33-.843 0-.18.06-.421.21-.692 2.1-3.673 3.69-6.864 4.8-9.574-1.68-.03-2.88-.12-3.57-.3-.63-.121-.93-.513-.93-1.175 0-.873.33-1.325 1.05-1.325 1.05.12 2.25.181 3.57.181h.781c.12-.421.36-1.144.66-2.198.18-.602.6-.933 1.23-.933.3 0 .57.15.81.391.24.271.36.572.36.934 0 .24-.15.782-.42 1.655 1.261-.09 3.872-.602 7.803-1.565.9 0 1.35.482 1.38 1.445zm-.87 19.539c0 .843-.42 1.294-1.23 1.294-.78 0-1.17-.451-1.17-1.294 0-1.957-.45-3.252-1.32-3.884a6.847 6.847 0 0 1-1.771 2.83c-.96.933-1.981 1.415-3.001 1.415-2.641 0-3.961-.994-3.961-2.98 0-1.145.78-2.168 2.37-3.131 1.44-.874 2.821-1.325 4.201-1.325.12 0 .33.03.57.06.06-.873.09-1.505.09-1.866 0-.633-.18-1.325-.48-2.078-.39-.331-.57-.692-.57-1.053 0-.392.12-.753.36-1.054.24-.271.54-.422.9-.422.6 0 1.111.512 1.561 1.536.45 1.174.69 2.318.69 3.462 0 .512-.09 1.174-.21 2.017 1.98 1.204 2.971 3.372 2.971 6.473zm-5.942-4.877c-.96 0-1.89.18-2.85.541-1.08.452-1.59.964-1.59 1.506 0 .481.36.722 1.14.722.78 0 1.53-.3 2.19-.903.6-.542.96-1.144 1.11-1.866zM550 18.876c0-3.07-.81-5.6-2.4-7.556-.36-.422-.75-.632-1.171-.632-.36 0-.72.15-1.02.39-.3.302-.42.603-.42.964 0 .663.33 1.355 1.05 2.078.93 1.023 1.41 2.408 1.41 4.154 0 .783-.12 1.716-.36 2.86-.15.663-.21 1.084-.21 1.325 0 .933.45 1.385 1.38 1.385 1.14 0 1.741-1.656 1.741-4.968zM535.236 22.7c0-.903-.39-1.355-1.17-1.355-.42 0-.9.301-1.38.903-.541.632-.991.933-1.351.933-.45 0-.81-.752-1.11-2.318-.24-1.354-.36-2.92-.36-4.726v-2.228c-.03-1.084-.03-1.656-.03-1.776 0-1.626-.42-2.469-1.231-2.469-.96 0-1.44.482-1.44 1.385 0 .03 0 .27.06.752.12 1.355.21 2.62.21 3.764 0 2.77.15 4.847.45 6.262.54 2.71 1.62 4.034 3.24 4.064 1.231 0 2.461-.662 3.692-2.047.27-.301.42-.693.42-1.144zM11.373 46.935l1.17-.271c.06 0 .09-.03.12-.03l.18-.18c.09-.061.24-.181.45-.362.15-.12.33-.301.57-.512.301-.3.511-.572.691-.813.15-.24.24-.481.24-.782 0-.181-.03-.392-.06-.603-.03-.09-.03-.18-.03-.27 0-.482.27-.723.87-.783.48 0 .81.15.99.391.24.331.39.753.39 1.234 0 .482-.24.964-.66 1.446-.18.21-.39.421-.63.602 2.101-.392 3.421-.602 3.962-.602.33 0 .57.12.69.33.15.242.24.482.24.723s-.15.452-.45.632a293.65 293.65 0 0 1-6.632 1.686c.03.843.06 1.686.06 2.469.84-.24 1.65-.482 2.4-.723.96-.36 1.59-.602 1.831-.662.18-.06.33-.12.48-.12.24.03.48.15.66.391.03.12.06.271.06.391-.03.302-.15.573-.39.843-1.26.693-2.85 1.355-4.771 1.957-.09.03-.18.06-.24.06 0 .241.03.482.03.693v1.716c1.47-.361 2.82-.723 4.081-1.114 1.38-.451 2.25-.722 2.58-.843.15-.06.3-.09.45-.09.3.03.511.15.691.391.03.15.06.301.06.452-.03.27-.15.542-.36.843-1.74.843-3.931 1.625-6.632 2.408-3.09.933-6.062 1.626-8.882 2.077-.24.09-.39.12-.51.12-.27 0-.51-.12-.72-.42-.15-.241-.21-.603-.21-1.084 0-.362.21-.633.6-.813 1.86-.361 3.42-.663 4.74-.934.75-.18 1.471-.33 2.161-.511-.06-.18-.06-.392-.06-.602V54.01c-1.5.451-2.91.783-4.29 1.023-.211.12-.361.15-.421.15-.27 0-.51-.12-.69-.42-.18-.241-.24-.573-.24-1.054 0-.301.21-.572.6-.753 1.32-.301 2.49-.542 3.45-.783.541-.12 1.081-.24 1.561-.391 0-.843-.03-1.686-.06-2.529a366.55 366.55 0 0 1-6.572 1.596c-.57-.03-.9-.301-.99-.843v-.331c0-.241.15-.452.39-.603 1.14-.481 2.821-1.023 5.042-1.595-1.02-.843-1.74-1.596-2.101-2.288-.06-.06-.06-.12-.06-.18 0-.181.09-.392.21-.603.12-.15.33-.301.6-.452.12-.03.27-.06.45-.06.33.03.6.241.84.632.48.542.96 1.144 1.471 1.747.24.3.45.511.6.662zM4.921 73.368c-.24.18-.51.3-.78.3-.42-.06-.6-.3-.6-.752 0-.12.12-.331.36-.602a18.879 18.879 0 0 0 2.85-1.927 16.96 16.96 0 0 0 2.762-2.89 9.933 9.933 0 0 0 1.38-2.438c-1.86.36-3.631.662-5.311.933-.84.12-1.44.21-1.8.24-.481.06-.871.091-1.171.091-.57 0-.9-.421-.99-1.234 0-.362.27-.693.87-.994.33-.12.75-.24 1.29-.391a172.83 172.83 0 0 0 7.652-1.114c0-.301.03-.572.03-.873 0-.482-.03-1.024-.09-1.656 0-.723.36-1.174 1.14-1.355.66 0 1.05.422 1.2 1.204-.03.422-.03.813-.03 1.175 0 .421-.03.782-.06 1.144 4.622-.753 8.223-1.415 10.774-2.017.27 0 .45.12.57.33.03.06.06.181.06.302 0 .3-.15.572-.39.843-1.26.722-4.381 1.565-9.303 2.529.48.542.99 1.083 1.53 1.625.63.753 1.321 1.476 2.041 2.168 1.8 1.746 3.541 3.01 5.252 3.853.33.12.66.271.96.452.48.21.72.452.72.753-.06.27-.27.451-.63.512-.24 0-.54.03-.9.03-.45-.06-.93-.181-1.47-.362-.96-.36-1.951-.903-3.031-1.686-1.14-.812-2.341-1.866-3.571-3.13a45.683 45.683 0 0 1-3.061-3.403.63.63 0 0 1-.12-.18 12.12 12.12 0 0 1-1.56 3.191 13.722 13.722 0 0 1-3.632 3.583c-.9.662-1.86 1.264-2.94 1.746zM37.47 51.722c0 .3-.06.662-.12 1.084a7.332 7.332 0 0 1-.81 1.866c.21.09.36.21.48.331.03.12.06.241.06.362-.03.24-.15.481-.33.692-.6.542-1.35 1.054-2.31 1.535-1.111.602-2.161 1.054-3.182 1.325-.18.09-.33.12-.42.12-.27 0-.48-.12-.66-.39-.18-.242-.24-.573-.24-.994 0-.301.18-.542.54-.723.24-.06.48-.15.69-.24-.09-.693-.24-1.506-.42-2.41-.48-1.655-.87-3.04-1.17-4.154.03-.24.12-.451.3-.632.18-.24.39-.361.66-.361.24 0 .45.03.57.03.3.12.54.361.69.692.03.12.06.21.09.301.48-.06 1.11-.12 1.891-.15.96.03 1.8.18 2.46.451.811.362 1.231.783 1.231 1.265zm-4.531 4.425c.3-.09.57-.21.84-.33 0-.242.12-.422.33-.543.3-.361.57-.873.87-1.595.24-.603.36-.994.36-1.175-.3-.3-.78-.451-1.47-.451-.48 0-1.02.03-1.56.06.03.301.09.632.15.933.24 1.385.42 2.409.48 3.101zm14.644 2.71c.51.783 1.11 1.595 1.8 2.378.63.753 1.32 1.505 2.071 2.228.54.602 1.05 1.174 1.59 1.746.24.271.51.391.78.391.36-.06.54-.3.57-.662 0-.3-.09-.632-.24-1.023a9.092 9.092 0 0 0-1.08-1.566c-.6-.662-1.02-1.114-1.2-1.385a18.607 18.607 0 0 1-1.89-2.288c-.54-.692-1.08-1.565-1.62-2.619-.3-.542-.6-.963-.841-1.264v-.753c.6-.241 1.26-.482 1.92-.783 1.501-.602 2.641-1.174 3.422-1.776.3-.301.45-.632.45-.964-.03-.18-.18-.36-.45-.541-.18-.12-.36-.181-.6-.181-.39 0-1.051.24-1.951.722-.9.422-1.83.843-2.821 1.205-.03-1.415-.06-2.77-.06-4.034.87-.332 1.56-.663 2.1-1.024.24-.15.45-.391.6-.692.03-.181.06-.332.06-.512-.12-.301-.51-.452-1.17-.452-.6.18-1.14.331-1.62.452-.03-.301-.03-.602-.03-.934-.06-.933-.48-1.415-1.26-1.415-.51.06-.81.362-.93.964v.421c0 .512 0 1.024.03 1.536-1.351.33-2.251.481-2.671.481-.6.12-.9.482-.9 1.084 0 .813.3 1.204.93 1.204.84-.09 1.71-.24 2.67-.481 0 1.415.03 2.83.06 4.245-1.65.602-3.42 1.204-5.311 1.806-.51.12-.93.271-1.26.391-.3.241-.45.512-.45.813 0 .572.27.994.84 1.295h.24c.48-.09.93-.21 1.38-.361a62.71 62.71 0 0 0 3.331-1.144c-1.44 3.492-3.21 6.623-5.371 9.453-.18.21-.27.421-.27.632.06.421.27.602.66.602.18 0 .36-.03.6-.12.42-.301.9-.753 1.5-1.385 1.08-1.295 2.46-3.523 4.171-6.714.03 4.275.06 8.4.09 12.374-.36 0-.69-.241-.96-.663-.42-.481-.81-.722-1.17-.722 0 2.258.78 3.432 2.37 3.522 1.32-.06 1.981-.813 2.041-2.258-.06-4.094-.12-7.857-.15-11.23zm29.877 4.666c0-.813-.45-1.234-1.32-1.234-.15 0-.93.722-2.341 2.107-1.44 1.445-2.46 2.168-3.12 2.168-1.171 0-1.741-2.138-1.741-6.413 0-2.83.3-5.54.9-8.128.24-.994.36-1.566.36-1.746 0-.301-.15-.572-.42-.813-.24-.241-.57-.392-.96-.392-.78 0-1.35.783-1.74 2.349a4.345 4.345 0 0 0-.481 1.926c0 .422.15.753.51 1.024-.39 2.529-.57 4.576-.57 6.142 0 2.408.27 4.335.84 5.78.72 1.866 1.8 2.8 3.301 2.8 1.68 0 3.841-1.536 6.422-4.606.24-.241.36-.572.36-.964zm34.288-2.499c0-3.07-.81-5.6-2.4-7.556-.36-.422-.75-.632-1.17-.632-.36 0-.72.15-1.021.391-.3.301-.42.602-.42.963 0 .663.33 1.355 1.05 2.078.93 1.023 1.41 2.408 1.41 4.154 0 .783-.12 1.716-.36 2.86-.15.663-.21 1.084-.21 1.325 0 .933.45 1.385 1.38 1.385 1.141 0 1.741-1.656 1.741-4.968zm-14.764 3.824c0-.903-.39-1.355-1.17-1.355-.42 0-.9.301-1.38.903-.54.632-.99.934-1.35.934-.451 0-.811-.753-1.111-2.319-.24-1.354-.36-2.92-.36-4.726v-2.228c-.03-1.084-.03-1.656-.03-1.776 0-1.626-.42-2.469-1.23-2.469-.961 0-1.441.482-1.441 1.385 0 .03 0 .27.06.753.12 1.354.21 2.619.21 3.763 0 2.77.15 4.847.45 6.262.54 2.71 1.62 4.034 3.241 4.064 1.23 0 2.46-.662 3.691-2.047.27-.301.42-.693.42-1.144zm45.242-16.468c0 .572-.3.843-.84.843s-1.021-.482-1.411-1.445c-.48-.662-.72-1.174-.72-1.536 0-.18.09-.33.27-.511.18-.15.36-.241.6-.241.45 0 .9.482 1.35 1.415l.57.752c.12.241.18.482.18.723zm-2.101 1.295c0 .602-.3.873-.9.873-.18 0-.51-.211-1.02-.633-.24-.21-.6-.481-1.02-.843-.181-.06-.271-.09-.301-.09-.66 0-.99-.421-.99-1.325 0-.752.27-1.144.87-1.144.3 0 1.32.873 3.06 2.56.18.18.3.36.3.602zm-3.691 3.13c0 3.101-1.62 6.564-4.861 10.357-1.711 2.047-3.301 3.552-4.802 4.516-1.11.722-2.25 1.084-3.45 1.084-.3 0-.661-.15-1.111-.452-.42-.331-.63-.632-.63-.933 0-.964.45-1.475 1.35-1.475.06 0 .18.06.33.12.15.12.27.21.33.21.78 0 1.92-.632 3.451-1.956 1.53-1.325 3.001-3.01 4.441-5.058 1.681-2.469 2.551-4.516 2.551-6.111 0-1.144-.51-1.716-1.5-1.716-1.86 0-3.841.39-5.882 1.113-.72.783-1.53 1.175-2.37 1.175-1.14 0-1.711-.452-1.711-1.385 0-.512.24-.903.78-1.144 3.541-1.566 6.512-2.349 8.973-2.349 1.26 0 2.28.392 3 1.175.72.782 1.11 1.716 1.11 2.83zm33.118 7.437c0-.753-.39-1.144-1.17-1.144-.54 0-.9.21-1.08.632a11.15 11.15 0 0 1-2.401 2.348c-1.08.783-2.071 1.144-2.911 1.144-.72 0-1.05-.572-1.05-1.746 0-1.325.63-4.395 1.92-9.182.12-.392.18-.663.18-.783 0-.783-.42-1.174-1.2-1.174-.66 0-1.08.361-1.26 1.023a138.19 138.19 0 0 0-1.171 4.847c-.6 2.71-.9 4.546-.9 5.51 0 1.084.3 2.017.9 2.77.66.843 1.53 1.264 2.64 1.264 1.051 0 2.251-.391 3.572-1.204 1.11-.693 2.1-1.536 2.97-2.499.63-.723.96-1.325.96-1.806zm-13.474-6.052c0-.843-.06-1.565-.15-2.227-.21-.994-.66-1.506-1.35-1.506-.9 0-1.32.753-1.32 2.198 0 .421.06.963.24 1.626 0 .421.03.722.06.963a20.163 20.163 0 0 1-1.831 5.118c-.6 1.144-1.41 2.529-2.49 4.155-.331.481-.481.903-.481 1.204 0 .301.09.602.33.843.21.24.48.361.78.361.48 0 .9-.3 1.29-.933 3.272-4.937 4.922-8.881 4.922-11.802zm42.39 4.396c0-.542-.3-.964-.87-1.325a3.74 3.74 0 0 0-1.95-.542c-.24 0-.54.06-.9.12-3.001-.27-5.972-.42-8.913-.42-2.52 0-4.561.15-6.122.45-1.44.302-2.16.663-2.16 1.145 0 .421.18.783.57 1.114.36.361.81.512 1.32.512.63 0 1.17-.03 1.65-.151.57-.09.991-.24 1.231-.421 1.38-.181 2.88-.271 4.441-.271.69 0 2.761.12 6.242.3 2.91.181 4.441.302 4.621.302.54-.06.84-.331.84-.813zm27.207-7.466c0 .542-.3.812-.84.812s-1.05-.481-1.47-1.505c-.48-.632-.691-1.144-.691-1.535 0-.15.09-.331.3-.542.18-.18.36-.271.57-.271.45 0 .93.482 1.41 1.445l.54.813c.12.18.18.451.18.783zm-2.13 1.294c0 .572-.3.843-.871.843-.3 0-.69-.21-1.11-.632-.3-.24-.63-.542-.99-.873-.12-.03-.21-.06-.3-.06-.33 0-.6-.12-.78-.422a1.448 1.448 0 0 1-.331-.963c0-.723.3-1.084.96-1.084.36 0 1.41.843 3.151 2.499.18.18.27.391.27.692zm3.9 13.066c0 .24-.15.542-.45.873-.3.361-.6.512-.96.512-.78 0-1.41-.271-1.92-.843-.84-.903-1.801-2.198-2.881-3.944-1.38-2.137-2.251-3.492-2.671-4.094-1.92-2.56-3.571-3.854-5.012-3.854-1.53 0-2.94 1.144-4.26 3.402-.27.452-.66.662-1.141.662-.78 0-1.14-.451-1.14-1.354 0-.241.18-.633.54-1.174 1.98-2.71 3.9-4.095 5.821-4.095 2.401 0 4.892 1.837 7.533 5.45.75 1.083 1.74 2.588 2.94 4.515.24.452.87 1.325 1.86 2.65.24-.03.421-.06.541-.06.78 0 1.2.45 1.2 1.354zm25.316-13.156c0 2.98-.48 5.99-1.41 9.001-1.38 4.577-3.691 8.49-6.902 11.832-.48.482-.93.723-1.35.723-.78 0-1.14-.422-1.14-1.265 0-.391.12-.692.39-.933 2.04-1.927 3.78-4.305 5.19-7.135.96-1.987 1.681-3.914 2.131-5.72.39-1.837.6-3.944.6-6.353 0-.572-.12-1.114-.33-1.625-.24-.482-.33-.904-.33-1.265 0-.572.09-1.023.3-1.355.24-.421.6-.662 1.08-.662.66 0 1.05.331 1.231.933.36 1.295.54 2.56.54 3.824zm-9.873-2.318c-.06.24-.09.511-.15.813-.54 2.288-.81 4.275-.87 5.99l.09 1.988c-.06.843-.42 1.234-1.14 1.234s-1.14-.422-1.23-1.325c-.06-.542-.09-1.053-.09-1.475 0-.993.18-2.68.54-5.088a5.707 5.707 0 0 1-.09-.873c0-.903.18-1.565.57-1.927.36-.421.78-.662 1.26-.662.3 0 .54.15.78.391.21.241.33.542.33.934zm43.231 8.58c0-.542-.3-.964-.87-1.325a3.74 3.74 0 0 0-1.95-.542c-.24 0-.54.06-.9.12-3.002-.27-5.973-.42-8.913-.42-2.521 0-4.562.15-6.122.45-1.44.302-2.16.663-2.16 1.145 0 .421.18.783.57 1.114.36.361.81.512 1.32.512.63 0 1.17-.03 1.65-.151.57-.09.99-.24 1.23-.421 1.381-.181 2.881-.271 4.442-.271.69 0 2.76.12 6.242.3 2.91.181 4.44.302 4.62.302.541-.06.841-.331.841-.813zm27.537-3.553c0-.843-.33-1.294-.99-1.294-.3 0-.811.24-1.591.722a181.523 181.523 0 0 1-4.081 2.379c-.6-1.385-1.68-2.108-3.181-2.198-.09 0-.39.03-.9.09.93-1.686 1.5-2.92 1.68-3.703.06-.3.33-.512.81-.632 2.22-.572 3.751-.963 4.591-1.204.84-.241 1.26-.632 1.26-1.234 0-.693-.42-1.054-1.2-1.054l-5.161 1.234c-.27-1.445-.69-2.559-1.26-3.311-.45-.573-.9-.874-1.38-.874-.3 0-.6.12-.84.332-.241.24-.331.511-.331.812 0 .181.12.392.36.693.69.783 1.05 1.686 1.05 2.71 0 .06-.03.12-.03.24-.72.12-1.32.18-1.8.18-.24 0-.63 0-1.23-.03-.81-.24-1.29-.39-1.41-.39-.841 0-1.231.451-1.231 1.294 0 .421.21.722.66.903.87.361 1.77.512 2.73.512.45 0 1.051-.06 1.831-.18-1.17 2.95-3.06 5.418-5.671 7.466-.84.481-1.23 1.083-1.23 1.746 0 .24.12.451.36.662.24.24.51.331.84.331.63 0 1.32-.421 2.07-1.294.72-.843 1.59-1.536 2.61-2.138.961-.572 1.861-.873 2.642-.873.78 0 1.17.452 1.17 1.355-1.8 1.023-3.24 2.198-4.261 3.522-1.05 1.325-1.56 2.62-1.56 3.824 0 1.565.63 2.77 1.95 3.672 1.2.843 2.76 1.295 4.681 1.295 1.92 0 3.811-.482 5.612-1.445.69-.361 1.05-.843 1.05-1.385 0-.692-.39-1.054-1.17-1.054-.18 0-.48.12-.96.362-1.801.843-3.361 1.294-4.622 1.294-1.26 0-2.28-.24-3-.722-.75-.452-1.11-1.084-1.11-1.867 0-1.656 1.14-3.251 3.42-4.787-.09 1.024-.12 1.626-.12 1.807 0 1.625.51 2.438 1.59 2.438.36 0 .66-.09.93-.3.24-.242.39-.483.39-.784 0-.3-.18-.572-.48-.873.12-1.866.18-3.19.24-4.004 2.461-1.445 4.322-2.529 5.552-3.311.48-.301.72-.633.72-.934zm31.857-10.778c0-.12-.06-.24-.12-.33-.12-.242-.33-.362-.63-.362-2.58.572-6.242 1.234-10.923 1.957-.45.06-.9.15-1.38.21.48-1.324.72-2.287.72-2.89-.15-.541-.6-.812-1.38-.812-.661 0-1.111.36-1.351 1.023a14.487 14.487 0 0 1-.72 3.101c-1.92.301-3.901.572-5.882.783-.54.18-1.02.301-1.38.421-.6.332-.87.663-.87.994.12.843.45 1.264 1.02 1.264.36 0 .75 0 1.23-.06.36-.03.96-.12 1.8-.24.93-.121 1.891-.272 2.881-.452-.15.3-.3.572-.48.873-.96 1.355-1.5 2.348-1.59 3.01v.663c.15.722.84 1.114 2.04 1.144.81 0 1.86-.15 3.121-.452 2.64-.542 5.012-1.505 7.142-2.86.6.753 1.35 1.566 2.31 2.469.33.33.661.572.961.752.18.12.39.15.69.15.3 0 .57-.06.75-.21.18-.18.27-.421.27-.662v-.301c-.3-.422-.96-1.204-1.92-2.348-.75-.964-1.5-1.897-2.22-2.8-.27-.422-.57-.633-.9-.663-.18 0-.36.03-.541.06-.27.151-.45.302-.57.452-.15.241-.24.452-.24.662 0 .12 0 .241.06.362.09.24.21.481.39.722a40.364 40.364 0 0 1-4.981 1.716c-1.35.331-2.371.512-3.031.542-.18 0-.3-.03-.3-.15a52.008 52.008 0 0 0 1.86-3.613c.99-.18 2.04-.361 3.151-.542 5.642-.993 9.153-1.866 10.533-2.65.3-.3.48-.631.48-.933zm-14.704 14.662c-.03.15-.06.301-.06.452l-.3 2.077c-.03.12-.06.21-.06.331.66-.15 1.26-.301 1.74-.421 1.5-.392 2.851-.783 4.081-1.205.72-.27 1.14-.421 1.29-.481.12-.06.21-.12.3-.12-.03-.603-.03-1.205-.03-1.837-.06-.331-.24-.512-.51-.542-.99.09-3.15.662-6.451 1.746zm-.72 5.058c-.15.933-.3 1.866-.42 2.77.24-.06.45-.12.69-.181 1.26-.331 2.52-.693 3.78-1.084 1.561-.482 2.822-.903 3.722-1.264-.03-1.024-.03-2.048-.03-3.101-.84.481-1.8.963-2.94 1.385-1.561.602-3.032 1.053-4.412 1.354-.21.09-.33.12-.39.12zm-.69 5.088c-.12 1.083-.21 1.987-.27 2.68-.06.722-.18 1.203-.36 1.504-.3.362-.63.542-1.02.542-.481-.06-.781-.361-.901-.843-.03-.21-.03-.542-.03-1.023 0-.602.27-2.62.81-6.082.42-3.04.66-5.358.69-6.924v-1.295c0-.662.3-1.053.9-1.234h.78c.36.06.57.21.69.452 1.261-.452 3.032-.964 5.252-1.536.72-.15 1.32-.24 1.83-.24 1.321.03 2.011.782 2.132 2.227 0 .271.03 2.078.09 5.39.03 1.655.12 3.672.24 6.05.03.874.09 1.867.21 2.95 0 1.085-.36 1.657-1.05 1.687-.66 0-1.381-.18-2.191-.482-1.08-.421-1.95-1.054-2.581-1.836-.15-.241-.24-.482-.24-.693 0-.481.18-.752.6-.843.57 0 1.62.422 3.121 1.295-.09-1.506-.15-3.101-.18-4.847-.78.512-1.95 1.053-3.481 1.625-1.2.422-2.34.813-3.391 1.175-.33.09-.57.15-.69.21-.39.06-.72.09-.96.09zm42.24-18.937c0-.813-.42-1.234-1.23-1.234-.75.18-1.29.33-1.65.391-4.712 1.054-7.983 1.566-9.814 1.566-.36-.542-1.14-.813-2.34-.813-.75 0-1.47.15-2.13.421-.841.392-1.261.903-1.261 1.566 0 1.023 1.2 1.505 3.66 1.505 2.372 0 5.192-.301 8.433-.963-3.09 3.311-4.621 6.533-4.621 9.634 0 2.8 1.26 4.696 3.781 5.72 1.38.542 2.7.843 4.021.843.78 0 1.2-.422 1.2-1.265 0-.813-.42-1.234-1.26-1.294-1.62-.06-2.94-.422-3.9-1.084-1.021-.602-1.501-1.445-1.501-2.469 0-2.107.87-4.335 2.61-6.683 1.56-2.108 3.361-3.673 5.402-4.667.39-.18.6-.572.6-1.174zm29.217 0c0-.813-.42-1.234-1.23-1.234-.75.18-1.29.33-1.65.391-4.712 1.054-7.983 1.566-9.814 1.566-.36-.542-1.14-.813-2.34-.813-.75 0-1.47.15-2.13.421-.841.392-1.261.903-1.261 1.566 0 1.023 1.2 1.505 3.66 1.505 2.371 0 5.192-.301 8.433-.963-3.09 3.311-4.621 6.533-4.621 9.634 0 2.8 1.26 4.696 3.78 5.72 1.381.542 2.702.843 4.022.843.78 0 1.2-.422 1.2-1.265 0-.813-.42-1.234-1.26-1.294-1.62-.06-2.94-.422-3.901-1.084-1.02-.602-1.5-1.445-1.5-2.469 0-2.107.87-4.335 2.61-6.683 1.56-2.108 3.361-3.673 5.402-4.667.39-.18.6-.572.6-1.174zm32.278 10.898c0-3.07-.81-5.6-2.401-7.556-.36-.422-.75-.632-1.17-.632-.36 0-.72.15-1.02.391-.3.301-.42.602-.42.963 0 .663.33 1.355 1.05 2.078.93 1.023 1.41 2.408 1.41 4.154 0 .783-.12 1.716-.36 2.86-.15.663-.21 1.084-.21 1.325 0 .933.45 1.385 1.38 1.385 1.14 0 1.74-1.656 1.74-4.968zm-14.765 3.824c0-.903-.39-1.355-1.17-1.355-.42 0-.9.301-1.38.903-.54.632-.99.934-1.35.934-.45 0-.81-.753-1.11-2.319-.241-1.354-.361-2.92-.361-4.726v-2.228c-.03-1.084-.03-1.656-.03-1.776 0-1.626-.42-2.469-1.23-2.469-.96 0-1.44.482-1.44 1.385 0 .03 0 .27.06.753.12 1.354.21 2.619.21 3.763 0 2.77.15 4.847.45 6.262.54 2.71 1.62 4.034 3.24 4.064 1.23 0 2.461-.662 3.691-2.047.27-.301.42-.693.42-1.144zm41.73 1.897c0 .933-.42 1.414-1.23 1.414-.78 0-1.17-.451-1.17-1.294 0-.662-.45-1.265-1.35-1.806-.39-.211-1.11-.542-2.19-1.024-1.981 3.251-4.742 4.877-8.313 4.877-1.08 0-2.01-.27-2.731-.813-.87-.602-1.29-1.475-1.29-2.559 0-1.686.81-2.95 2.43-3.793 1.29-.662 2.911-1.024 4.832-1.024.81 0 1.95.12 3.42.332.18-1.325.27-2.71.27-4.155-1.68.15-2.85.21-3.45.21-1.05 0-2.13-.12-3.211-.39-.6-.121-.87-.603-.87-1.506 0-.21.09-.452.33-.692.24-.211.45-.332.69-.332.15 0 .33.03.51.06.84.211 1.95.302 3.331.302.78 0 1.59-.03 2.49-.15-.06-.422-.21-1.446-.48-3.132-1.74.18-2.91.241-3.51.241-.9 0-1.74-.06-2.491-.24-.54-.091-.78-.422-.78-.994 0-.783.54-1.205 1.68-1.205.03 0 .48.03 1.32.06.84.06 1.29.09 1.35.09.09 0 .721-.03 1.891-.12l-.6-1.595c-.18-.391-.24-.693-.24-.903 0-.241.12-.482.36-.723.21-.24.42-.361.66-.361.57 0 .99.21 1.23.632.18.301.481 1.174.961 2.59 2.16-.573 3.421-.874 3.751-.874.21 0 .42.12.63.301.18.241.3.452.3.632 0 .723-.27 1.114-.75 1.235-1.08.3-2.19.572-3.39.813.15.722.33 1.776.51 3.16.87-.15 1.86-.33 3-.541.24 0 .48.12.72.331.21.21.33.452.33.692 0 .904-.3 1.385-.84 1.506l-3.03.572v1.505c0 .903-.12 2.107-.33 3.613 1.38.421 2.55 1.023 3.51 1.746 1.14.993 1.74 2.107 1.74 3.312zm-8.552-3.252c-.96-.09-1.65-.15-2.04-.15-3.511 0-5.252.752-5.252 2.197 0 .542.39.813 1.2.813 2.641 0 4.652-.933 6.092-2.86zm39.54-14.722c0 .723-.3 1.144-.87 1.265-1.86.451-4.621.843-8.342 1.144l-.12 3.733c1.14 1.024 1.74 2.8 1.74 5.359 0 2.589-.84 6.081-2.46 10.507l-.63 1.896c-.36.873-.871 1.325-1.471 1.325-.81 0-1.2-.452-1.2-1.295 0-.18.42-1.354 1.26-3.462 1.44-3.673 2.19-6.683 2.19-9.062 0-.27-.03-.782-.06-1.535-.36 1.264-.72 2.138-1.05 2.62-.39.601-.9.872-1.5.872-.87 0-1.62-.391-2.281-1.234-.66-.783-.96-1.836-.96-3.1 0-1.326.42-2.35 1.32-3.042a3.636 3.636 0 0 1 2.31-.782c.06 0 .21.03.42.06l.09-2.74c-1.92.18-4.92.452-9.002.783-.81-.03-1.2-.452-1.2-1.264 0-.783.42-1.235 1.26-1.295.81-.06 3.781-.301 8.883-.723l-.15-2.468c0-1.084.39-1.626 1.17-1.626.84 0 1.26.422 1.29 1.234l.09 2.71 4.022-.391c.24-.633.87-.964 1.95-.964 2.19 0 3.301.512 3.301 1.475zm-11.673 7.346c-.6.03-1.11.241-1.5.602-.39.422-.57.843-.57 1.295 0 .451.09.843.33 1.204.21.361.45.542.75.542.21 0 .42-.391.63-1.174.24-.783.36-1.596.36-2.469zm33.928 1.295c0 1.324-.42 2.378-1.23 3.221-.84.843-1.86 1.234-3.091 1.234-.99 0-1.8-.27-2.46-.812-.721-.603-1.081-1.385-1.081-2.409 0-1.325.66-2.559 1.98-3.703.09-.662.78-.993 2.041-.993.57 0 1.23.18 2.01.481 1.2.542 1.831 1.536 1.831 2.98zm-1.95.06c0-.422-.21-.783-.57-1.114-.42-.331-.81-.512-1.201-.512-.63 0-1.17.271-1.65.783-.51.542-.75 1.144-.75 1.806 0 1.084.6 1.596 1.8 1.596.66 0 1.23-.24 1.71-.753.42-.481.66-1.084.66-1.806z"/>
</svg>
