<svg xmlns="http://www.w3.org/2000/svg" width="250" height="71" viewBox="0 0 250 71">
    <path fill="#FFF" fill-rule="evenodd" stroke="#FFF" stroke-width=".5" d="M14.246 11.338c-.612.324-1.53.648-2.754.99a135.346 135.346 0 0 1-7.074 1.764c-.36.108-.756.162-1.152.198h-.144c-.36-.18-.54-.45-.54-.81 0-.18.108-.342.324-.486.234-.09.558-.162.99-.234A88.011 88.011 0 0 0 9.8 11.356c.072-.126.162-.234.234-.342.216-.342.468-.756.72-1.242.342-.738.63-1.386.846-1.944.036-.108.054-.234.09-.342a18.22 18.22 0 0 1-1.296.432c-.054.198-.126.378-.198.558a8.948 8.948 0 0 1-1.35 2.016c-.162.18-.306.324-.414.396-.18.108-.324.144-.432.144-.126 0-.198-.09-.216-.27 0-.144.036-.252.144-.36.072-.108.162-.27.288-.504.144-.216.27-.486.414-.81.108-.252.198-.468.27-.666-.504.18-.99.324-1.458.468.036.9.054 1.548.054 1.908 0 .432-.18.648-.504.666-.288 0-.432-.144-.45-.432a48.11 48.11 0 0 0-.108-1.836 32.25 32.25 0 0 1-1.476.432c.144.666.324 1.224.504 1.674.108.234.162.396.162.486 0 .324-.216.468-.63.468-.18 0-.378-.198-.594-.63-.18-.486-.36-1.044-.522-1.692l-1.08.324a9.534 9.534 0 0 1-1.494.324H1.16c-.36-.18-.522-.432-.522-.792 0-.18.108-.342.306-.486.324-.144.756-.27 1.296-.378.45-.108.9-.234 1.35-.36-.18-.918-.252-1.692-.252-2.322 0-.522.18-.792.576-.81.396 0 .594.18.594.522.072.792.144 1.548.216 2.286.54-.144 1.044-.288 1.548-.432-.072-.684-.144-1.26-.18-1.764a.636.636 0 0 1 .18-.342c.108-.144.234-.216.378-.216.126 0 .234.018.324.036a.703.703 0 0 1 .36.36c.018.288.036.81.072 1.566.648-.198 1.26-.396 1.854-.594v-.144c0-.324-.108-.648-.306-1.008a.59.59 0 0 1-.162-.396c0-.288.18-.45.558-.486.288 0 .486.09.594.234.36.396.576.846.63 1.35.45-.162.882-.324 1.296-.486a3.55 3.55 0 0 0-.288-1.206 1.114 1.114 0 0 1-.126-.522c0-.288.18-.45.54-.486.288 0 .468.09.576.252.324.414.522.9.612 1.458l.036-.018c.99-.432 1.674-.648 2.07-.648a.82.82 0 0 1 .36.09c.144.108.234.216.252.324 0 .216-.09.396-.27.576-.612.414-1.44.828-2.484 1.224a6.843 6.843 0 0 1-.576 1.71c-.396.864-.864 1.62-1.368 2.268.36-.108.72-.216 1.062-.324.756-.252 1.296-.378 1.602-.378a.77.77 0 0 1 .396.108c.18.108.27.216.288.324 0 .252-.108.468-.306.666zm-2.43-9.216a.58.58 0 0 1-.144.378 17.33 17.33 0 0 1-2.934 1.548c-1.098.432-2.07.63-2.916.63-.378 0-.666-.162-.882-.504a1.57 1.57 0 0 1-.162-.72c.18-.756.288-1.476.324-2.124.072-.252.252-.396.54-.414h.27c.36.018.54.324.54.9 0 .342-.144.828-.396 1.476.09.036.216.036.396.036.45 0 1.278-.216 2.466-.684.63-.234 1.368-.558 2.196-.954l.18-.072c.072 0 .162-.018.252-.018.18.036.27.198.27.522zm1.8 11.808c.072 0 .144.018.234.018.108.036.18.072.252.126.432.324 1.098 1.152 1.962 2.448.216.342.342.648.378.9 0 .36-.162.54-.45.54-.144 0-.306-.09-.486-.27-.18-.216-.432-.504-.738-.864-.504-.666-1.062-1.26-1.638-1.836a.487.487 0 0 1-.09-.288v-.162c.018-.162.108-.306.252-.45a.685.685 0 0 1 .324-.162zm-10.8 1.278c-.126-.36-.288-.558-.504-.558a2.176 2.176 0 0 0-.324.09.921.921 0 0 0-.378.756c0 .504.09.99.27 1.494.468 1.152.882 1.944 1.242 2.376.144.144.288.234.468.234.288 0 .45-.198.486-.576 0-.18-.036-.342-.108-.486-.612-1.404-.99-2.502-1.152-3.33zm6.858-.954c.072 0 .144.018.216.018a.866.866 0 0 1 .288.144c.396.342 1.008 1.242 1.836 2.7.198.342.324.666.36.954 0 .36-.162.558-.468.558-.144 0-.288-.108-.468-.288a21.925 21.925 0 0 1-.72-.99 17.653 17.653 0 0 0-1.53-2.034.423.423 0 0 1-.09-.288v-.162a.741.741 0 0 1 .234-.432c.072-.09.198-.144.342-.18zm-4.158.54a.85.85 0 0 0-.36.18.734.734 0 0 0-.234.45v.162c0 .09.018.18.09.288a20.54 20.54 0 0 1 1.584 2.178c.288.468.522.81.702 1.062.18.18.342.288.504.288.288 0 .432-.198.432-.558-.036-.324-.162-.648-.36-1.008-.828-1.566-1.458-2.52-1.872-2.88a1.076 1.076 0 0 0-.288-.144c-.072 0-.144-.018-.198-.018zM32.238 13.3c-.378.288-.936.558-1.692.846-1.08.414-2.196.792-3.33 1.152.018.09.036.162.036.198 0 .144-.018.396-.036.72-.072.594-.09 1.224-.09 1.872 0 .27.09.414.234.414.108 0 .378-.126.774-.36.216-.144.486-.342.81-.558.18-.144.36-.288.504-.414a10.887 10.887 0 0 0-.756-.594.595.595 0 0 1-.198-.432c0-.144.036-.252.108-.342.09-.18.252-.27.468-.306.18 0 .342.072.486.18.108.054.216.126.306.198.162.144.342.27.522.378.252-.234.504-.486.756-.792.18-.234.378-.486.594-.774a.358.358 0 0 1 .324-.198c.144 0 .288.054.396.126.216.144.324.306.342.504 0 .072-.036.18-.108.288-.198.306-.504.63-.918 1.026-.18.144-.36.306-.558.45.054.036.09.054.126.09 1.044.72 2.016 1.17 2.916 1.368.54.108 1.026.18 1.458.198.18 0 .288.054.324.162a.578.578 0 0 1-.18.396c-.324.216-.846.324-1.584.324-.36 0-.738-.054-1.152-.144a7.352 7.352 0 0 1-1.314-.522 10.838 10.838 0 0 1-1.26-.774c-.144-.108-.288-.198-.432-.306 0 0-.018.018-.018.036-.18.162-.378.36-.594.612-.612.504-1.116.882-1.53 1.098a2.29 2.29 0 0 1-.99.234c-.486 0-.81-.198-.99-.594a1.491 1.491 0 0 1-.108-.612c0-.252.018-.468.09-.666 0-.27.018-.504.018-.72 0-.288-.018-.594-.018-.918-.036-.162-.072-.306-.072-.45a1.162 1.162 0 0 1-.342.072h-.144c-.324-.162-.486-.414-.486-.738 0-.162.09-.306.27-.414.162-.072.378-.126.63-.18 2.016-.504 3.726-1.062 5.148-1.638.468-.198.792-.306.972-.306.09 0 .198.036.306.072.108.09.18.18.198.27a.664.664 0 0 1-.216.468zm-1.116-1.746c-.81.288-1.98.666-3.51 1.152-.756.252-1.188.36-1.278.36h-.126c-.09-.018-.18-.09-.252-.198-.072-.072-.09-.18-.09-.288 0-.162.072-.306.252-.432.684-.324 1.98-.738 3.906-1.224.396-.09.72-.144.99-.144a.495.495 0 0 1 .27.144.692.692 0 0 1 .108.306c0 .126-.09.234-.27.324zm.288-4.752c-.036.162-.09.288-.198.378-.864.378-2.304.774-4.32 1.17-.72.144-1.404.216-2.016.234-.054 0-.09 0-.126-.018-.108.432-.306.63-.63.63-.36 0-.522-.162-.522-.522-.018-.18-.036-.45-.054-.774-.018-.576-.018-1.044-.018-1.404 0-.522-.108-1.206-.288-2.07a75.98 75.98 0 0 0-.216-.936c-.09-.27-.126-.468-.126-.576 0-.216.108-.414.324-.558.144-.072.306-.126.486-.126.198 0 .36.09.486.27.216-.072.468-.126.756-.198a3.36 3.36 0 0 1 .45-.072l-.018-.036c-.162-.27-.234-.486-.234-.63 0-.252.108-.45.324-.594a.87.87 0 0 1 .378-.108c.198 0 .378.09.54.252.072.252.162.576.252.954a21.779 21.779 0 0 1 1.566-.072h.306c-.036-.126-.054-.252-.072-.36a.998.998 0 0 1-.054-.306c0-.126.072-.252.216-.396a2.48 2.48 0 0 1 .288-.108h.198c.108.018.198.054.306.09.234.162.36.36.36.594 0 .198-.018.378-.018.54.648.054 1.152.144 1.548.288 1.008.324 1.53.9 1.53 1.728-.072.702-.324 1.368-.756 2.016a3.609 3.609 0 0 1-.648.72zm-6.894-3.294c.054.324.108.684.144 1.044 0 .198.018.378.036.54.45 0 .9-.036 1.35-.072v-.036c0-.36-.072-.828-.198-1.386a2.093 2.093 0 0 1-.072-.324c-.144.036-.288.054-.396.072-.36.072-.648.126-.864.162zm1.53 2.43a2.007 2.007 0 0 1-.414.054 7.964 7.964 0 0 1-.882.054v1.44c.414-.036.864-.072 1.332-.126-.018-.522-.036-.99-.036-1.422zm.792-2.808c.018.252.054.486.09.738.036.342.054.702.09 1.062.504-.072.99-.144 1.494-.252.036-.54.072-1.044.072-1.512v-.162h-.306c-.396 0-.846.054-1.368.126h-.072zm1.566 2.376c-.072.018-.126.036-.18.036-.396.108-.792.18-1.17.234 0 .414.018.828.018 1.224a.42.42 0 0 1-.036.198c.414-.054.81-.126 1.188-.234.018-.18.054-.414.09-.702.036-.252.054-.504.09-.756zm1.314-2.43c-.018.432-.054.9-.108 1.368.144-.036.288-.072.414-.108.18-.036.324-.054.432-.09.072 0 .162.036.27.072.126.072.198.144.198.216 0 .072-.036.144-.108.234a.588.588 0 0 1-.27.198c-.324.108-.666.198-1.026.288a19.58 19.58 0 0 1-.324 1.476c.558-.144 1.08-.324 1.548-.504.54-.918.81-1.602.81-2.052-.108-.576-.72-.954-1.836-1.098zm-6.282 8.586c-.144.036-.252.036-.342.036-.324-.018-.504-.234-.54-.666 0-.198.144-.378.468-.522.18-.072.414-.144.702-.234a82.417 82.417 0 0 0 4.014-.9c1.872-.45 3.33-.846 4.356-1.206.144 0 .234.054.288.144.018.036.036.09.036.126 0 .144-.072.27-.198.414-.558.468-1.962 1.044-4.212 1.692a50.86 50.86 0 0 1-3.132.81c.036.216.054.45.072.72a8.13 8.13 0 0 1-.198 1.854 37.644 37.644 0 0 1-.432 1.458 16.687 16.687 0 0 1-1.152 2.43c-.342.54-.612.918-.828 1.134-.144.126-.288.198-.414.198a.691.691 0 0 1-.396-.126.494.494 0 0 1-.126-.324c0-.108.09-.288.27-.522a12.46 12.46 0 0 0 1.422-2.754c.144-.396.288-.828.396-1.26.054-.324.09-.684.09-1.08a6.18 6.18 0 0 0-.144-1.422zm27.388 3.546c.072 0 .126.018.198.018.108.036.216.072.306.144.612.252 1.566.9 2.844 1.998.324.27.504.504.54.72 0 .36-.144.558-.432.558-.162 0-.324-.108-.486-.288a16.437 16.437 0 0 1-1.098-.666 20.66 20.66 0 0 0-2.394-1.368.58.58 0 0 1-.108-.324v-.162a.602.602 0 0 1 .27-.45.757.757 0 0 1 .36-.18zm3.708-2.592c0 .144-.09.306-.234.45-.774.486-2.718 1.044-5.85 1.674.018.432.036.828.054 1.224 0 .324.018.612.018.9 0 .648-.036 1.08-.072 1.314a1.78 1.78 0 0 1-.81 1.026 2.408 2.408 0 0 1-1.044.234c-.864 0-1.764-.306-2.664-.882-.198-.144-.36-.252-.504-.36a3.505 3.505 0 0 1-.324.684c-.108.288-.306.45-.594.45-.324-.036-.504-.216-.522-.558 0-.126.036-.252.108-.36.072-.18.126-.432.162-.738v-.45c0-.162-.036-.342-.072-.522.018-.396.216-.594.612-.594h.126c.324 0 .54.198.612.594.036.144.072.288.072.468a6.6 6.6 0 0 0 1.512.756c.522.162.972.252 1.368.252.486 0 .738-.324.738-.936v-.648a29.738 29.738 0 0 0-.072-1.602c-1.584.324-3.06.594-4.464.846-.504.072-.882.126-1.098.144a4.709 4.709 0 0 1-.666.054c-.324-.018-.522-.234-.558-.684 0-.216.162-.414.486-.594.18-.036.432-.108.738-.216 1.854-.252 3.654-.522 5.4-.828-.018-.162-.036-.324-.054-.468-.036-.144-.072-.288-.072-.414s.036-.252.126-.396c.144-.126.288-.198.432-.198.36 0 .594.18.702.522.072.162.126.396.18.72 2.484-.432 4.428-.846 5.868-1.206a.358.358 0 0 1 .36.342zM48.664 9.07c-.486.108-1.17.27-2.052.486-.324.072-.522.126-.63.126-.018.468-.036.864-.054 1.188.9 0 1.62-.09 2.16-.234.126.09.198.18.234.252.072.018.126.036.18.036.144.054.288.108.414.162-.072-.432-.108-1.026-.108-1.746v-.378c-.072.054-.108.09-.144.108zm-2.88 2.898v.036c-.108.324-.306.504-.594.522-.378-.018-.576-.342-.576-.954.18-.954.288-2.142.306-3.546 0-.576-.036-1.224-.072-1.962-.144.054-.252.09-.36.09-.36 0-.522-.216-.522-.684 0-.324.162-.522.504-.558.342 0 1.368-.324 3.078-.99.324 0 .522.09.576.252 0 .072-.018.162-.018.252a.708.708 0 0 1-.324.36c-.252.216-.612.45-1.044.666a8.877 8.877 0 0 1-.684.27c.018.072.036.162.036.234-.018.162-.018.306-.018.45.198-.072.414-.144.63-.198a5.719 5.719 0 0 1 1.458-.216c.396 0 .72.072.936.198.306.198.54.612.702 1.224.108.324.162.72.162 1.188-.018.522-.018 1.044-.018 1.548s.018.99.054 1.422c-.018.468-.252.684-.702.684-.108 0-.252-.036-.45-.126a1.596 1.596 0 0 1-.774-.54.194.194 0 0 1-.126.054 74.27 74.27 0 0 1-2.16.324zm.252-4.518c-.018.396-.036.774-.036 1.134a37.053 37.053 0 0 1 1.926-.378c.252-.018.432-.036.576-.036a.473.473 0 0 1 .27.126c-.036-.234-.054-.432-.09-.594-.108-.504-.27-.756-.468-.756-.342 0-.684.054-1.008.162-.468.108-.864.216-1.17.342zm-2.916.396c.216-.018.324-.162.36-.45 0-.288-.108-.486-.306-.612-1.044-.54-1.692-.81-1.944-.828-.27 0-.45.126-.54.342a.946.946 0 0 0-.108.414c0 .162.27.396.81.684.504.306 1.08.45 1.728.45zm.846 1.692c0 .198-.09.45-.27.774-.396.576-.828 1.08-1.332 1.494-.306.27-.576.432-.81.504-.18.036-.324.054-.468.054-.324 0-.54-.198-.612-.594 0-.18.036-.306.108-.396.054-.072.18-.18.396-.306.252-.144.468-.27.612-.378.396-.234.882-.612 1.44-1.116.234-.252.414-.378.558-.414.216.018.342.144.378.378zm10.08 1.116c.216-.036.324-.18.324-.414 0-.252-.144-.486-.414-.684-.234-.18-.486-.36-.774-.576-.486-.36-.9-.702-1.224-1.062l-.036-.036a.439.439 0 0 0 .144-.162c.54-.63.918-1.152 1.17-1.566.108-.18.18-.342.198-.45-.036-.45-.27-.684-.738-.684-.198 0-.396.126-.594.36-.144.288-.324.63-.54 1.044-.27.414-.468.738-.576.972a.522.522 0 0 0-.108.288c-.108.108-.162.252-.162.45 0 .126.036.27.108.432a.304.304 0 0 0 .126.18c.45.486 1.008.918 1.674 1.314.27.18.522.342.756.45.252.108.432.144.558.144h.108zm-9.054-6.48c-.036.252-.216.378-.54.378-.198 0-.342-.09-.414-.27a.383.383 0 0 1-.126-.27c-.018-.126-.036-.252-.036-.396-.828.072-1.62.126-2.394.162-.342 0-.504-.216-.504-.648 0-.324.162-.504.486-.558.432 0 1.134-.036 2.106-.108l-.018-.054c-.09-.09-.162-.18-.234-.288a.616.616 0 0 1-.072-.324c0-.144.072-.288.216-.396.144-.09.324-.144.54-.144.144.018.288.09.414.234.144.108.252.252.342.414.09.144.144.288.18.432a143.24 143.24 0 0 0 4.14-.396c-.036-.036-.054-.054-.054-.09-.072-.108-.108-.18-.108-.252 0-.27.072-.486.234-.63.09-.072.234-.108.414-.126.18 0 .342.054.45.126.108.126.198.288.306.486.054.108.108.234.144.36.648-.072 1.314-.144 2.034-.216.288 0 .468.072.522.216 0 .072-.018.162-.018.234a.726.726 0 0 1-.288.324c-.594.162-1.332.324-2.214.468a2.797 2.797 0 0 1-.09.414c-.072.198-.144.396-.234.576a1.684 1.684 0 0 1-.144.27c-.108.144-.288.216-.54.216-.252-.018-.36-.144-.36-.36 0-.072 0-.144.018-.252.036-.18.054-.36.054-.558V3.04c-.036.018-.072.018-.09.018-1.404.198-2.772.36-4.068.468 0 .324-.018.54-.054.648zm26.272 10.62c0-.504-.252-.774-.738-.774-.144 0-.306.09-.504.234-.9.666-1.908.99-3.06.99-1.692 0-2.52-.432-2.52-1.332 0-.738.288-1.332.864-1.782.396-.306 1.098-.756 2.088-1.35.936-.558 1.62-1.026 2.088-1.404.882-.738 1.332-1.332 1.332-1.764 0-.576-.252-.864-.72-.864-.306 0-.576.252-.828.738-.144.306-.522.666-1.134 1.098a10.18 10.18 0 0 1-1.458.81c-.36-1.89-1.098-3.42-2.214-4.59-.558-.558-1.044-.846-1.44-.846-.522 0-.774.27-.774.792 0 .684.468 1.152 1.422 1.422.216.144.468.486.774 1.026.468.882.774 1.89.882 3.006-1.548 1.098-2.322 2.322-2.322 3.654 0 1.008.432 1.782 1.296 2.286.684.396 1.548.612 2.592.612 1.224 0 2.322-.27 3.258-.774.738-.396 1.116-.792 1.116-1.188zm13.33-8.604c-.234.414-.918.846-2.052 1.278v.72l-.054 2.124c.288-.162.594-.342.9-.522.18-.108.324-.162.432-.162.252 0 .414.126.504.342 0 .108.018.216.018.306a.48.48 0 0 1-.126.252c-.216.18-.594.486-1.17.9-.144.108-.324.252-.576.432-.036.774-.054 1.422-.072 1.944-.072 1.62-.234 2.826-.486 3.636-.108.45-.342.684-.702.684-.288 0-.432-.216-.432-.648.144-.918.252-1.944.306-3.096l.018-1.548c-.396.288-.828.612-1.296.936-.162.162-.324.234-.504.234s-.36-.072-.54-.252c-.144-.108-.216-.306-.216-.576 0-.072.09-.216.27-.432.504-.396 1.278-.936 2.322-1.602l.036-2.016c0-.414 0-.828.018-1.26a.14.14 0 0 1-.054.018c-.504.126-.99.18-1.458.18-.45 0-.792-.126-1.026-.414-.18-.18-.252-.414-.252-.72s.036-.594.144-.882c.108-.306.216-.558.36-.738.144-.18.306-.27.522-.27.144 0 .288.072.432.198.09.108.144.216.144.288 0 .162-.018.324-.054.468a2.972 2.972 0 0 0-.144.612c0 .072.018.126.072.126h.216c.36 0 .72-.054 1.116-.162 0-.774.036-1.584.072-2.43 0-.504.234-.756.738-.756.432.018.648.306.648.846-.036.684-.072 1.296-.072 1.836.36-.162.72-.36 1.116-.594.108-.054.198-.09.252-.126h.18c.198.036.36.108.468.252a.563.563 0 0 1 .09.18v.126a.687.687 0 0 1-.108.288zm7.272 1.026c-.504.288-1.062.558-1.71.81-.63.27-1.278.486-1.962.648a3.42 3.42 0 0 1-.81.126h-.252c-.342-.054-.504-.252-.504-.594v-.27c.054-.216.234-.414.558-.576.108.018.252.018.396.018.288 0 .594-.036.9-.108.018-.036.036-.09.072-.162.108-.324.216-.684.306-1.08.054-.288.09-.558.09-.81s-.018-.468-.036-.684c-.522.18-1.044.324-1.566.432-.36.072-.72.108-1.062.108h-.306c-.324-.036-.468-.216-.468-.522v-.27c.054-.18.234-.36.522-.522.108.018.234.018.396.018.684 0 1.44-.126 2.25-.414h.018c-.072-.198-.126-.378-.198-.54-.18-.306-.27-.54-.27-.702 0-.27.072-.468.234-.594.09-.09.234-.144.414-.162.18 0 .324.054.432.162a2.1 2.1 0 0 1 .342.468 6.7 6.7 0 0 1 .36.9c.468-.18.972-.396 1.476-.648.144-.09.27-.162.378-.216.162 0 .324.054.504.126.216.144.342.27.342.378a.583.583 0 0 1-.162.378c-.108.144-.27.27-.45.36-.576.306-1.188.576-1.872.81.018.288.036.558.036.846 0 .396-.072.864-.216 1.368l-.162.54c.468-.18.972-.414 1.512-.684.09-.072.18-.144.252-.18.144 0 .324.054.522.144.198.126.306.252.306.378 0 .108-.054.234-.144.378a.939.939 0 0 1-.468.342zm2.952 2.7c-.018.18-.09.342-.234.522-.594.324-1.278.63-2.052.918 0 .432 0 .828.018 1.206 0 .846.018 1.692.036 2.556.036.918.054 1.764.09 2.556 0 .558-.108.936-.324 1.152-.18.18-.414.288-.738.288-.774 0-1.458-.396-2.07-1.188a1.368 1.368 0 0 1-.27-.81c.018-.324.198-.486.54-.486.162.018.324.126.468.324.486.576.882.882 1.188.882-.036-.828-.09-1.782-.162-2.862-.036-.846-.054-1.782-.09-2.79 0-.108-.018-.234-.018-.342-.18.072-.342.144-.504.18-.846.288-1.674.54-2.466.738.108.36.198.666.306.918.036.162.072.27.072.342-.036.342-.18.522-.468.54-.252 0-.45-.126-.612-.378-.252-.252-.45-.63-.612-1.098-.504.126-.99.216-1.458.288a.568.568 0 0 1-.288.09c-.162 0-.306-.09-.414-.27-.108-.144-.144-.36-.144-.648 0-.198.126-.36.36-.468.576-.144 1.116-.252 1.584-.36a.914.914 0 0 1-.054-.306c-.018-.108-.018-.234-.018-.378.018-.414.27-.63.738-.666.252 0 .432.162.54.468.036.162.072.342.144.558a100.83 100.83 0 0 0 3.258-.882c-.018-.09-.018-.162-.018-.234-.036-.486-.036-.972-.036-1.476 0-.396.234-.612.702-.63.45 0 .684.216.684.63 0 .504.018.918.036 1.278.018 0 .036-.018.054-.018a26.247 26.247 0 0 1 1.512-.576.722.722 0 0 1 .27-.054c.18.018.306.09.414.234.018.09.036.18.036.252zm16.444-8.028c0 .18-.09.342-.252.522-.63.594-2.268 1.278-4.932 2.07-.396.126-.774.234-1.134.324-.432 1.008-1.026 2.196-1.764 3.582-.576 1.062-1.134 2.034-1.638 2.916a41.408 41.408 0 0 1-1.044 1.764c-.378.576-.684.972-.936 1.224-.18.144-.36.216-.54.216-.162-.072-.234-.18-.234-.342 0-.108.036-.27.108-.45.072-.324.234-.666.468-1.026.252-.612.666-1.35 1.206-2.25.72-1.26 1.44-2.592 2.16-3.996.198-.378.378-.774.558-1.17-.486.144-.936.27-1.368.378-.396.09-.684.144-.846.144-.27.054-.504.072-.72.072-.324-.018-.522-.27-.594-.756 0-.198.162-.396.522-.576.216-.072.468-.144.792-.252.99-.198 1.962-.432 2.898-.684.288-.792.504-1.512.684-2.178.108-.252.288-.378.54-.396h.216c.288.072.432.306.432.684 0 .306-.108.81-.324 1.494.072-.018.162-.036.234-.072 2.196-.576 3.906-1.116 5.112-1.584.162 0 .288.054.36.162a.533.533 0 0 1 .036.18zm-5.598 9.9a54 54 0 0 0-.27 2.682c.252-.108.468-.216.666-.306.576-.27 1.08-.558 1.548-.864.252-.18.414-.288.486-.324a.707.707 0 0 1 .252-.054c.18.018.306.072.378.18.018.09.036.18.036.252-.018.18-.09.342-.198.504a7.612 7.612 0 0 1-1.278.954c-.612.396-1.17.684-1.71.864a.542.542 0 0 1-.252.072c-.036 0-.072 0-.072-.018a37.929 37.929 0 0 0-.144 1.98c-.036.378-.09.648-.162.792-.162.18-.342.288-.54.288-.252-.036-.414-.18-.486-.45-.018-.108-.018-.288-.018-.54 0-.468.162-2.034.486-4.734.252-2.376.396-4.176.414-5.382V6.676c0-.324.144-.54.45-.648h.414a.529.529 0 0 1 .306.126 8.69 8.69 0 0 1 1.584-.504c.63-.144 1.044-.216 1.242-.216 1.044 0 1.602.45 1.71 1.35a128.461 128.461 0 0 0-.054 3.978c0 1.494.09 3.258.27 5.31.072.828.18 1.728.288 2.682 0 .558-.216.846-.648.864-.324 0-.684-.108-1.098-.288-.666-.306-1.17-.738-1.494-1.278a.934.934 0 0 1-.126-.396c0-.216.108-.36.36-.432.288 0 .846.252 1.638.756-.27-2.16-.414-4.572-.432-7.2v-.396c-.072.036-.144.09-.216.126-.738.36-1.404.648-2.016.9-.666.252-1.098.378-1.314.378zm3.564-2.484c0-.756.018-1.512.054-2.286-.036-.252-.198-.378-.486-.396-.648 0-1.53.252-2.646.738-.036.216-.054.45-.072.666l-.18 1.674c-.036.324-.072.63-.108.936.072-.036.18-.072.288-.108 1.8-.81 2.844-1.224 3.114-1.224h.036zm21.124.036c0 1.296-.486 2.682-1.458 4.158-.972 1.494-2.052 2.484-3.222 2.952-.18.072-.306.108-.414.108-.468 0-.702-.288-.702-.846 0-.288.252-.63.756-1.026.18-.144.396-.216.648-.216a9.942 9.942 0 0 0 1.998-2.268c.648-1.008.972-1.962.972-2.862 0-.936-.684-1.494-2.034-1.692-.576 1.728-1.458 3.366-2.61 4.914-.756 1.008-1.548 1.494-2.34 1.494-.612 0-1.098-.288-1.494-.864a3.031 3.031 0 0 1-.558-1.782c0-1.224.882-2.448 2.682-3.69 1.548-1.062 2.916-1.602 4.068-1.602 1.044 0 1.908.27 2.592.774.738.576 1.116 1.404 1.116 2.448zm-5.13-1.368a9.63 9.63 0 0 0-2.358 1.386c-1.008.792-1.512 1.512-1.512 2.178 0 .216.072.432.216.684.144.234.288.342.414.342.504 0 1.314-.918 2.412-2.772.27-.468.54-1.08.828-1.818zm16.138-4.14a1.24 1.24 0 0 1 .144-.054c1.26-.342 3.114-.774 5.598-1.278 1.152-.27 1.98-.414 2.466-.414.144 0 .27.018.378.036.252.144.396.342.396.612 0 .45-.576 1.062-1.692 1.854-.108.108-.234.18-.378.252-.162.108-.288.144-.378.144-.108 0-.18-.036-.252-.144a.298.298 0 0 1-.09-.234c0-.108.054-.216.198-.324.288-.252.558-.54.774-.828-.864.126-3.078.666-6.606 1.62-.144.054-.27.09-.378.108 0 .306-.054.63-.126.972-.108.288-.216.558-.324.81a1.755 1.755 0 0 1-.216.378c-.126.162-.324.252-.576.252-.288-.036-.414-.18-.414-.432 0-.09.036-.216.09-.396.072-.234.126-.504.198-.81.036-.198.054-.414.054-.63 0-.486-.072-.864-.216-1.152-.09-.144-.126-.252-.126-.342 0-.252.072-.45.234-.594.09-.09.234-.144.414-.162.18 0 .324.054.432.162.108.108.216.252.324.468.036.036.054.09.072.126zm2.106-1.602c-.288-.09-.432-.342-.432-.738 0-.09.054-.216.198-.36.216-.216.486-.324.81-.36 0 .108.162.18.486.198.324.09.936.198 1.836.342.144.036.216.126.216.306 0 .216-.108.414-.324.558a.976.976 0 0 1-.558.18c-.702 0-1.44-.036-2.232-.126zm5.436 4.086c-.378.198-.936.396-1.674.594-.018.468-.072.972-.162 1.512.036 0 .072-.018.108-.036.432-.108.72-.18.9-.18.108 0 .216.018.324.054.108.09.162.18.18.288 0 .162-.072.306-.198.45-.36.18-.9.36-1.602.54-.18.54-.378 1.044-.612 1.512a50.087 50.087 0 0 0 2.682-.63c.792-.216 1.35-.324 1.656-.324.144 0 .27.036.378.09.144.108.216.216.234.324 0 .198-.09.378-.252.558-.648.288-1.62.558-2.898.846.45.288 1.062.648 1.836 1.098 1.062.594 1.962 1.152 2.682 1.674.126.108.216.252.288.432 0 .054.018.108.018.162 0 .144-.072.288-.198.432-.108.108-.216.144-.288.144-.108 0-.234-.054-.414-.198l-2.754-1.476c-.936-.54-1.908-1.098-2.916-1.71-.036-.054-.036-.108-.036-.144-.864.18-1.71.36-2.574.522-.018.072-.036.126-.036.144-.072.234-.216.54-.468.9-1.206 1.674-2.196 2.826-2.97 3.51a5.66 5.66 0 0 1-.936.63c-.144.054-.288.09-.414.09-.27 0-.414-.144-.45-.414 0-.162.054-.306.198-.45 1.404-1.242 2.574-2.592 3.51-4.104-.522.108-1.026.198-1.53.288-.378.072-.774.126-1.206.162h-.126c-.342-.18-.504-.432-.504-.756 0-.18.108-.324.306-.468a5.577 5.577 0 0 1 1.026-.162c1.17-.198 2.286-.396 3.33-.594a1.253 1.253 0 0 1-.036-.288l-.108-.972c-.18.054-.342.09-.486.126-.216.036-.432.072-.648.09h-.126c-.252-.144-.378-.342-.378-.63 0-.108.072-.216.216-.324.144-.036.342-.072.558-.108.252-.054.504-.108.72-.144-.018-.036-.018-.072-.018-.108-.054-.306-.126-.738-.234-1.278-.108.036-.234.054-.342.09-.216.054-.468.09-.738.108h-.126c-.324-.162-.468-.414-.468-.738 0-.144.108-.288.288-.414.144-.036.36-.09.63-.126.18-.036.342-.072.486-.108-.018-.054-.018-.09-.018-.108a1.726 1.726 0 0 1-.054-.27c0-.396.144-.648.432-.72h.216c.324 0 .522.234.612.684a.36.36 0 0 0 .036.162c.828-.18 1.584-.36 2.268-.558a5.785 5.785 0 0 0-.144-.648c-.108-.216-.144-.36-.144-.45 0-.216.054-.396.198-.54.072-.072.198-.108.36-.126a.58.58 0 0 1 .36.126c.108.108.198.252.306.432.09.288.162.576.198.9.126-.036.234-.072.342-.108.504-.144.846-.234 1.026-.234.126 0 .252.036.396.108.144.09.216.198.234.306 0 .198-.09.378-.252.558zm-4.014 5.004c.072-.162.162-.342.27-.54.144-.306.27-.63.378-.954-.432.126-.864.234-1.278.306.018.252.036.45.054.612 0 .27.018.504.036.684.198-.036.378-.072.54-.108zm.972-2.592c.018-.036.036-.054.036-.09a8.37 8.37 0 0 0 .198-1.44c-.702.18-1.404.36-2.124.522.018.126.036.234.054.306.036.432.09.792.126 1.116a21.84 21.84 0 0 0 1.71-.414zm-.954 5.094c.162 0 .396.09.72.234.234.126.468.27.72.432.288.18.486.342.594.468.072.18.126.378.126.594-.036.252-.126.396-.288.468h-.108a.47.47 0 0 1-.252-.09c-.432-.18-.774-.342-1.044-.45a18.961 18.961 0 0 1-.81-.324c-.252-.108-.378-.36-.378-.756.072-.36.306-.54.72-.576zm1.458 5.616c-.36 0-.81-.144-1.35-.432-.504-.306-.81-.54-.918-.72a.498.498 0 0 1-.234-.45c0-.18.018-.324.09-.432.108-.216.306-.306.594-.306.54.324 1.188.738 1.944 1.206.252.09.378.288.378.576-.036.342-.198.522-.504.558zm22.978-14.4c0-.522-.288-.792-.828-.792-.36.216-.63.396-.81.504-.666.432-1.8.72-3.402.882-.468-.792-.756-1.278-.864-1.494-.18-.252-.396-.396-.648-.396-.468 0-.702.27-.702.81 0 .18.18.558.558 1.152-.198 0-.612-.018-1.224-.054a60.125 60.125 0 0 0-.9-.054c-.468 0-.702.27-.702.792 0 .468.27.738.828.774.432.036.864.054 1.332.054.252 0 .756 0 1.53-.018 1.296 2.286 2.196 3.42 2.7 3.42.468 0 .72-.234.72-.702a.883.883 0 0 0-.216-.576c-.54-.612-1.062-1.368-1.584-2.232 1.08-.18 1.998-.45 2.772-.81.954-.432 1.44-.846 1.44-1.26zM167.542 16c0-.504-.252-.756-.72-.756-.216 0-.396.126-.576.342a1.214 1.214 0 0 1-.306.054c-.414 0-.9-.144-1.458-.45-1.548-.828-2.322-1.584-2.322-2.25 0-.252.306-.486.936-.72.288-.108.45-.414.45-.9 0-.108-.09-.252-.234-.396-.144-.126-.27-.198-.414-.198-.252 0-.648.18-1.224.54-.648.396-.954.954-.954 1.674 0 .774.45 1.584 1.35 2.43.54.504 1.134.9 1.818 1.224.756.36 1.458.54 2.106.54.36 0 .702-.09 1.008-.252.36-.216.54-.522.54-.882zm25.012-9.306c0 .342-.126.504-.378.504-.126 0-.432-.09-.918-.288-.18-.036-.432-.126-.756-.252-.342-.108-.504-.288-.504-.54a.59.59 0 0 1 .162-.396c.108-.108.216-.18.324-.18.144 0 .594.144 1.332.414.486.18.738.432.738.738zm-1.656 1.296c0 .378-.162.558-.486.558-.162 0-.306-.036-.414-.144-.648-.468-.954-.864-.954-1.206 0-.288.144-.432.468-.432.162 0 .324.072.504.198.144.144.306.288.486.432.252.234.396.432.396.594zm-1.782-2.448c0 .36-.126.594-.36.702-1.224.594-2.304 1.53-3.24 2.79-1.044 1.404-1.566 2.736-1.566 3.996 0 .612.288 1.116.9 1.476.576.396 1.368.612 2.34.648.504.036.756.288.756.774 0 .504-.252.756-.72.756-.792 0-1.584-.18-2.412-.504-1.512-.612-2.268-1.746-2.268-3.42 0-1.854.918-3.78 2.772-5.76-1.944.396-3.636.576-5.058.576-1.476 0-2.196-.288-2.196-.9 0-.396.252-.702.756-.936a3.37 3.37 0 0 1 1.278-.252c.72 0 1.188.162 1.404.486 1.098 0 3.06-.306 5.886-.936.216-.036.54-.126.99-.234.486 0 .738.252.738.738zm11.962-2.304c0 .18-.072.414-.198.702-.108.288-.252.63-.468 1.008-.306.558-.72 1.242-1.26 2.034-.09.144-.18.288-.252.414 0 .018.018.036.036.036.27.522.432 1.35.468 2.466 0 2.052-.108 3.996-.324 5.796a46.526 46.526 0 0 1-.252 2.124c-.108.36-.306.54-.594.54-.378 0-.558-.216-.558-.63 0-.594.072-1.674.216-3.24a38.5 38.5 0 0 0 .144-3.33V9.97c0-.396-.036-.774-.072-1.134-.126.18-.252.36-.36.54a24.247 24.247 0 0 0-1.08 1.71c-.144.198-.306.288-.468.288-.306 0-.468-.144-.486-.432 0-.162.054-.306.18-.432.18-.324.414-.756.702-1.278.36-.648.81-1.458 1.368-2.448.432-.81.9-1.656 1.404-2.556.144-.306.306-.63.45-.954.09-.144.18-.324.252-.522.162-.072.396-.108.702-.108.288.108.45.306.45.594zm8.118 2.952c-.702.252-1.494.594-2.358.99a61.353 61.353 0 0 0-.072 1.818 32.97 32.97 0 0 1-.252 2.358c-.108.63-.234 1.17-.396 1.638-.252.324-.504.468-.72.468-.324 0-.486-.126-.486-.396 0-.108.036-.216.108-.306.072-.324.126-.63.198-.936.126-.846.234-2.178.306-4.014-.738.342-1.386.648-1.944.9-.09.054-.162.09-.198.108a92.955 92.955 0 0 0-.108 4.41c0 1.224.18 2.088.558 2.556.576.738 1.692 1.152 3.366 1.224a8.58 8.58 0 0 0 1.656-.144c1.26-.324 1.908-1.278 1.908-2.934a2.75 2.75 0 0 0-.144-.81c0-.396.162-.612.486-.648.234 0 .414.18.522.522.072.198.144.504.18.936.018.252.036.576.036.972-.072 1.152-.558 2.052-1.494 2.718-.792.504-1.908.756-3.312.774-.9 0-1.692-.126-2.34-.342-.756-.27-1.332-.63-1.71-1.08-.648-.72-.972-1.962-.972-3.726 0-1.116.018-2.376.09-3.762-.036.036-.072.054-.09.054-.612.324-.99.486-1.134.486-.378-.072-.612-.288-.684-.666v-.162c0-.216.09-.396.306-.576.288-.162.576-.306.864-.432.27-.126.54-.234.81-.342.036-.792.09-1.602.18-2.394.018-.45.234-.684.648-.684.342.018.522.252.558.684-.054.63-.09 1.242-.108 1.836.63-.252 1.224-.504 1.8-.756.108-.036.198-.09.306-.126.018-.882.054-2.322.09-4.302 0-.396.18-.612.54-.648h.234c.36.036.54.252.54.648 0 1.008-.036 2.25-.072 3.726.468-.18.936-.36 1.386-.522.846-.324 1.386-.486 1.602-.486.234 0 .396.054.504.144.198.198.306.432.324.684 0 .27-.072.702-.198 1.278-.126.486-.27.954-.45 1.404a6.94 6.94 0 0 1-1.332 2.07.999.999 0 0 1-.522.144c-.252-.018-.378-.162-.378-.432 0-.126.036-.234.108-.306.054-.108.126-.234.234-.378.18-.252.378-.72.63-1.404.108-.288.18-.576.252-.882.09-.432.144-.738.144-.954zm22.438.504c0 .342-.126.504-.378.504-.126 0-.432-.09-.918-.288-.18-.036-.432-.126-.756-.252-.342-.108-.504-.288-.504-.54a.59.59 0 0 1 .162-.396c.108-.108.216-.18.324-.18.144 0 .594.144 1.332.414.486.18.738.432.738.738zm-1.656 1.296c0 .378-.162.558-.486.558-.162 0-.306-.036-.414-.144-.648-.468-.954-.864-.954-1.206 0-.288.144-.432.468-.432.162 0 .324.072.504.198.144.144.306.288.486.432.252.234.396.432.396.594zm-1.782-2.448c0 .36-.126.594-.36.702-1.224.594-2.304 1.53-3.24 2.79-1.044 1.404-1.566 2.736-1.566 3.996 0 .612.288 1.116.9 1.476.576.396 1.368.612 2.34.648.504.036.756.288.756.774 0 .504-.252.756-.72.756-.792 0-1.584-.18-2.412-.504-1.512-.612-2.268-1.746-2.268-3.42 0-1.854.918-3.78 2.772-5.76-1.944.396-3.636.576-5.058.576-1.476 0-2.196-.288-2.196-.9 0-.396.252-.702.756-.936a3.37 3.37 0 0 1 1.278-.252c.72 0 1.188.162 1.404.486 1.098 0 3.06-.306 5.886-.936.216-.036.54-.126.99-.234.486 0 .738.252.738.738zm21.376 8.982c0 .558-.216.828-.612.828-.486 0-.72-.216-.72-.648 0-1.404-.576-2.25-1.728-2.574-.324 1.098-.828 1.998-1.512 2.7-.81.864-1.728 1.278-2.754 1.278-.81 0-1.53-.126-2.142-.414-.846-.342-1.26-.882-1.26-1.602 0-.9.612-1.674 1.836-2.358 1.386-.756 2.97-1.152 4.77-1.152 0-.612-.054-1.35-.126-2.178-1.08.144-1.872.216-2.34.216-.792 0-1.53-.09-2.214-.27-.324-.09-.486-.36-.486-.81 0-.162.072-.306.216-.45a.671.671 0 0 1 .486-.216 9.46 9.46 0 0 0 2.07.252c.324 0 .918-.054 1.764-.162l-.522-.72c-.198-.27-.288-.486-.288-.648 0-.468.216-.702.666-.702.198 0 .396.126.594.36.36.522.648 1.026.882 1.512.72-.144 1.314-.252 1.782-.36.432 0 .666.252.666.756 0 .468-.378.738-1.098.846l-.846.144c.072.684.108 1.242.108 1.692 0 .108-.018.396-.018.846.864.252 1.566.702 2.07 1.35.504.666.756 1.494.756 2.484zm-4.446-2.52c-1.206 0-2.448.324-3.708.972-.198.108-.432.27-.72.504-.36.288-.54.504-.54.612 0 .108.234.234.702.36a4.21 4.21 0 0 0 1.242.198c1.314 0 2.322-.882 3.024-2.646zm-7.74.198a11.647 11.647 0 0 1-.162-2.034c0-.252.018-.666.054-1.242.018-.288.036-.576.072-.864a.969.969 0 0 0-.162-.558c-.126-.162-.252-.252-.396-.252-.36 0-.666.234-.882.702-.144.324-.252.612-.288.846 0 .234.108.45.36.666.018 1.44.054 2.304.09 2.592.09.684.36 1.008.81 1.008.324 0 .504-.288.504-.864zM6.002 33.62c-.036.414-.054.81-.072 1.17.378-.198.882-.414 1.512-.648a31.733 31.733 0 0 1 1.566-.45c.144-.432.288-.864.414-1.26a104.1 104.1 0 0 0-3.438 1.116c0 .036.018.054.018.072zm-1.35.306c-.216-.054-.324-.216-.36-.504 0-.162.09-.306.27-.45.702-.45 2.16-.936 4.392-1.476.288-.054.522-.09.738-.09.198 0 .396.054.576.144.252.18.396.378.396.612 0 .252-.09.648-.234 1.188a21.165 21.165 0 0 1-1.098 2.736c-.18.36-.342.63-.468.81a.668.668 0 0 1-.558.288c-.072 0-.108 0-.144-.036-.054.036-.09.072-.126.09-.756.396-1.548.756-2.34 1.08l-.036.018c-.018.126-.036.234-.036.342a63.015 63.015 0 0 0-.09 2.808c0 .36.018.594.072.702a9.471 9.471 0 0 0 1.8-.918c.072-.108.198-.162.342-.162.144.018.234.144.234.378 0 .216-.108.432-.306.684a5.633 5.633 0 0 1-1.332 1.098c-.432.234-.828.36-1.188.36-.54 0-.81-.396-.828-1.17 0-1.116.036-2.322.126-3.654.126-1.692.198-3.168.216-4.41 0-.126-.018-.288-.018-.468zm3.42 2.052c.216-.468.396-.9.558-1.332-.792.342-1.71.72-2.772 1.152-.036.504-.072.954-.108 1.332.918-.36 1.692-.756 2.322-1.152zm1.692 4.176c.504.36.99.72 1.476 1.044 1.386.864 2.718 1.494 4.014 1.926.234.072.468.144.72.252.306.144.468.306.468.486-.036.18-.162.288-.396.342a4.736 4.736 0 0 1-.594.036 9.991 9.991 0 0 1-1.08-.198c-.72-.18-1.476-.486-2.25-.882-.864-.396-1.764-.936-2.7-1.584a42.206 42.206 0 0 1-2.304-1.764c-.126-.108-.198-.216-.216-.324 0-.216.072-.396.216-.558a.489.489 0 0 1 .396-.18c.18 0 .306.036.378.09.108.054.27.144.468.288.18.126.36.252.558.396a9.715 9.715 0 0 0 1.44-1.53c.072-.144.18-.288.288-.432a.524.524 0 0 1 .324-.216c.162 0 .306.054.45.126.18.144.27.306.27.522a.74.74 0 0 1-.09.288 1.937 1.937 0 0 1-.27.396 8.736 8.736 0 0 1-1.566 1.476zm5.256-7.092c-.342-.144-.882-.45-1.638-.918l-2.862-1.692a195.049 195.049 0 0 1-2.826-1.89 2.727 2.727 0 0 1-.558-.36 40.542 40.542 0 0 1-.99 1.584c.252.036.504.054.792.054.54 0 1.044-.072 1.476-.216.216.234.342.378.342.45 0 .504-.666.792-1.962.882-.594 0-1.026-.036-1.296-.126l-.054-.018-.018.018c-.468.648-.99 1.242-1.548 1.8-.54.54-1.08 1.008-1.584 1.44-.324.288-.576.522-.774.702-.09.072-.162.126-.216.18a.601.601 0 0 1-.27.054c-.162-.036-.27-.144-.306-.36a.7.7 0 0 1 .126-.414c.09-.162.252-.36.486-.612.288-.324.684-.774 1.206-1.35a52.49 52.49 0 0 0 2.142-2.7c.432-.612.846-1.224 1.206-1.836.288-.522.558-.954.774-1.314.09-.216.27-.324.54-.324.09 0 .162.018.198.036.252.108.396.27.396.504 0 .108-.036.252-.108.414.252.144.558.342.9.558.864.576 2.232 1.44 4.086 2.628.972.612 1.764 1.098 2.358 1.494.198.144.36.27.504.396a.839.839 0 0 1 .216.414c0 .396-.18.576-.504.576a.554.554 0 0 1-.234-.054zm17.578-3.06a.346.346 0 0 1-.162.288.44.44 0 0 1-.324.144c-.288 0-.594-.27-.9-.846-.252-.432-.378-.756-.378-.954 0-.09.054-.18.162-.288.108-.072.216-.126.324-.126.288 0 .558.288.846.846.288.414.432.72.432.936zm-1.26.702c0 .36-.18.54-.54.54-.144 0-.36-.126-.612-.378-.36-.36-.612-.54-.792-.54-.162 0-.306-.09-.45-.27a.865.865 0 0 1-.18-.558c0-.432.18-.648.558-.648.144 0 .54.288 1.188.864.54.504.828.828.828.99zm2.772 9.216c0 .54-.27.792-.774.792s-1.152-.54-1.962-1.638c-.63-.828-1.188-1.764-1.692-2.772a62.005 62.005 0 0 0-1.908-3.366c-.414-.666-.864-1.008-1.368-1.008-.846 0-1.998.936-3.474 2.772-.234.288-.486.414-.738.414-.468 0-.702-.27-.702-.81 0-.216.054-.378.18-.504 1.962-2.304 3.528-3.474 4.716-3.474.936 0 1.836.612 2.682 1.8.324.468.684 1.08 1.08 1.818.324.63.666 1.26 1.008 1.89.09.18.63.9 1.638 2.142.864 1.098 1.314 1.746 1.314 1.944zm11.962-10.638c0-.306-.288-.576-.828-.792-1.08-.648-1.728-.972-1.944-.972-.468 0-.702.288-.702.864 0 .234.162.522.522.846.144.126.36.198.684.198l.954.558c.252.144.45.216.594.216.468 0 .72-.306.72-.918zm5.58 6.066c0-.846-.288-1.584-.828-2.214-.594-.648-1.314-.99-2.16-.99-1.584 0-3.042.792-4.374 2.34.324-.972.504-1.728.504-2.232 0-1.026-.288-1.548-.846-1.548a.835.835 0 0 0-.72.378c-.18.27-.27.558-.27.882 0 .252.054.45.18.63.072.234.108.414.144.558a203.87 203.87 0 0 1-.792 3.078c-.09.252-.126.45-.126.594 0 .18.054.324.198.468.108.144.252.198.432.198.468 0 .792-.252.954-.792.306-.612 1.08-1.35 2.34-2.178.792-.54 1.584-.81 2.412-.81.972 0 1.458.558 1.458 1.656 0 .81-.288 1.674-.864 2.61-.522.828-1.116 1.53-1.782 2.07-.72.594-1.386.882-1.98.882-.162 0-.36-.018-.594-.09-.27-.054-.45-.09-.522-.09-.324.126-.486.396-.486.828 0 .576.468.864 1.422.864.738 0 1.35-.144 1.836-.396 1.764-1.026 3.06-2.448 3.888-4.284.378-.9.576-1.692.576-2.412zM74.27 38.75c0 .27-.144.504-.414.702-1.278.9-2.268 1.35-2.97 1.35-.99 0-1.476-.648-1.476-1.944 0-.504.144-1.512.468-3.024.324-1.584.504-2.376.504-2.394 0-.18-.072-.324-.216-.468a.938.938 0 0 0-.522-.162c-1.602 0-3.564 1.296-5.886 3.888.09.504.324 1.53.684 3.06l.198.882c0 .522-.252.792-.72.792-.36 0-.612-.27-.774-.774a29.047 29.047 0 0 1-.63-2.394c-.504.756-.81 1.404-.936 1.944-.108.486-.36.72-.72.72-.504 0-.756-.252-.756-.774 0-.558.36-1.404 1.08-2.52.108-.144.45-.72 1.062-1.692l-.036-1.53c0-.234 0-.81.036-1.71-.252.108-.54.27-.9.468-.396.288-.774.432-1.134.432a.671.671 0 0 1-.486-.216c-.144-.144-.216-.288-.216-.45 0-.396.144-.666.432-.792.468-.18 1.278-.432 2.43-.792l.216-1.674c.162-.828.414-1.242.774-1.242.504 0 .774.27.774.81-.036.216-.09.738-.198 1.566.396-.144.936-.378 1.62-.666.54-.288.882-.45 1.026-.45.108 0 .216.054.324.162.09.126.144.252.144.396 0 .324-.162.648-.486.972-.288.36-.864 1.188-1.764 2.484 1.836-1.62 3.42-2.448 4.752-2.448 1.53 0 2.304.666 2.304 1.98 0 .432-.144 1.296-.432 2.592-.396 1.764-.576 2.826-.576 3.204 0 .216.09.306.27.306.324 0 .738-.216 1.278-.684.54-.468.9-.702 1.116-.702.504 0 .756.27.756.792zm-9.054-7.146c-.378.108-.918.324-1.602.63l-.108 1.818 1.71-2.448zm27.082 2.25c0 .288-.072.54-.198.72-.162.18-.342.27-.54.27a.788.788 0 0 1-.576-.216.605.605 0 0 1-.252-.504c0-.036 0-.144.036-.288-.108-.126-.27-.306-.45-.522-.468-.36-.684-.684-.684-.936 0-.54.252-.828.756-.828.198 0 .576.288 1.152.828.504.504.756.99.756 1.476zm-.738-4.158c0 .342-.198.576-.558.684-1.764.54-3.582.864-5.49.99-.81 2.106-1.89 4.284-3.222 6.516-.09.288-.324.432-.702.432a.506.506 0 0 1-.468-.252.691.691 0 0 1-.198-.504c0-.108.036-.252.126-.414 1.26-2.196 2.214-4.104 2.88-5.724-1.008-.018-1.728-.072-2.142-.18-.378-.072-.558-.306-.558-.702 0-.522.198-.792.63-.792.63.072 1.35.108 2.142.108h.468c.072-.252.216-.684.396-1.314.108-.36.36-.558.738-.558.18 0 .342.09.486.234a.805.805 0 0 1 .216.558c0 .144-.09.468-.252.99.756-.054 2.322-.36 4.68-.936.54 0 .81.288.828.864zm-.522 11.682c0 .504-.252.774-.738.774-.468 0-.702-.27-.702-.774 0-1.17-.27-1.944-.792-2.322a4.092 4.092 0 0 1-1.062 1.692c-.576.558-1.188.846-1.8.846-1.584 0-2.376-.594-2.376-1.782 0-.684.468-1.296 1.422-1.872.864-.522 1.692-.792 2.52-.792.072 0 .198.018.342.036.036-.522.054-.9.054-1.116 0-.378-.108-.792-.288-1.242-.234-.198-.342-.414-.342-.63a.99.99 0 0 1 .216-.63.701.701 0 0 1 .54-.252c.36 0 .666.306.936.918.27.702.414 1.386.414 2.07 0 .306-.054.702-.126 1.206 1.188.72 1.782 2.016 1.782 3.87zm-3.564-2.916c-.576 0-1.134.108-1.71.324-.648.27-.954.576-.954.9 0 .288.216.432.684.432.468 0 .918-.18 1.314-.54.36-.324.576-.684.666-1.116zm25.318-1.404c0-1.836-.486-3.348-1.44-4.518-.216-.252-.45-.378-.702-.378a.998.998 0 0 0-.612.234.767.767 0 0 0-.252.576c0 .396.198.81.63 1.242.558.612.846 1.44.846 2.484 0 .468-.072 1.026-.216 1.71-.09.396-.126.648-.126.792 0 .558.27.828.828.828.684 0 1.044-.99 1.044-2.97zm-8.856 2.286c0-.54-.234-.81-.702-.81-.252 0-.54.18-.828.54-.324.378-.594.558-.81.558-.27 0-.486-.45-.666-1.386-.144-.81-.216-1.746-.216-2.826v-1.332c-.018-.648-.018-.99-.018-1.062 0-.972-.252-1.476-.738-1.476-.576 0-.864.288-.864.828 0 .018 0 .162.036.45.072.81.126 1.566.126 2.25 0 1.656.09 2.898.27 3.744.324 1.62.972 2.412 1.944 2.43.738 0 1.476-.396 2.214-1.224a1 1 0 0 0 .252-.684zm20.764-10.71l.702-.162c.036 0 .054-.018.072-.018l.108-.108c.054-.036.144-.108.27-.216.09-.072.198-.18.342-.306.18-.18.306-.342.414-.486a.845.845 0 0 0 .144-.468c0-.108-.018-.234-.036-.36-.018-.054-.018-.108-.018-.162 0-.288.162-.432.522-.468.288 0 .486.09.594.234.144.198.234.45.234.738s-.144.576-.396.864a2.405 2.405 0 0 1-.378.36c1.26-.234 2.052-.36 2.376-.36.198 0 .342.072.414.198.09.144.144.288.144.432 0 .144-.09.27-.27.378-1.152.306-2.484.648-3.978 1.008.018.504.036 1.008.036 1.476.504-.144.99-.288 1.44-.432.576-.216.954-.36 1.098-.396.108-.036.198-.072.288-.072.144.018.288.09.396.234.018.072.036.162.036.234a.865.865 0 0 1-.234.504c-.756.414-1.71.81-2.862 1.17a.556.556 0 0 1-.144.036c0 .144.018.288.018.414v1.026a42.488 42.488 0 0 0 2.448-.666c.828-.27 1.35-.432 1.548-.504a.722.722 0 0 1 .27-.054c.18.018.306.09.414.234.018.09.036.18.036.27-.018.162-.09.324-.216.504-1.044.504-2.358.972-3.978 1.44a40.946 40.946 0 0 1-5.328 1.242.885.885 0 0 1-.306.072c-.162 0-.306-.072-.432-.252-.09-.144-.126-.36-.126-.648 0-.216.126-.378.36-.486 1.116-.216 2.052-.396 2.844-.558.45-.108.882-.198 1.296-.306-.036-.108-.036-.234-.036-.36v-.99c-.9.27-1.746.468-2.574.612a.585.585 0 0 1-.252.09c-.162 0-.306-.072-.414-.252-.108-.144-.144-.342-.144-.63 0-.18.126-.342.36-.45.792-.18 1.494-.324 2.07-.468.324-.072.648-.144.936-.234 0-.504-.018-1.008-.036-1.512-1.224.306-2.538.63-3.942.954-.342-.018-.54-.18-.594-.504v-.198c0-.144.09-.27.234-.36.684-.288 1.692-.612 3.024-.954-.612-.504-1.044-.954-1.26-1.368-.036-.036-.036-.072-.036-.108 0-.108.054-.234.126-.36.072-.09.198-.18.36-.27a1.09 1.09 0 0 1 .27-.036c.198.018.36.144.504.378.288.324.576.684.882 1.044.144.18.27.306.36.396zm-3.87 15.804a.8.8 0 0 1-.468.18c-.252-.036-.36-.18-.36-.45 0-.072.072-.198.216-.36.648-.36 1.206-.738 1.71-1.152a10.154 10.154 0 0 0 1.656-1.728c.36-.468.63-.954.828-1.458-1.116.216-2.178.396-3.186.558-.504.072-.864.126-1.08.144a5.907 5.907 0 0 1-.702.054c-.342 0-.54-.252-.594-.738 0-.216.162-.414.522-.594.198-.072.45-.144.774-.234 1.584-.198 3.114-.414 4.59-.666 0-.18.018-.342.018-.522 0-.288-.018-.612-.054-.99 0-.432.216-.702.684-.81.396 0 .63.252.72.72-.018.252-.018.486-.018.702 0 .252-.018.468-.036.684 2.772-.45 4.932-.846 6.462-1.206.162 0 .27.072.342.198a.452.452 0 0 1 .036.18c0 .18-.09.342-.234.504-.756.432-2.628.936-5.58 1.512.288.324.594.648.918.972.378.45.792.882 1.224 1.296 1.08 1.044 2.124 1.8 3.15 2.304.198.072.396.162.576.27.288.126.432.27.432.45-.036.162-.162.27-.378.306-.144 0-.324.018-.54.018a4.81 4.81 0 0 1-.882-.216c-.576-.216-1.17-.54-1.818-1.008-.684-.486-1.404-1.116-2.142-1.872a27.344 27.344 0 0 1-1.836-2.034c-.036-.036-.054-.072-.072-.108a7.237 7.237 0 0 1-.936 1.908 8.218 8.218 0 0 1-2.178 2.142 9.492 9.492 0 0 1-1.764 1.044zm21.538-12.942c0 .18-.036.396-.072.648-.108.396-.27.756-.486 1.116a.9.9 0 0 1 .288.198.903.903 0 0 1 .036.216.805.805 0 0 1-.198.414c-.36.324-.81.63-1.386.918-.666.36-1.296.63-1.908.792a.602.602 0 0 1-.252.072c-.162 0-.288-.072-.396-.234-.108-.144-.144-.342-.144-.594 0-.18.108-.324.324-.432.144-.036.288-.09.414-.144-.054-.414-.144-.9-.252-1.44-.288-.99-.522-1.818-.702-2.484a.622.622 0 0 1 .18-.378c.108-.144.234-.216.396-.216.144 0 .27.018.342.018.18.072.324.216.414.414.018.072.036.126.054.18.288-.036.666-.072 1.134-.09.576.018 1.08.108 1.476.27.486.216.738.468.738.756zm-2.718 2.646c.18-.054.342-.126.504-.198 0-.144.072-.252.198-.324.18-.216.342-.522.522-.954.144-.36.216-.594.216-.702-.18-.18-.468-.27-.882-.27-.288 0-.612.018-.936.036.018.18.054.378.09.558.144.828.252 1.44.288 1.854zm8.784 1.62c.306.468.666.954 1.08 1.422.378.45.792.9 1.242 1.332.324.36.63.702.954 1.044.144.162.306.234.468.234.216-.036.324-.18.342-.396 0-.18-.054-.378-.144-.612a5.436 5.436 0 0 0-.648-.936c-.36-.396-.612-.666-.72-.828-.432-.45-.81-.9-1.134-1.368a9.907 9.907 0 0 1-.972-1.566 5.448 5.448 0 0 0-.504-.756v-.45c.36-.144.756-.288 1.152-.468.9-.36 1.584-.702 2.052-1.062.18-.18.27-.378.27-.576-.018-.108-.108-.216-.27-.324a.608.608 0 0 0-.36-.108c-.234 0-.63.144-1.17.432-.54.252-1.098.504-1.692.72-.018-.846-.036-1.656-.036-2.412.522-.198.936-.396 1.26-.612.144-.09.27-.234.36-.414.018-.108.036-.198.036-.306-.072-.18-.306-.27-.702-.27-.36.108-.684.198-.972.27-.018-.18-.018-.36-.018-.558-.036-.558-.288-.846-.756-.846-.306.036-.486.216-.558.576v.252c0 .306 0 .612.018.918-.81.198-1.35.288-1.602.288-.36.072-.54.288-.54.648 0 .486.18.72.558.72a11.64 11.64 0 0 0 1.602-.288c0 .846.018 1.692.036 2.538-.99.36-2.052.72-3.186 1.08a6.481 6.481 0 0 0-.756.234c-.18.144-.27.306-.27.486 0 .342.162.594.504.774h.144c.288-.054.558-.126.828-.216a37.698 37.698 0 0 0 1.998-.684c-.864 2.088-1.926 3.96-3.222 5.652a.583.583 0 0 0-.162.378c.036.252.162.36.396.36a.98.98 0 0 0 .36-.072c.252-.18.54-.45.9-.828.648-.774 1.476-2.106 2.502-4.014l.054 7.398c-.216 0-.414-.144-.576-.396-.252-.288-.486-.432-.702-.432 0 1.35.468 2.052 1.422 2.106.792-.036 1.188-.486 1.224-1.35-.036-2.448-.072-4.698-.09-6.714zm19.936 2.79c0-.486-.27-.738-.792-.738-.09 0-.558.432-1.404 1.26-.864.864-1.476 1.296-1.872 1.296-.702 0-1.044-1.278-1.044-3.834 0-1.692.18-3.312.54-4.86.144-.594.216-.936.216-1.044 0-.18-.09-.342-.252-.486a.8.8 0 0 0-.576-.234c-.468 0-.81.468-1.044 1.404a2.59 2.59 0 0 0-.288 1.152c0 .252.09.45.306.612-.234 1.512-.342 2.736-.342 3.672 0 1.44.162 2.592.504 3.456.432 1.116 1.08 1.674 1.98 1.674 1.008 0 2.304-.918 3.852-2.754a.788.788 0 0 0 .216-.576zm22.582-1.494c0-1.836-.486-3.348-1.44-4.518-.216-.252-.45-.378-.702-.378a.998.998 0 0 0-.612.234.767.767 0 0 0-.252.576c0 .396.198.81.63 1.242.558.612.846 1.44.846 2.484 0 .468-.072 1.026-.216 1.71-.09.396-.126.648-.126.792 0 .558.27.828.828.828.684 0 1.044-.99 1.044-2.97zm-8.856 2.286c0-.54-.234-.81-.702-.81-.252 0-.54.18-.828.54-.324.378-.594.558-.81.558-.27 0-.486-.45-.666-1.386-.144-.81-.216-1.746-.216-2.826v-1.332c-.018-.648-.018-.99-.018-1.062 0-.972-.252-1.476-.738-1.476-.576 0-.864.288-.864.828 0 .018 0 .162.036.45.072.81.126 1.566.126 2.25 0 1.656.09 2.898.27 3.744.324 1.62.972 2.412 1.944 2.43.738 0 1.476-.396 2.214-1.224a1 1 0 0 0 .252-.684zm29.152-9.846c0 .342-.18.504-.504.504s-.612-.288-.846-.864c-.288-.396-.432-.702-.432-.918 0-.108.054-.198.162-.306a.535.535 0 0 1 .36-.144c.27 0 .54.288.81.846l.342.45a.959.959 0 0 1 .108.432zm-1.26.774c0 .36-.18.522-.54.522-.108 0-.306-.126-.612-.378-.144-.126-.36-.288-.612-.504a1.165 1.165 0 0 0-.18-.054c-.396 0-.594-.252-.594-.792 0-.45.162-.684.522-.684.18 0 .792.522 1.836 1.53.108.108.18.216.18.36zm-2.214 1.872c0 1.854-.972 3.924-2.916 6.192-1.026 1.224-1.98 2.124-2.88 2.7-.666.432-1.35.648-2.07.648-.18 0-.396-.09-.666-.27-.252-.198-.378-.378-.378-.558 0-.576.27-.882.81-.882.036 0 .108.036.198.072.09.072.162.126.198.126.468 0 1.152-.378 2.07-1.17.918-.792 1.8-1.8 2.664-3.024 1.008-1.476 1.53-2.7 1.53-3.654 0-.684-.306-1.026-.9-1.026-1.116 0-2.304.234-3.528.666-.432.468-.918.702-1.422.702-.684 0-1.026-.27-1.026-.828 0-.306.144-.54.468-.684 2.124-.936 3.906-1.404 5.382-1.404.756 0 1.368.234 1.8.702.432.468.666 1.026.666 1.692zm21.88 4.446c0-.45-.234-.684-.702-.684-.324 0-.54.126-.648.378-.396.522-.864.99-1.44 1.404-.648.468-1.242.684-1.746.684-.432 0-.63-.342-.63-1.044 0-.792.378-2.628 1.152-5.49.072-.234.108-.396.108-.468 0-.468-.252-.702-.72-.702-.396 0-.648.216-.756.612a82.4 82.4 0 0 0-.702 2.898c-.36 1.62-.54 2.718-.54 3.294 0 .648.18 1.206.54 1.656.396.504.918.756 1.584.756.63 0 1.35-.234 2.142-.72a8.36 8.36 0 0 0 1.782-1.494c.378-.432.576-.792.576-1.08zm-8.082-3.618c0-.504-.036-.936-.09-1.332-.126-.594-.396-.9-.81-.9-.54 0-.792.45-.792 1.314 0 .252.036.576.144.972 0 .252.018.432.036.576a12.03 12.03 0 0 1-1.098 3.06c-.36.684-.846 1.512-1.494 2.484-.198.288-.288.54-.288.72 0 .18.054.36.198.504a.606.606 0 0 0 .468.216c.288 0 .54-.18.774-.558 1.962-2.952 2.952-5.31 2.952-7.056zm27.442 2.628c0-.324-.18-.576-.522-.792a2.249 2.249 0 0 0-1.17-.324c-.144 0-.324.036-.54.072a59.655 59.655 0 0 0-5.346-.252c-1.512 0-2.736.09-3.672.27-.864.18-1.296.396-1.296.684 0 .252.108.468.342.666.216.216.486.306.792.306.378 0 .702-.018.99-.09.342-.054.594-.144.738-.252a20.768 20.768 0 0 1 2.664-.162c.414 0 1.656.072 3.744.18 1.746.108 2.664.18 2.772.18.324-.036.504-.198.504-.486zM13.328 56.136c0 .324-.18.486-.504.486s-.63-.288-.882-.9c-.288-.378-.414-.684-.414-.918 0-.09.054-.198.18-.324.108-.108.216-.162.342-.162.27 0 .558.288.846.864l.324.486c.072.108.108.27.108.468zm-1.278.774c0 .342-.18.504-.522.504-.18 0-.414-.126-.666-.378-.18-.144-.378-.324-.594-.522-.072-.018-.126-.036-.18-.036a.506.506 0 0 1-.468-.252.864.864 0 0 1-.198-.576c0-.432.18-.648.576-.648.216 0 .846.504 1.89 1.494a.542.542 0 0 1 .162.414zm2.34 7.812c0 .144-.09.324-.27.522-.18.216-.36.306-.576.306-.468 0-.846-.162-1.152-.504-.504-.54-1.08-1.314-1.728-2.358-.828-1.278-1.35-2.088-1.602-2.448-1.152-1.53-2.142-2.304-3.006-2.304-.918 0-1.764.684-2.556 2.034a.757.757 0 0 1-.684.396c-.468 0-.684-.27-.684-.81 0-.144.108-.378.324-.702 1.188-1.62 2.34-2.448 3.492-2.448 1.44 0 2.934 1.098 4.518 3.258a68.65 68.65 0 0 1 1.764 2.7c.144.27.522.792 1.116 1.584.144-.018.252-.036.324-.036.468 0 .72.27.72.81zm17.2-7.866c0 1.782-.288 3.582-.846 5.382a17.206 17.206 0 0 1-4.14 7.074c-.288.288-.558.432-.81.432-.468 0-.684-.252-.684-.756 0-.234.072-.414.234-.558 1.224-1.152 2.268-2.574 3.114-4.266.576-1.188 1.008-2.34 1.278-3.42.234-1.098.36-2.358.36-3.798 0-.342-.072-.666-.198-.972a1.687 1.687 0 0 1-.198-.756c0-.342.054-.612.18-.81.144-.252.36-.396.648-.396.396 0 .63.198.738.558.216.774.324 1.53.324 2.286zm-5.922-1.386c-.036.144-.054.306-.09.486-.324 1.368-.486 2.556-.522 3.582l.054 1.188c-.036.504-.252.738-.684.738-.432 0-.684-.252-.738-.792a8.228 8.228 0 0 1-.054-.882c0-.594.108-1.602.324-3.042a3.402 3.402 0 0 1-.054-.522c0-.54.108-.936.342-1.152.216-.252.468-.396.756-.396.18 0 .324.09.468.234a.81.81 0 0 1 .198.558zm27.946 5.13c0-.324-.18-.576-.522-.792a2.249 2.249 0 0 0-1.17-.324c-.144 0-.324.036-.54.072a59.655 59.655 0 0 0-5.346-.252c-1.512 0-2.736.09-3.672.27-.864.18-1.296.396-1.296.684 0 .252.108.468.342.666.216.216.486.306.792.306.378 0 .702-.018.99-.09.342-.054.594-.144.738-.252a20.768 20.768 0 0 1 2.664-.162c.414 0 1.656.072 3.744.18 1.746.108 2.664.18 2.772.18.324-.036.504-.198.504-.486zm18.532-2.124c0-.504-.198-.774-.594-.774-.18 0-.486.144-.954.432a108.967 108.967 0 0 1-2.448 1.422c-.36-.828-1.008-1.26-1.908-1.314a8.01 8.01 0 0 0-.54.054c.558-1.008.9-1.746 1.008-2.214.036-.18.198-.306.486-.378 1.332-.342 2.25-.576 2.754-.72.504-.144.756-.378.756-.738 0-.414-.252-.63-.72-.63l-3.096.738c-.162-.864-.414-1.53-.756-1.98-.27-.342-.54-.522-.828-.522-.18 0-.36.072-.504.198a.652.652 0 0 0-.198.486c0 .108.072.234.216.414.414.468.63 1.008.63 1.62 0 .036-.018.072-.018.144a6.788 6.788 0 0 1-1.08.108c-.144 0-.378 0-.738-.018-.486-.144-.774-.234-.846-.234-.504 0-.738.27-.738.774 0 .252.126.432.396.54a4.206 4.206 0 0 0 1.638.306c.27 0 .63-.036 1.098-.108-.702 1.764-1.836 3.24-3.402 4.464-.504.288-.738.648-.738 1.044 0 .144.072.27.216.396a.664.664 0 0 0 .504.198c.378 0 .792-.252 1.242-.774.432-.504.954-.918 1.566-1.278.576-.342 1.116-.522 1.584-.522.468 0 .702.27.702.81-1.08.612-1.944 1.314-2.556 2.106-.63.792-.936 1.566-.936 2.286 0 .936.378 1.656 1.17 2.196.72.504 1.656.774 2.808.774s2.286-.288 3.366-.864c.414-.216.63-.504.63-.828 0-.414-.234-.63-.702-.63-.108 0-.288.072-.576.216-1.08.504-2.016.774-2.772.774-.756 0-1.368-.144-1.8-.432-.45-.27-.666-.648-.666-1.116 0-.99.684-1.944 2.052-2.862-.054.612-.072.972-.072 1.08 0 .972.306 1.458.954 1.458a.865.865 0 0 0 .558-.18c.144-.144.234-.288.234-.468 0-.18-.108-.342-.288-.522.072-1.116.108-1.908.144-2.394 1.476-.864 2.592-1.512 3.33-1.98.288-.18.432-.378.432-.558zm21.124-6.444a.377.377 0 0 0-.072-.198c-.072-.144-.198-.216-.378-.216-1.548.342-3.744.738-6.552 1.17-.27.036-.54.09-.828.126.288-.792.432-1.368.432-1.728-.09-.324-.36-.486-.828-.486-.396 0-.666.216-.81.612a8.638 8.638 0 0 1-.432 1.854 72.47 72.47 0 0 1-3.528.468c-.324.108-.612.18-.828.252-.36.198-.522.396-.522.594.072.504.27.756.612.756.216 0 .45 0 .738-.036.216-.018.576-.072 1.08-.144a33.97 33.97 0 0 0 1.728-.27c-.09.18-.18.342-.288.522-.576.81-.9 1.404-.954 1.8v.396c.09.432.504.666 1.224.684.486 0 1.116-.09 1.872-.27a12.66 12.66 0 0 0 4.284-1.71c.36.45.81.936 1.386 1.476.198.198.396.342.576.45.108.072.234.09.414.09.18 0 .342-.036.45-.126a.558.558 0 0 0 .162-.396v-.18c-.18-.252-.576-.72-1.152-1.404-.45-.576-.9-1.134-1.332-1.674-.162-.252-.342-.378-.54-.396-.108 0-.216.018-.324.036-.162.09-.27.18-.342.27-.09.144-.144.27-.144.396 0 .072 0 .144.036.216a1.7 1.7 0 0 0 .234.432c-.936.396-1.944.738-2.988 1.026-.81.198-1.422.306-1.818.324-.108 0-.18-.018-.18-.09.414-.738.792-1.458 1.116-2.16.594-.108 1.224-.216 1.89-.324 3.384-.594 5.49-1.116 6.318-1.584.18-.18.288-.378.288-.558zm-8.82 8.766a1.39 1.39 0 0 0-.036.27l-.18 1.242c-.018.072-.036.126-.036.198.396-.09.756-.18 1.044-.252.9-.234 1.71-.468 2.448-.72.432-.162.684-.252.774-.288.072-.036.126-.072.18-.072-.018-.36-.018-.72-.018-1.098-.036-.198-.144-.306-.306-.324-.594.054-1.89.396-3.87 1.044zm-.432 3.024c-.09.558-.18 1.116-.252 1.656.144-.036.27-.072.414-.108a53.583 53.583 0 0 0 2.268-.648c.936-.288 1.692-.54 2.232-.756-.018-.612-.018-1.224-.018-1.854-.504.288-1.08.576-1.764.828-.936.36-1.818.63-2.646.81a.723.723 0 0 1-.234.072zm-.414 3.042a69.556 69.556 0 0 0-.162 1.602c-.036.432-.108.72-.216.9-.18.216-.378.324-.612.324-.288-.036-.468-.216-.54-.504-.018-.126-.018-.324-.018-.612 0-.36.162-1.566.486-3.636.252-1.818.396-3.204.414-4.14v-.774c0-.396.18-.63.54-.738h.468c.216.036.342.126.414.27.756-.27 1.818-.576 3.15-.918.432-.09.792-.144 1.098-.144.792.018 1.206.468 1.278 1.332 0 .162.018 1.242.054 3.222.018.99.072 2.196.144 3.618.018.522.054 1.116.126 1.764 0 .648-.216.99-.63 1.008-.396 0-.828-.108-1.314-.288-.648-.252-1.17-.63-1.548-1.098a.82.82 0 0 1-.144-.414c0-.288.108-.45.36-.504.342 0 .972.252 1.872.774-.054-.9-.09-1.854-.108-2.898-.468.306-1.17.63-2.088.972-.72.252-1.404.486-2.034.702-.198.054-.342.09-.414.126a4.012 4.012 0 0 1-.576.054zm27.352-11.322c0-.486-.252-.738-.738-.738-.45.108-.774.198-.99.234-2.826.63-4.788.936-5.886.936-.216-.324-.684-.486-1.404-.486-.45 0-.882.09-1.278.252-.504.234-.756.54-.756.936 0 .612.72.9 2.196.9 1.422 0 3.114-.18 5.058-.576-1.854 1.98-2.772 3.906-2.772 5.76 0 1.674.756 2.808 2.268 3.42.828.324 1.62.504 2.412.504.468 0 .72-.252.72-.756 0-.486-.252-.738-.756-.774-.972-.036-1.764-.252-2.34-.648-.612-.36-.9-.864-.9-1.476 0-1.26.522-2.592 1.566-3.996.936-1.26 2.016-2.196 3.24-2.79.234-.108.36-.342.36-.702zm19.54 0c0-.486-.252-.738-.738-.738-.45.108-.774.198-.99.234-2.826.63-4.788.936-5.886.936-.216-.324-.684-.486-1.404-.486-.45 0-.882.09-1.278.252-.504.234-.756.54-.756.936 0 .612.72.9 2.196.9 1.422 0 3.114-.18 5.058-.576-1.854 1.98-2.772 3.906-2.772 5.76 0 1.674.756 2.808 2.268 3.42.828.324 1.62.504 2.412.504.468 0 .72-.252.72-.756 0-.486-.252-.738-.756-.774-.972-.036-1.764-.252-2.34-.648-.612-.36-.9-.864-.9-1.476 0-1.26.522-2.592 1.566-3.996.936-1.26 2.016-2.196 3.24-2.79.234-.108.36-.342.36-.702zm21.376 6.516c0-1.836-.486-3.348-1.44-4.518-.216-.252-.45-.378-.702-.378a.998.998 0 0 0-.612.234.767.767 0 0 0-.252.576c0 .396.198.81.63 1.242.558.612.846 1.44.846 2.484 0 .468-.072 1.026-.216 1.71-.09.396-.126.648-.126.792 0 .558.27.828.828.828.684 0 1.044-.99 1.044-2.97zm-8.856 2.286c0-.54-.234-.81-.702-.81-.252 0-.54.18-.828.54-.324.378-.594.558-.81.558-.27 0-.486-.45-.666-1.386-.144-.81-.216-1.746-.216-2.826v-1.332c-.018-.648-.018-.99-.018-1.062 0-.972-.252-1.476-.738-1.476-.576 0-.864.288-.864.828 0 .018 0 .162.036.45.072.81.126 1.566.126 2.25 0 1.656.09 2.898.27 3.744.324 1.62.972 2.412 1.944 2.43.738 0 1.476-.396 2.214-1.224a1 1 0 0 0 .252-.684zm27.046 1.134c0 .558-.252.846-.738.846-.468 0-.702-.27-.702-.774 0-.396-.27-.756-.81-1.08a23.752 23.752 0 0 0-1.314-.612c-1.188 1.944-2.844 2.916-4.986 2.916-.648 0-1.206-.162-1.638-.486-.522-.36-.774-.882-.774-1.53 0-1.008.486-1.764 1.458-2.268.774-.396 1.746-.612 2.898-.612.486 0 1.17.072 2.052.198.108-.792.162-1.62.162-2.484-1.008.09-1.71.126-2.07.126-.63 0-1.278-.072-1.926-.234-.36-.072-.522-.36-.522-.9 0-.126.054-.27.198-.414.144-.126.27-.198.414-.198.09 0 .198.018.306.036.504.126 1.17.18 1.998.18.468 0 .954-.018 1.494-.09-.036-.252-.126-.864-.288-1.872-1.044.108-1.746.144-2.106.144-.54 0-1.044-.036-1.494-.144-.324-.054-.468-.252-.468-.594 0-.468.324-.72 1.008-.72.018 0 .288.018.792.036.504.036.774.054.81.054.054 0 .432-.018 1.134-.072l-.36-.954c-.108-.234-.144-.414-.144-.54 0-.144.072-.288.216-.432.126-.144.252-.216.396-.216.342 0 .594.126.738.378.108.18.288.702.576 1.548 1.296-.342 2.052-.522 2.25-.522.126 0 .252.072.378.18.108.144.18.27.18.378 0 .432-.162.666-.45.738-.648.18-1.314.342-2.034.486.09.432.198 1.062.306 1.89.522-.09 1.116-.198 1.8-.324.144 0 .288.072.432.198.126.126.198.27.198.414 0 .54-.18.828-.504.9l-1.818.342v.9c0 .54-.072 1.26-.198 2.16.828.252 1.53.612 2.106 1.044.684.594 1.044 1.26 1.044 1.98zm-5.13-1.944c-.576-.054-.99-.09-1.224-.09-2.106 0-3.15.45-3.15 1.314 0 .324.234.486.72.486 1.584 0 2.79-.558 3.654-1.71zm25.732-8.802c0 .432-.18.684-.522.756-1.116.27-2.772.504-5.004.684l-.072 2.232c.684.612 1.044 1.674 1.044 3.204 0 1.548-.504 3.636-1.476 6.282l-.378 1.134c-.216.522-.522.792-.882.792-.486 0-.72-.27-.72-.774 0-.108.252-.81.756-2.07.864-2.196 1.314-3.996 1.314-5.418 0-.162-.018-.468-.036-.918-.216.756-.432 1.278-.63 1.566-.234.36-.54.522-.9.522-.522 0-.972-.234-1.368-.738-.396-.468-.576-1.098-.576-1.854 0-.792.252-1.404.792-1.818a2.185 2.185 0 0 1 1.386-.468c.036 0 .126.018.252.036l.054-1.638c-1.152.108-2.952.27-5.4.468-.486-.018-.72-.27-.72-.756 0-.468.252-.738.756-.774.486-.036 2.268-.18 5.328-.432l-.09-1.476c0-.648.234-.972.702-.972.504 0 .756.252.774.738l.054 1.62 2.412-.234c.144-.378.522-.576 1.17-.576 1.314 0 1.98.306 1.98.882zm-7.002 4.392a1.4 1.4 0 0 0-.9.36c-.234.252-.342.504-.342.774s.054.504.198.72c.126.216.27.324.45.324.126 0 .252-.234.378-.702.144-.468.216-.954.216-1.476zm22.366.774c0 .792-.252 1.422-.738 1.926-.504.504-1.116.738-1.854.738-.594 0-1.08-.162-1.476-.486-.432-.36-.648-.828-.648-1.44 0-.792.396-1.53 1.188-2.214.054-.396.468-.594 1.224-.594.342 0 .738.108 1.206.288.72.324 1.098.918 1.098 1.782zm-1.17.036c0-.252-.126-.468-.342-.666-.252-.198-.486-.306-.72-.306-.378 0-.702.162-.99.468-.306.324-.45.684-.45 1.08 0 .648.36.954 1.08.954.396 0 .738-.144 1.026-.45.252-.288.396-.648.396-1.08z"/>
</svg>
