<svg xmlns="http://www.w3.org/2000/svg" width="409" height="50" viewBox="0 0 409 50">
    <g fill="#503A12" fill-rule="evenodd">
        <path d="M221 25.516c0-.879-.41-1.593-1.231-2.197-.671-.44-1.343-.715-1.977-.715-.15 0-.336.055-.56.11-.298.055-.485.055-.596.055-.15 0-.71-.055-1.716-.165-3.432-.384-6.678-.604-9.7-.604-6.825 0-10.22.824-10.22 2.473 0 .714.224 1.318.671 1.813.41.494.858.714 1.38.714 1.493 0 2.65-.33 3.544-1.044 2.127-.33 4.066-.55 5.82-.55.895 0 3.58.22 8.057.605 1.492.11 2.649.22 3.432.275a52.8 52.8 0 0 0 2.313.22c.522 0 .783-.33.783-.99zM270 41.232c0-.312-1.237-2.027-3.608-5.043-2.32-2.86-3.918-5.2-4.743-6.967-2.99-5.875-4.948-9.567-5.979-11.075-2.32-3.431-4.742-5.147-7.216-5.147-3.248 0-7.63 3.432-13.145 10.19-.206.26-.309.677-.309 1.196 0 1.248.464 1.82 1.443 1.82.516 0 .928-.156 1.237-.52 1.547-1.871 3.196-3.743 4.846-5.615 2.165-2.34 4.175-3.535 5.98-3.535 1.7 0 3.195 1.143 4.432 3.38 2.577 4.782 4.382 8.162 5.413 10.19a55.305 55.305 0 0 0 5 8.215c2.216 3.12 3.865 4.679 5 4.679 1.082 0 1.649-.572 1.649-1.768zM308 22.948c0 3.724-1.398 7.759-4.091 12.155-2.796 4.397-5.8 7.294-9.063 8.638-.414.156-.725.259-.983.259-.933 0-1.399-.62-1.399-1.862 0-.62.622-1.448 1.916-2.535.415-.31 1.036-.465 1.761-.465a31.082 31.082 0 0 0 6.11-7.19c1.917-3.103 2.9-6.103 2.9-9 0-1.862-.776-3.31-2.33-4.345-1.242-.827-2.796-1.293-4.66-1.396-1.968 5.69-4.506 10.707-7.665 15.052-2.071 2.844-4.142 4.241-6.214 4.241-1.553 0-2.796-.724-3.78-2.276-1.036-1.552-1.502-3.207-1.502-5.017 0-3.414 2.486-6.88 7.457-10.5C290.86 15.603 294.691 14 297.902 14c2.9 0 5.282.724 7.094 2.172 1.968 1.604 3.004 3.88 3.004 6.776zm-12.998-5.276c-3.004.931-5.852 2.483-8.545 4.759-3.107 2.535-4.609 4.914-4.609 7.138 0 .724.26 1.552.777 2.431.518.931 1.087 1.345 1.76 1.345 1.71 0 4.195-2.845 7.51-8.638.932-1.655 1.968-4.035 3.107-7.035zM327.656 47.393c-.207-1.141-.466-2.541-.674-4.2a436.895 436.895 0 0 0-.777-5.6c-.104-1.245-.208-2.178-.363-2.697-.26-.518-.57-.777-.881-.777h-.622c-.778.051-1.14.414-1.14 1.088 0 .415.103 1.297.414 2.749.156 1.244.311 2.54.518 3.888.104.675.208 1.504.26 2.541.103 1.4.414 2.54.88 3.474.104.26.208.467.415.674.26.311.57.467.882.467.207 0 .414-.104.673-.26.26-.207.415-.621.415-1.347zM351.862 9.28c-.103-1.97-.155-3.318-.259-4.044-.104-.674-.311-1.037-.57-1.037-1.659 0-3.577.311-5.754.933-.051 1.037-.103 2.282-.207 3.837-.104 1.141-.155 2.126-.207 2.956 1.244-.622 3.213-1.4 5.805-2.333a5.06 5.06 0 0 1 1.192-.312zm-7.1 4.77c-.053.364-.053.675-.053.882v3.474c.778-.207 1.4-.363 1.918-.57 1.192-.311 2.644-.778 4.406-1.4.415-.104.726-.207.933-.311 0-2.022-.052-3.733-.052-5.185-1.348.622-3.058 1.4-5.235 2.333-.985.415-1.607.674-1.918.778zm-.105 6.482v.674c0 1.66.052 3.267.052 4.823.311-.052.674-.104 1.037-.208 2.332-.726 4.406-1.659 6.22-2.8v-5.237c-.674.415-1.348.726-2.073 1.037-1.763.726-3.318 1.245-4.665 1.556-.26.103-.467.155-.57.155zm-2.125 5.911c-.052-.103-.052-.259-.052-.363-.103-1.192-.155-2.851-.155-4.925 0-2.49 0-4.719.052-6.793s.103-4.304.207-6.74c0-1.193.052-2.49.052-3.838-.052-.207-.104-.415-.104-.726-.052-.155-.052-.31-.052-.466 0-.26.156-.467.415-.674.311-.312.622-.467 1.037-.467.414 0 .83.26 1.14.726.104.259.156.466.207.674 1.71-.622 3.629-.933 5.806-.985h1.088c.519.103.985.57 1.296 1.503.207.778.415 2.023.57 3.734.052 1.348.104 2.955.208 4.822.103 3.785.207 8.089.31 12.86 0 .466-.155.88-.414 1.244-.363.414-.778.622-1.244.622-.622 0-.933-.26-.933-.882v-.414c-1.451.933-3.317 1.814-5.65 2.748-1.244.415-2.332.622-3.37.674-.414 0-.777-.104-.984-.415-.26-.26-.415-.57-.415-.933 0-.519.208-.83.674-.934.104 0 .208 0 .311-.052zm-11.507-11.303c0 8.089-.052 13.326-.052 15.71-.051 1.142-.466 1.66-1.192 1.66-2.073 0-3.835-.881-5.235-2.748-.207-.26-.31-.57-.415-.882 0-.674.311-1.037.933-1.088 1.193.363 2.488.933 3.836 1.659 0-1.711-.052-3.526-.052-5.393 0-3.422-.052-6.689-.155-9.903-.415.933-.881 1.814-1.348 2.748-.83 1.71-1.918 3.37-3.162 5.03a33.22 33.22 0 0 1-3.524 3.94c-.208.156-.363.207-.467.207a1.351 1.351 0 0 1-.57.156c-.415 0-.622-.26-.622-.674 0-.26.104-.519.415-.778 1.503-1.555 2.954-3.474 4.302-5.704a35.92 35.92 0 0 0 2.954-5.807c.519-1.4 1.037-2.852 1.452-4.355-1.659.57-3.162 1.088-4.562 1.503-.622.208-1.088.311-1.347.311-.519.052-.933.052-1.348.052-.674 0-1.037-.518-1.14-1.452 0-.414.31-.777.933-1.089.414-.207.933-.363 1.555-.518 2.073-.467 4.094-1.037 6.064-1.763a31.416 31.416 0 0 0-.622-3.319c-.104-.674-.155-1.14-.155-1.451.103-.778.57-1.193 1.451-1.193.57.052 1.037.467 1.348 1.193.103.622.259 1.296.414 1.97 0 .674.052 1.296.104 1.918 2.643-.83 4.769-1.607 6.375-2.333.311 0 .519.104.674.311 0 .104.052.208.052.415 0 .311-.155.622-.415.933-.933 1.037-3.161 2.178-6.582 3.474 0 1.141.051 2.282.103 3.423 1.348 1.348 3.421 4.303 6.117 8.97.673 1.245 1.088 2.385 1.192 3.37 0 .57-.26.83-.674.83-.26 0-.518-.155-.83-.467-.621-.83-1.45-2.074-2.384-3.733a110.256 110.256 0 0 0-3.42-5.133zm28.768 16.385c-.881 1.348-3.421 3.111-7.568 5.185-.466.26-.933.467-1.4.57 1.763.726 3.059 1.556 3.836 2.386.674.726 1.037 1.348 1.037 1.97 0 1.97-.83 3.474-2.436 4.511-1.555.933-3.421 1.4-5.65 1.504-2.592-.104-4.976-.933-7.153-2.54-2.073-1.453-3.836-3.527-5.235-6.327a1.402 1.402 0 0 1-.26-.83c0-.207.052-.466.26-.725.207-.363.57-.57 1.036-.623.415 0 .83.208 1.193.57 2.85 4.771 6.271 7.312 10.263 7.623 3.628 0 5.546-1.193 5.65-3.578 0-.674-.519-1.348-1.452-2.022-.777-.467-1.659-.881-2.695-1.296-.104 0-.156.052-.208.052-.984.363-1.71.518-2.177.518-.622 0-.984-.415-1.14-1.244l-.052-.519c0-.415.208-.778.726-.985.622-.156 1.607-.467 2.85-.882 2.489-.933 4.666-1.97 6.48-3.11l2.799-1.712c.207-.103.466-.155.674-.155.518.052.829.363.829.881 0 .311-.104.57-.207.778zM409 28.896c0-5.247-1.335-9.61-4.005-13.09-.514-.624-1.079-.988-1.592-.988-.514 0-.925.208-1.335.624-.411.415-.617.83-.617 1.35 0 1.04.514 2.182 1.644 3.429.821.727 1.437 1.87 1.95 3.532.412 1.455.617 2.857.617 4.156 0 1.714-.205 3.48-.616 5.247-.257 1.09-.36 1.818-.36 2.234 0 1.298.617 1.922 1.85 1.922 1.642 0 2.464-2.806 2.464-8.416zm-25.214 6.961c0-1.247-.513-1.87-1.54-1.87-.565 0-1.232.52-2.003 1.455-.975 1.194-1.848 1.766-2.67 1.766-2.054 0-3.03-4.935-3.03-14.91 0-2.077-.051-3.792-.051-5.038-.051-1.403-.154-2.338-.308-2.857-.257-.935-.668-1.403-1.284-1.403-1.284 0-1.9.675-1.9 1.922.051.572.103.987.103 1.247.205 2.545.308 4.831.308 6.857 0 4.727.257 8.416.77 11.065.924 4.623 2.568 6.909 5.033 6.909 1.95 0 3.954-1.143 5.956-3.48.411-.468.616-1.04.616-1.663zM166.86 8.656c-.052.309-.157.72-.261 1.338-1.046 4.428-1.516 7.98-1.516 10.607 0 .206.052 1.338.157 3.5-.105 1.134-.575 1.7-1.463 1.7-.94 0-1.516-.618-1.62-1.905a23.324 23.324 0 0 1-.157-2.574c0-1.7.314-4.634.993-8.856-.105-.721-.157-1.236-.157-1.545 0-1.493.261-2.471.784-2.986.523-.618 1.15-.978 1.829-.978.94 0 1.41.566 1.41 1.699zM184 12.723c0 5.097-.836 10.298-2.404 15.652-2.404 7.93-6.375 14.726-11.914 20.492-.732.721-1.359 1.133-1.934 1.133-1.045 0-1.567-.566-1.567-1.7 0-.411.209-.823.627-1.132 3.658-3.45 6.688-7.671 9.144-12.717 1.673-3.501 2.927-6.848 3.71-10.04.732-3.295 1.15-7.106 1.15-11.327 0-1.133-.26-2.163-.679-3.141-.366-.824-.523-1.493-.523-2.008 0-.876.157-1.596.47-2.163.314-.515.785-.772 1.412-.772.836 0 1.358.412 1.62 1.236.574 1.905.888 4.067.888 6.487zM35 11.831c0 .883-.467 1.299-1.296 1.299-.83 0-1.608-.78-2.282-2.442-.83-1.143-1.244-2.026-1.244-2.545 0-.26.103-.52.415-.727.259-.26.57-.416.933-.416.674 0 1.4.831 2.178 2.39l.985 1.298c.207.416.311.831.311 1.143zm-3.63 2.234c0 .935-.466 1.35-1.4 1.35-.259 0-.83-.311-1.659-1.038-.415-.364-1.037-.883-1.815-1.559-.31-.052-.466-.104-.57-.104-1.037 0-1.556-.675-1.556-2.13 0-1.142.415-1.766 1.349-1.766.518 0 2.23 1.455 5.185 4.312.31.26.466.571.466.935zm-6.74 5.039c0 5.506-2.956 11.74-8.763 18.805-2.697 3.169-5.237 5.559-7.674 7.22C6.326 46.378 4.459 47 2.489 47c-.415 0-.933-.26-1.556-.675C.311 45.805 0 45.39 0 45.078c0-1.35.57-2.026 1.815-2.026 0 0 .155.104.466.26.26.207.467.311.623.311 1.503 0 3.63-1.194 6.326-3.584 2.644-2.338 5.237-5.403 7.777-9.195 2.956-4.52 4.46-8.26 4.46-11.22 0-2.39-1.037-3.585-3.06-3.585-3.214 0-6.688.727-10.422 2.078-1.192 1.35-2.489 1.974-3.837 1.974-1.763 0-2.592-.623-2.592-1.922 0-.624.414-1.091 1.296-1.507 5.911-2.701 10.992-4.104 15.192-4.104 2.075 0 3.682.676 4.875 1.923 1.14 1.246 1.71 2.753 1.71 4.623zM73 32.421c0-.947-.52-1.474-1.508-1.474-.728 0-1.196.316-1.456.842a18.761 18.761 0 0 1-4.213 4.422c-2.028 1.526-3.848 2.263-5.408 2.263-1.613 0-2.393-1.263-2.393-3.79 0-2.526 1.092-8.158 3.38-16.895.157-.684.26-1.105.26-1.263 0-1-.52-1.526-1.507-1.526-.833 0-1.405.526-1.613 1.474-1.04 4.158-1.716 7.052-2.08 8.737-1.04 4.894-1.508 8.21-1.508 9.894 0 1.895.468 3.421 1.404 4.684 1.04 1.422 2.392 2.106 4.16 2.106 1.769 0 3.745-.684 5.93-2.106 1.871-1.263 3.588-2.736 5.044-4.526C72.48 34.105 73 33.158 73 32.421zM49.65 21.316c0-1.895-.209-3.474-.52-4.737-.26-.895-.78-1.368-1.56-1.368-1.197 0-1.77 1.157-1.77 3.473 0 .632.157 1.58.469 2.842 0 .895.052 1.474.104 1.79a40.484 40.484 0 0 1-3.276 9.631c-.937 1.895-2.393 4.421-4.369 7.58a2.096 2.096 0 0 0-.364.63c-.26.422-.364.79-.364 1.211 0 .421.156.79.468 1.106.312.368.624.526.936.526.572 0 1.196-.474 1.82-1.421 5.617-8.947 8.425-16 8.425-21.263zM108 25.516c0-.879-.41-1.593-1.231-2.197-.671-.44-1.343-.715-1.977-.715-.15 0-.336.055-.56.11-.298.055-.485.055-.596.055-.15 0-.71-.055-1.716-.165-3.432-.384-6.678-.604-9.7-.604-6.825 0-10.22.824-10.22 2.473 0 .714.224 1.318.671 1.813.41.494.858.714 1.38.714 1.493 0 2.65-.33 3.544-1.044 2.127-.33 4.066-.55 5.82-.55.895 0 3.58.22 8.057.605 1.492.11 2.649.22 3.432.275a52.8 52.8 0 0 0 2.313.22c.522 0 .783-.33.783-.99zM151.11 17.05c0 .824-.473 1.185-1.314 1.185-.841 0-1.63-.824-2.365-2.473-.84-1.134-1.261-1.958-1.261-2.525 0-.206.157-.516.473-.825.262-.257.578-.412.893-.412.736 0 1.472.824 2.312 2.422l.946 1.391c.21.258.316.67.316 1.237zm-3.732 2.216c0 .876-.473 1.288-1.366 1.288-.526 0-1.104-.31-1.84-1.03-.472-.413-1.05-.928-1.786-1.547-.21-.051-.368-.103-.578-.103-.526 0-.946-.206-1.261-.67a2.4 2.4 0 0 1-.526-1.545c0-1.134.473-1.7 1.524-1.7.578 0 2.365 1.442 5.413 4.225.263.257.42.618.42 1.082zM154 41.939c0 .412-.21.824-.63 1.288-.579.515-1.157.773-1.682.773-1.997 0-4.415-2.422-7.147-7.266a97.327 97.327 0 0 0-5.413-8.296c-3.416-4.638-6.464-6.957-9.092-6.957-2.838 0-5.413 2.113-7.778 6.236-.42.67-.998.979-1.734.979-1.051 0-1.524-.619-1.524-1.958 0-.413.263-1.031.84-1.856 3.364-4.689 6.728-7.06 9.986-7.06 3.941 0 8.198 3.144 12.77 9.43 1.156 1.701 2.89 4.38 5.15 8.04 1.209 2.01 2.365 3.607 3.416 4.843.526-.051.894-.103 1.104-.103 1.156 0 1.734.67 1.734 1.907z"/>
    </g>
</svg>
