<svg xmlns="http://www.w3.org/2000/svg" width="218" height="23" viewBox="0 0 218 23">
  <path fill="#503A12" fill-rule="evenodd" stroke="#503A12" d="M181.602387,96.5304264 C181.602387,94.5373979 181.08933,92.8798297 180.063216,91.5577217 C179.865887,91.3209263 179.648824,91.1827956 179.451495,91.1827956 C179.254165,91.1827956 179.096301,91.2617274 178.938438,91.4195911 C178.780574,91.5774547 178.701642,91.7353183 178.701642,91.9326479 C178.701642,92.327307 178.898972,92.761432 179.333097,93.2350229 C179.648824,93.5112843 179.88562,93.9454093 180.082949,94.5768638 C180.240813,95.1293866 180.319745,95.6621764 180.319745,96.1555002 C180.319745,96.8066878 180.240813,97.4776082 180.082949,98.1485287 C179.984284,98.5629207 179.944818,98.8391821 179.944818,98.9970458 C179.944818,99.4903696 180.181614,99.7271651 180.655205,99.7271651 C181.286659,99.7271651 181.602387,98.6615855 181.602387,96.5304264 Z M171.913506,99.1746423 C171.913506,98.7010514 171.716176,98.464256 171.321517,98.464256 C171.104455,98.464256 170.847926,98.6615855 170.551932,99.0167787 C170.177006,99.4706367 169.841546,99.6876992 169.525818,99.6876992 C168.7365,99.6876992 168.361574,97.8130685 168.361574,94.0243411 C168.361574,93.2350229 168.341841,92.5838354 168.341841,92.1102445 C168.322108,91.5774547 168.282642,91.2222615 168.223443,91.024932 C168.124778,90.6697388 167.966915,90.4921422 167.730119,90.4921422 C167.236795,90.4921422 167,90.7486706 167,91.2222615 C167.019733,91.439324 167.039466,91.5971877 167.039466,91.6958524 C167.118398,92.6627672 167.157864,93.5310172 167.157864,94.3006025 C167.157864,96.0963014 167.256528,97.4973412 167.453858,98.5037219 C167.809051,100.259955 168.440506,101.128205 169.387688,101.128205 C170.13754,101.128205 170.907125,100.69408 171.67671,99.8060969 C171.834574,99.6285003 171.913506,99.4114378 171.913506,99.1746423 Z M202.008056,85.2431762 C202.008056,85.4997046 201.889658,85.6773012 201.672596,85.756233 C201.534465,85.756233 201.238471,85.6575682 200.784613,85.4405057 C200.192624,85.2037103 199.857164,85.0853125 199.738766,85.0458466 C199.482238,85.0063807 199.36384,84.8485171 199.36384,84.5722557 C199.36384,84.1973295 199.501971,84 199.817698,84 C200.153158,84 200.587283,84.1183977 201.10034,84.3551932 C201.692329,84.6511875 202.008056,84.9471818 202.008056,85.2431762 Z M200.23209,86.6639489 C200.23209,86.8020796 200.172891,86.9204773 200.054493,87.0191421 C199.936096,87.1572728 199.837431,87.2164717 199.738766,87.2164717 C199.620368,87.2164717 199.482238,87.1770057 199.344107,87.078341 C198.633721,86.5652841 198.29826,86.1311591 198.29826,85.7759659 C198.29826,85.4997046 198.436391,85.3418409 198.752118,85.3418409 C198.909982,85.3418409 199.087579,85.4405057 199.245442,85.5983693 C199.56117,85.9338296 199.797965,86.1508921 199.955829,86.2495569 C200.133425,86.3679546 200.23209,86.5060853 200.23209,86.6639489 Z M199.6993,88.4596478 C199.6993,88.814841 199.56117,89.0319035 199.284908,89.0911024 C198.179863,89.3870967 196.305232,89.6436251 193.641283,89.8606876 C193.641283,90.6302729 193.601817,91.5182558 193.562351,92.5443695 C194.312204,93.1166252 194.706863,94.2808695 194.706863,96.0371025 C194.706863,97.7341366 194.174073,100.042892 193.108493,103.002836 C192.990096,103.318563 192.851965,103.732955 192.654635,104.246012 C192.457306,104.759069 192.22051,105.03533 191.904783,105.03533 C191.510124,105.03533 191.312794,104.798535 191.312794,104.364409 C191.470658,103.910552 191.746919,103.180432 192.141578,102.154319 C193.108493,99.6679662 193.601817,97.6157389 193.601817,95.9976366 C193.601817,95.2477843 193.522885,94.6557957 193.365022,94.1822047 C193.049294,96.1160343 192.496772,97.0829491 191.667988,97.0829491 C191.154931,97.0829491 190.720806,96.8461537 190.326147,96.3330968 C189.931488,95.8595059 189.734158,95.2083184 189.734158,94.3992673 C189.734158,93.5704831 189.990686,92.9587615 190.523476,92.5246365 C190.918135,92.2089093 191.371993,92.0313127 191.924516,92.0313127 C192.062647,92.0313127 192.240243,92.0510456 192.457306,92.0707786 L192.477039,89.9593524 L186.34009,90.4526763 C185.945431,90.4329433 185.748101,90.2356138 185.748101,89.8409547 C185.748101,89.4462956 185.945431,89.2292331 186.379556,89.1700342 C186.912345,89.1305683 188.94484,88.9727046 192.457306,88.6964433 C192.41784,88.1833864 192.358641,87.5321989 192.319175,86.7034148 C192.319175,86.1311591 192.516505,85.8351648 192.891431,85.8351648 C193.305823,85.8351648 193.522885,86.0522273 193.542618,86.4468864 L193.62155,88.5977785 C194.68713,88.5188467 195.673777,88.4201819 196.581493,88.3215171 C196.680158,88.0847217 196.818289,87.9071251 196.976152,87.8281933 C197.114283,87.7492614 197.370812,87.7097955 197.726005,87.7097955 C198.396925,87.7097955 198.870516,87.7492614 199.146777,87.8281933 C199.501971,87.946591 199.6993,88.1439205 199.6993,88.4596478 Z M193.373991,93.0968922 C193.216128,93.0771593 193.117463,93.0574263 193.058264,93.0574263 C192.703071,93.0574263 192.367611,93.21529 192.051883,93.5112843 C191.736156,93.8270116 191.598025,94.1624718 191.598025,94.5373979 C191.598025,94.8728582 191.676957,95.1885854 191.874287,95.4845798 C192.03215,95.8003071 192.249213,95.9384377 192.525474,95.9384377 C192.999065,95.9384377 193.275326,94.9912559 193.373991,93.0968922 Z M215.864178,97.2802787 C215.864178,97.4184094 215.804979,97.55654 215.686582,97.6749378 C215.548451,97.8328014 215.41032,97.9117332 215.252457,97.9117332 C215.134059,97.9117332 214.838064,97.6946707 214.384207,97.2605457 C213.752752,98.1682616 213.377826,98.6813185 213.239695,98.8391821 C212.489843,99.6876992 211.976786,100.102091 211.661059,100.102091 C211.2664,100.102091 211.088803,99.9047617 211.088803,99.5101026 C211.088803,99.332506 211.2664,98.9970458 211.621593,98.4839889 C211.739991,98.2866594 211.917587,98.1879946 212.154383,98.1879946 C212.47011,97.8328014 212.825303,97.3394775 213.219962,96.708023 C212.825303,96.5501593 212.27278,96.3528298 211.542661,96.0963014 C208.99711,98.9773128 206.747553,100.417819 204.774257,100.417819 C204.103337,100.417819 203.570547,100.259955 203.175888,99.9244946 C202.72203,99.5693014 202.504968,99.0759776 202.504968,98.4247901 C202.504968,97.7538696 202.840428,97.0237503 203.550814,96.254165 C204.636127,95.0701877 206.39236,94.4781991 208.79978,94.4781991 C209.549633,94.4781991 210.299485,94.5768638 211.06907,94.7347275 C212.016252,93.3139547 212.489843,92.1891763 212.489843,91.3406592 C212.489843,90.6697388 212.27278,90.1566819 211.838655,89.8014888 C211.463729,89.4857615 210.970405,89.3081649 210.358684,89.3081649 C209.746962,89.3081649 209.115508,89.4660285 208.444587,89.7422899 C208.148593,89.8606876 207.911797,89.9198865 207.734201,89.9198865 C207.615803,89.9198865 207.517138,89.8804206 207.438206,89.7817558 C207.339542,89.683091 207.300076,89.5646933 207.300076,89.4462956 C207.300076,89.0516365 207.576337,88.7359092 208.148593,88.5385796 C209.056309,88.2228524 209.86536,88.0452558 210.53628,88.0452558 C211.384797,88.0452558 212.114917,88.3412501 212.726638,88.8937728 C213.318627,89.4857615 213.634354,90.2356138 213.634354,91.1038638 C213.634354,92.2089093 213.180496,93.5310172 212.312246,95.0701877 C212.845036,95.2280514 213.377826,95.4253809 213.930349,95.7016423 L214.364474,94.8333923 C214.482871,94.5768638 214.680201,94.4387332 214.995928,94.4387332 C215.351121,94.4387332 215.548451,94.6755286 215.548451,95.1293866 C215.548451,95.3069832 215.351121,95.7016423 214.976195,96.3133639 C215.331388,96.5896252 215.568184,96.7869548 215.686582,96.9053525 C215.804979,97.0237503 215.864178,97.1618809 215.864178,97.2802787 Z M210.279752,95.8003071 C209.608831,95.7213752 209.214172,95.6819093 209.076042,95.6819093 C206.589689,95.6819093 204.872922,96.3133639 203.965206,97.55654 C203.708678,97.8920003 203.59028,98.1879946 203.59028,98.464256 C203.59028,98.9378469 203.984939,99.1746423 204.79399,99.1746423 C205.287314,99.1746423 205.760905,99.0759776 206.234496,98.878648 C207.418473,98.3655912 208.780047,97.3394775 210.279752,95.8003071 Z M234.811403,88.2425853 C234.811403,88.3215171 234.752204,88.4201819 234.673272,88.5188467 C234.554874,88.6372444 234.456209,88.6964433 234.357545,88.6964433 C234.160215,88.6964433 233.92342,88.4596478 233.647158,87.9663239 C233.370897,87.492733 233.232766,87.1572728 233.232766,86.9599432 C233.232766,86.6047501 233.39063,86.4271535 233.706357,86.4271535 C233.943153,86.4271535 234.101016,86.5455512 234.199681,86.7626137 C234.239147,86.9204773 234.337812,87.1572728 234.495675,87.4730001 C234.693005,87.8281933 234.811403,88.0847217 234.811403,88.2425853 Z M233.39063,89.0121706 C233.39063,89.3673637 233.213033,89.5449603 232.897306,89.5449603 C232.660511,89.5449603 232.265851,89.2292331 231.733062,88.5977785 C231.220005,87.9663239 230.963476,87.5716648 230.963476,87.3743353 C230.963476,87.058608 231.12134,86.8810114 231.437067,86.8810114 C231.673863,86.8810114 231.851459,86.9796762 231.98959,87.1572728 C232.384249,87.7689944 232.798641,88.2820512 233.252499,88.6767103 C233.331431,88.7556421 233.39063,88.8740399 233.39063,89.0121706 Z M230.746414,88.6767103 C230.746414,88.2425853 230.529351,88.0255228 230.095226,87.9860569 C229.740033,88.2031194 229.463772,88.380716 229.246709,88.5188467 C228.477124,89.0319035 227.174749,89.3673637 225.319851,89.5646933 C224.727863,88.5188467 224.392402,87.926858 224.293738,87.7689944 C224.135874,87.5321989 223.958277,87.4138012 223.760948,87.4138012 C223.386022,87.4138012 223.208425,87.6505967 223.208425,88.1044546 C223.208425,88.2623183 223.464954,88.7753751 223.997743,89.6436251 C223.603084,89.6436251 223.050562,89.6041592 222.300709,89.5646933 C221.629789,89.5449603 221.294329,89.5252274 221.274596,89.5252274 C220.879937,89.5252274 220.70234,89.7422899 220.70234,90.1764149 C220.70234,90.571074 220.939135,90.8078695 221.412726,90.8473354 C221.886317,90.8868013 222.359908,90.9065342 222.872965,90.9065342 C223.247891,90.9065342 223.83988,90.9065342 224.668664,90.8868013 C225.24092,91.9523808 225.694778,92.7022331 226.010505,93.1560911 C226.701158,94.2216707 227.194482,94.7347275 227.510209,94.7347275 C227.904868,94.7347275 228.102198,94.5571309 228.102198,94.1624718 C228.102198,93.9651422 228.042999,93.8072786 227.924601,93.649415 C227.31288,92.9390286 226.681425,92.0115797 226.010505,90.8276024 C227.352346,90.5908069 228.457391,90.2750797 229.286175,89.8804206 C230.25309,89.4068297 230.746414,89.0121706 230.746414,88.6767103 Z M228.773118,101.049273 C228.773118,100.634881 228.575789,100.417819 228.18113,100.417819 C228.023266,100.417819 227.84567,100.536216 227.668073,100.753279 C227.490476,100.812478 227.332613,100.832211 227.214215,100.832211 C226.720891,100.832211 226.148635,100.654614 225.517181,100.299421 C224.925192,99.9836935 224.392402,99.6087674 223.918812,99.1746423 C223.208425,98.5826537 222.853232,98.0498639 222.853232,97.576273 C222.853232,97.2013469 223.247891,96.8658866 224.037209,96.5501593 C224.274005,96.4712275 224.392402,96.2146991 224.392402,95.7411082 C224.392402,95.7016423 224.333204,95.6029775 224.214806,95.4648468 C224.096408,95.3464491 223.97801,95.2872502 223.879346,95.2872502 C223.64255,95.2872502 223.208425,95.5043127 222.616437,95.8989718 C222.004715,96.2936309 221.708721,96.8461537 221.708721,97.576273 C221.708721,98.4050571 222.182312,99.2535742 223.129493,100.16129 C223.682016,100.713813 224.333204,101.167671 225.083056,101.522864 C225.852641,101.89779 226.58276,102.09512 227.273414,102.09512 C227.64834,102.09512 227.9838,101.996455 228.299528,101.818858 C228.615255,101.621529 228.773118,101.365 228.773118,101.049273 Z M247.768778,91.6958524 C247.768778,91.9523808 247.591182,92.1891763 247.275455,92.4259718 C247.275455,92.4457047 246.999193,92.5838354 246.44667,92.8600968 C246.328273,92.9390286 246.229608,92.9587615 246.130943,92.9587615 C246.032278,92.9587615 245.913881,92.9192956 245.77575,92.8008979 L244.216847,93.3928865 C244.650972,94.2808695 245.065364,95.0504548 245.460023,95.7016423 C245.677085,96.0963014 245.795483,96.3528298 245.795483,96.4712275 C245.795483,96.9053525 245.57842,97.122415 245.183761,97.122415 C245.006165,97.122415 244.828568,97.0040173 244.650972,96.7277559 C244.414176,96.3922957 243.881386,95.4451139 243.092068,93.8664775 C240.724114,94.8136593 239.16521,95.2675173 238.415358,95.2675173 C238.040432,95.2675173 237.862835,95.0504548 237.862835,94.5768638 C237.862835,94.3006025 238.020699,94.1032729 238.336426,93.9651422 C239.421739,93.7875456 240.862244,93.3534206 242.63821,92.6825002 C242.322483,91.9129149 242.006756,91.0446649 241.710761,90.0580172 C241.177972,90.2948126 240.585983,90.551341 239.954528,90.8078695 L239.204676,91.1038638 C239.046812,91.1235967 238.928415,91.1235967 238.869216,91.1235967 C238.514023,91.0643979 238.356159,90.8670683 238.356159,90.5118751 C238.356159,90.2356138 238.514023,90.0185513 238.869216,89.8606876 C239.263875,89.683091 240.092659,89.3278978 241.395034,88.814841 C241.138506,87.7492614 241.020108,87.0980739 241.020108,86.8415455 C241.020108,86.4863523 241.23717,86.3087557 241.671295,86.3087557 C241.947557,86.3087557 242.125153,86.4666194 242.184352,86.7428807 C242.204085,86.9007444 242.283017,87.3940682 242.401415,88.1833864 L242.440881,88.4201819 C243.585392,88.0255228 244.473375,87.8084603 245.085097,87.8084603 C245.558688,87.8084603 245.992813,87.9071251 246.367739,88.0847217 C246.722932,88.2820512 246.920261,88.5385796 246.920261,88.8543069 C246.920261,89.2884319 246.782131,89.4857615 246.505869,89.4857615 C246.229608,89.4857615 245.97308,89.3870967 245.736284,89.1503012 C245.44029,89.1108353 245.24296,89.0911024 245.124562,89.0911024 C244.650972,89.0911024 243.881386,89.268699 242.796074,89.5844262 C243.032869,90.3737444 243.328864,91.2617274 243.723523,92.2681081 C245.657352,91.4787899 246.821597,91.0841308 247.255722,91.0841308 C247.591182,91.0841308 247.768778,91.3011933 247.768778,91.6958524 Z M247.078125,101.404466 C247.078125,101.799125 246.801864,102.09512 246.269074,102.312182 C245.795483,102.489779 245.262693,102.588444 244.631239,102.588444 C243.605125,102.588444 242.63821,102.272716 241.76996,101.680728 C240.822778,101.049273 240.349187,100.319154 240.349187,99.4509037 C240.349187,98.7010514 240.605716,98.0893298 241.118773,97.596006 C241.493699,97.2408128 241.750227,97.0632162 241.908091,97.0632162 C242.322483,97.0632162 242.539545,97.2802787 242.539545,97.6946707 C242.539545,97.9709321 242.381682,98.2077276 242.10542,98.3853241 C241.710761,98.6221196 241.513432,98.9575798 241.513432,99.3522389 C241.513432,99.8258299 241.829159,100.279688 242.480347,100.69408 C243.151267,101.088739 243.84192,101.305801 244.552307,101.305801 C245.223227,101.305801 245.795483,101.147938 246.269074,100.871676 C246.348006,100.832211 246.466403,100.792745 246.604534,100.792745 C246.920261,100.792745 247.078125,100.990074 247.078125,101.404466 Z M266.027143,88.2425853 C266.027143,88.5780455 265.849547,88.7359092 265.53382,88.7359092 C265.218092,88.7359092 264.922098,88.4399149 264.66557,87.8084603 C264.349842,87.3743353 264.191979,87.0388751 264.191979,86.8415455 C264.191979,86.7428807 264.231445,86.644216 264.349842,86.5652841 C264.448507,86.4666194 264.566905,86.4074205 264.705036,86.4074205 C264.961564,86.4074205 265.237825,86.7231478 265.53382,87.3151364 L265.908746,87.8084603 C265.987678,87.9663239 266.027143,88.1241876 266.027143,88.2425853 Z M264.645837,89.0911024 C264.645837,89.4462956 264.46824,89.6041592 264.113047,89.6041592 C264.014382,89.6041592 263.79732,89.4857615 263.481592,89.2095001 C263.323729,89.0713694 263.086933,88.8740399 262.790939,88.6175115 C262.672541,88.5977785 262.613342,88.5780455 262.573876,88.5780455 C262.179217,88.5780455 261.981888,88.3215171 261.981888,87.7689944 C261.981888,87.3348694 262.139751,87.0980739 262.494945,87.0980739 C262.692274,87.0980739 263.343462,87.6505967 264.46824,88.7359092 C264.586638,88.834574 264.645837,88.9529717 264.645837,89.0911024 Z M262.080553,91.005199 C262.080553,93.0968922 260.955774,95.4648468 258.745683,98.1485287 C257.719569,99.3522389 256.752655,100.259955 255.825206,100.891409 C255.114819,101.365 254.404433,101.601796 253.654581,101.601796 C253.496717,101.601796 253.299388,101.503131 253.062592,101.345267 C252.825797,101.147938 252.707399,100.990074 252.707399,100.871676 C252.707399,100.35862 252.924461,100.102091 253.398052,100.102091 C253.398052,100.102091 253.457251,100.141557 253.575649,100.200756 C253.674314,100.279688 253.753246,100.319154 253.812444,100.319154 C254.3847,100.319154 255.193751,99.8652958 256.219865,98.9575798 C257.226246,98.0695969 258.212893,96.9053525 259.179808,95.4648468 C260.304587,93.7480797 260.876842,92.327307 260.876842,91.2025286 C260.876842,90.2948126 260.482183,89.8409547 259.712598,89.8409547 C258.489155,89.8409547 257.167047,90.117216 255.746274,90.6302729 C255.292416,91.1433297 254.799092,91.3801251 254.286035,91.3801251 C253.615115,91.3801251 253.299388,91.1433297 253.299388,90.6500058 C253.299388,90.4132104 253.457251,90.2356138 253.792711,90.0777501 C256.042268,89.0516365 257.976098,88.5188467 259.574467,88.5188467 C260.363785,88.5188467 260.975507,88.7753751 261.429365,89.248966 C261.86349,89.7225569 262.080553,90.2948126 262.080553,91.005199 Z M280.190023,96.0568355 C280.190023,95.7016423 279.992694,95.5043127 279.617768,95.5043127 C279.341506,95.5043127 279.16391,95.6227105 279.065245,95.82004 C278.63112,96.4514946 278.09833,97.0040173 277.466876,97.4776082 C276.69729,98.0498639 276.006637,98.3261253 275.414648,98.3261253 C274.802927,98.3261253 274.506932,97.8525344 274.506932,96.9053525 C274.506932,95.9581707 274.921324,93.8467445 275.789574,90.571074 C275.848773,90.3145456 275.888239,90.1566819 275.888239,90.0974831 C275.888239,89.7225569 275.69091,89.5252274 275.315984,89.5252274 C275.000256,89.5252274 274.783194,89.7225569 274.704262,90.0777501 C274.309603,91.6366536 274.053074,92.7219661 273.914944,93.3534206 C273.520285,95.1885854 273.342688,96.4317616 273.342688,97.0632162 C273.342688,97.7736025 273.520285,98.3458582 273.875478,98.8194492 C274.270137,99.3522389 274.783194,99.6087674 275.454114,99.6087674 C276.125035,99.6087674 276.874887,99.3522389 277.703671,98.8194492 C278.414057,98.3458582 279.065245,97.7933355 279.617768,97.122415 C279.992694,96.68829 280.190023,96.3330968 280.190023,96.0568355 Z M271.329927,91.893182 C271.329927,91.1827956 271.250995,90.5908069 271.132597,90.117216 C271.033932,89.7817558 270.836603,89.6041592 270.540608,89.6041592 C270.08675,89.6041592 269.869688,90.0382842 269.869688,90.9065342 C269.869688,91.1433297 269.928887,91.4985229 270.047285,91.9721138 C270.047285,92.307574 270.067018,92.5246365 270.08675,92.6430343 C269.830222,93.8862104 269.41583,95.0899207 268.843574,96.254165 C268.488381,96.9645514 267.935858,97.9117332 267.186006,99.0957105 C267.107074,99.1943753 267.067608,99.2733071 267.047875,99.332506 C266.949211,99.4903696 266.909745,99.6285003 266.909745,99.7863639 C266.909745,99.9442276 266.968944,100.082358 267.087341,100.200756 C267.205739,100.338887 267.324137,100.398086 267.442535,100.398086 C267.659597,100.398086 267.896392,100.220489 268.133188,99.8652958 C270.264347,96.5106934 271.329927,93.8664775 271.329927,91.893182 Z M296.289296,94.932057 C296.289296,94.6163298 296.116678,94.3598013 295.771442,94.1427388 C295.488977,93.9848752 295.206511,93.8862104 294.939738,93.8862104 C294.876968,93.8862104 294.798505,93.9059434 294.70435,93.9256763 C294.57881,93.9454093 294.500347,93.9454093 294.45327,93.9454093 C294.3905,93.9454093 294.155112,93.9256763 293.731413,93.8862104 C292.2877,93.7480797 290.92245,93.6691479 289.651355,93.6691479 C286.779621,93.6691479 285.351601,93.9651422 285.351601,94.5571309 C285.351601,94.8136593 285.445756,95.0307218 285.634066,95.2083184 C285.806684,95.385915 285.994994,95.4648468 286.21469,95.4648468 C286.842391,95.4648468 287.32886,95.3464491 287.705481,95.0899207 C288.599955,94.9715229 289.415967,94.8925911 290.153516,94.8925911 C290.530136,94.8925911 291.659999,94.9715229 293.543103,95.1096536 C294.170804,95.1491195 294.657273,95.1885854 294.986816,95.2083184 C295.614517,95.2675173 295.94406,95.2872502 295.959753,95.2872502 C296.179448,95.2872502 296.289296,95.1688525 296.289296,94.932057 Z M316.63961,90.0382842 C316.63961,90.3540115 316.462014,90.4921422 316.146286,90.4921422 C315.830559,90.4921422 315.534565,90.1764149 315.258303,89.5449603 C314.942576,89.1108353 314.784712,88.795108 314.784712,88.5780455 C314.784712,88.4991137 314.843911,88.380716 314.962309,88.2623183 C315.060974,88.1636535 315.179372,88.1044546 315.297769,88.1044546 C315.574031,88.1044546 315.850292,88.4201819 316.166019,89.0319035 L316.521212,89.5646933 C316.600144,89.6633581 316.63961,89.8212217 316.63961,90.0382842 Z M315.23857,90.8868013 C315.23857,91.2222615 315.060974,91.3801251 314.725514,91.3801251 C314.528184,91.3801251 314.311121,91.2617274 314.03486,90.985466 C313.857264,90.8276024 313.640201,90.6302729 313.36394,90.3934774 C313.285008,90.3737444 313.225809,90.3540115 313.146877,90.3540115 C312.949548,90.3540115 312.791684,90.2750797 312.673286,90.0974831 C312.535156,89.9198865 312.475957,89.7225569 312.475957,89.5054944 C312.475957,89.0713694 312.653553,88.8543069 313.048212,88.8543069 C313.265275,88.8543069 313.936195,89.4068297 315.080707,90.4724092 C315.179372,90.571074 315.23857,90.7092047 315.23857,90.8868013 Z M314.905929,99.5693014 C314.905929,99.7271651 314.826997,99.8850287 314.669134,100.062625 C314.452071,100.259955 314.235009,100.35862 314.037679,100.35862 C313.287827,100.35862 312.380111,99.4311708 311.353997,97.576273 C310.742276,96.5106934 310.071355,95.4451139 309.321503,94.3992673 C308.038861,92.6233013 306.894349,91.7353183 305.907702,91.7353183 C304.842122,91.7353183 303.875207,92.5443695 302.987224,94.1230059 C302.829361,94.3795343 302.612298,94.497932 302.336037,94.497932 C301.941378,94.497932 301.763781,94.2611366 301.763781,93.7480797 C301.763781,93.5902161 301.862446,93.3534206 302.079508,93.0376934 C303.342418,91.2419945 304.605327,90.3342785 305.82877,90.3342785 C307.308741,90.3342785 308.907111,91.5379888 310.623878,93.9454093 C311.058003,94.5965968 311.70919,95.6227105 312.557708,97.0237503 C313.011565,97.7933355 313.44569,98.4050571 313.84035,98.878648 C314.037679,98.8589151 314.17581,98.8391821 314.254742,98.8391821 C314.688867,98.8391821 314.905929,99.0957105 314.905929,99.5693014 Z M324.704751,89.1108353 C324.685018,89.2292331 324.645552,89.3870967 324.606086,89.6238922 C324.211427,91.3209263 324.03383,92.6825002 324.03383,93.6888809 C324.03383,93.7678127 324.053563,94.2019377 324.093029,95.0307218 C324.053563,95.4648468 323.875967,95.6819093 323.540506,95.6819093 C323.185313,95.6819093 322.968251,95.4451139 322.928785,94.95179 C322.889319,94.5965968 322.869586,94.2611366 322.869586,93.9651422 C322.869586,93.3139547 322.987984,92.1891763 323.244512,90.571074 C323.205046,90.2948126 323.185313,90.0974831 323.185313,89.9790853 C323.185313,89.4068297 323.283978,89.0319035 323.481308,88.834574 C323.678637,88.5977785 323.915433,88.4596478 324.171961,88.4596478 C324.527154,88.4596478 324.704751,88.6767103 324.704751,89.1108353 Z M331.17716,90.6697388 C331.17716,92.6233013 330.861433,94.6163298 330.269444,96.6685571 C329.361728,99.7074321 327.862024,102.312182 325.77033,104.522273 C325.494069,104.798535 325.257274,104.956398 325.040211,104.956398 C324.645552,104.956398 324.448222,104.739336 324.448222,104.305211 C324.448222,104.147347 324.527154,103.989483 324.685018,103.871086 C326.066325,102.548978 327.210836,100.930875 328.138285,98.9970458 C328.769739,97.6552048 329.24333,96.3725627 329.539325,95.1491195 C329.815586,93.8862104 329.97345,92.4259718 329.97345,90.8078695 C329.97345,90.3737444 329.874785,89.9790853 329.716921,89.6041592 C329.578791,89.2884319 329.519592,89.0319035 329.519592,88.834574 C329.519592,88.4991137 329.578791,88.2228524 329.697188,88.0057899 C329.815586,87.8084603 329.993183,87.7097955 330.229978,87.7097955 C330.545705,87.7097955 330.743035,87.8676592 330.8417,88.1833864 C331.058762,88.9135058 331.17716,89.7422899 331.17716,90.6697388 Z M347.397649,94.932057 C347.397649,94.6163298 347.225031,94.3598013 346.879796,94.1427388 C346.59733,93.9848752 346.314865,93.8862104 346.048091,93.8862104 C345.985321,93.8862104 345.906859,93.9059434 345.812703,93.9256763 C345.687163,93.9454093 345.608701,93.9454093 345.561623,93.9454093 C345.498853,93.9454093 345.263465,93.9256763 344.839766,93.8862104 C343.396053,93.7480797 342.030803,93.6691479 340.759708,93.6691479 C337.887974,93.6691479 336.459954,93.9651422 336.459954,94.5571309 C336.459954,94.8136593 336.554109,95.0307218 336.74242,95.2083184 C336.915037,95.385915 337.103348,95.4648468 337.323043,95.4648468 C337.950745,95.4648468 338.437213,95.3464491 338.813834,95.0899207 C339.708308,94.9715229 340.52432,94.8925911 341.261869,94.8925911 C341.63849,94.8925911 342.768352,94.9715229 344.651456,95.1096536 C345.279157,95.1491195 345.765626,95.1885854 346.095169,95.2083184 C346.72287,95.2675173 347.052414,95.2872502 347.068106,95.2872502 C347.287802,95.2872502 347.397649,95.1688525 347.397649,94.932057 Z M363.597892,93.4323525 C363.597892,94.8531252 363.065103,96.3922957 362.038989,98.0695969 C360.973409,99.746898 359.828898,100.851944 358.585722,101.365 C358.427858,101.424199 358.30946,101.463665 358.210796,101.463665 C357.855603,101.463665 357.678006,101.22687 357.678006,100.753279 C357.678006,100.516483 357.914801,100.200756 358.408125,99.7863639 C358.565989,99.6679662 358.802784,99.6087674 359.079046,99.6087674 C360.006495,98.7997162 360.77608,97.8920003 361.407534,96.8658866 C362.137654,95.6819093 362.51258,94.5373979 362.51258,93.4323525 C362.51258,92.7219661 362.216586,92.1694433 361.624597,91.7747842 C361.151006,91.459057 360.559017,91.2814604 359.848631,91.2419945 C359.098779,93.4126195 358.131864,95.3267161 356.928154,96.9842843 C356.138835,98.0695969 355.349517,98.6023867 354.560199,98.6023867 C353.96821,98.6023867 353.494619,98.3261253 353.119693,97.7341366 C352.725034,97.142148 352.547438,96.5106934 352.547438,95.82004 C352.547438,94.517665 353.494619,93.195557 355.388983,91.8142502 C357.066284,90.6302729 358.526523,90.0185513 359.749966,90.0185513 C360.855012,90.0185513 361.762728,90.2948126 362.453381,90.8473354 C363.203233,91.459057 363.597892,92.327307 363.597892,93.4323525 Z M358.644921,91.4195911 C357.500409,91.7747842 356.415097,92.3667729 355.388983,93.2350229 C354.205006,94.2019377 353.63275,95.1096536 353.63275,95.9581707 C353.63275,96.2344321 353.731415,96.5501593 353.928744,96.8856196 C354.126074,97.2408128 354.343137,97.3986764 354.599665,97.3986764 C355.250852,97.3986764 356.198034,96.3133639 357.460943,94.1032729 C357.816137,93.4718184 358.210796,92.5641024 358.644921,91.4195911 Z M383,101.779392 C383,101.522864 382.842136,101.365 382.526409,101.305801 C381.381898,101.266336 379.763795,101.246603 377.711568,101.246603 C377.277443,101.246603 376.843318,101.246603 376.38946,101.266336 C376.409193,101.22687 376.428926,101.167671 376.448659,101.108472 C376.863051,100.437551 377.119579,99.4114378 377.218244,98.030131 C377.277443,97.4776082 377.316909,96.7869548 377.356375,95.9187048 L377.474773,93.2942218 C377.474773,92.8995627 377.494506,92.2878411 377.573437,91.4985229 C377.573437,91.4195911 377.553704,91.3209263 377.533971,91.2222615 C378.757415,90.8868013 379.783528,90.5908069 380.651778,90.3540115 C380.849108,90.2553467 380.947773,90.1566819 380.947773,90.0382842 C380.947773,89.9593524 380.908307,89.8804206 380.829375,89.7620228 C380.73071,89.683091 380.632045,89.6436251 380.553114,89.6238922 C380.040057,89.6238922 379.388869,89.702824 378.599551,89.8606876 C374.98842,90.6894717 372.482335,91.3801251 371.081295,91.9326479 C371.041829,91.6169206 370.98263,91.3011933 370.903699,90.9460001 C370.745835,90.2356138 370.50904,89.6238922 370.232778,89.0911024 L373.44925,86.9994092 C374.100437,86.644216 374.554295,86.3482216 374.791091,86.1114262 C374.968687,85.9930284 375.067352,85.8746307 375.067352,85.756233 C375.067352,85.5786364 375.027886,85.4405057 374.948954,85.3418409 C374.870023,85.2431762 374.751625,85.1839773 374.593761,85.1642443 C374.514829,85.1642443 374.416165,85.2037103 374.297767,85.2826421 C371.811415,86.9796762 370.50904,87.8676592 370.430108,87.946591 C370.272244,88.0649887 370.11438,88.1833864 369.936784,88.3412501 C369.897318,88.380716 369.877585,88.4201819 369.857852,88.4793808 C369.759187,88.360983 369.64079,88.2820512 369.522392,88.2623183 L369.423727,88.2623183 C369.206664,88.2820512 369.048801,88.4201819 368.969869,88.6767103 C369.009335,88.795108 369.048801,88.8937728 369.088267,88.9924376 C369.403994,89.6436251 369.680255,90.3737444 369.897318,91.1827956 C370.173579,92.2483752 370.31171,93.2744888 370.31171,94.2216707 C370.31171,95.5043127 370.291977,96.6488241 370.252511,97.6354719 C370.213045,98.6221196 370.153846,99.6679662 370.074915,100.792745 C370.074915,101.108472 370.213045,101.286069 370.489307,101.286069 C370.765568,101.286069 370.923432,101.108472 370.962897,100.792745 C371.140494,98.9970458 371.239159,96.7672218 371.239159,94.1032729 C371.239159,93.7086138 371.219426,93.2942218 371.17996,92.8600968 C371.495687,92.8206309 372.304738,92.6233013 373.646579,92.2681081 C374.65296,92.0115797 375.600142,91.7550513 376.507858,91.4985229 C376.468392,92.4062388 376.448659,93.2350229 376.448659,94.0243411 L376.428926,96.3528298 L376.231596,98.464256 C376.152665,99.4509037 375.935602,100.338887 375.600142,101.108472 C375.600142,101.167671 375.600142,101.22687 375.619875,101.286069 C374.85029,101.325534 374.060971,101.384733 373.232187,101.463665 C372.127142,101.503131 370.943165,101.621529 369.660522,101.838591 C368.279216,101.996455 367.055772,102.23325 365.990193,102.529245 C365.635,102.608177 365.477136,102.785773 365.477136,103.022569 C365.477136,103.140966 365.536335,103.279097 365.654733,103.417228 C365.753397,103.535625 365.871795,103.594824 365.990193,103.594824 C366.049392,103.594824 366.167789,103.555358 366.345386,103.515892 C367.845091,103.160699 369.542125,102.864705 371.456221,102.627909 C373.666312,102.331915 375.698807,102.193784 377.573437,102.193784 C378.915278,102.193784 379.941392,102.193784 380.691244,102.213517 C381.559494,102.213517 382.171216,102.23325 382.565875,102.272716 C382.842136,102.193784 383,102.016188 383,101.779392 Z" transform="translate(-166 -83)"/>
</svg>
