<svg xmlns="http://www.w3.org/2000/svg" xmlns:xlink="http://www.w3.org/1999/xlink" width="47" height="45" viewBox="0 0 47 45">
    <defs>
        <path id="a" d="M11.34 10.279c1.935-1.292 2.944-.661 5.635-.902.555-.05.303-.58 0-.758-.947-.556-2.072-1.857-2.072-3.612 0-1.754 1.847-4.478 5.207-4.275 3.36.203 3.272 3.54 3.272 4.275 0 .736-.217 3.71-2.109 3.612-.77-.04-.314.752-.175.758 2.328.102 9.45-.037 10.472 0 1.975.07 3.791 1.174 5.182 2.98.928 1.204 1.266 4.528 1.016 9.97l-28.813-.29c-.23-6.625.565-10.545 2.385-11.758z"/>
    </defs>
    <g fill="none" fill-rule="evenodd">
        <path fill="#503A12" d="M9.804 10.898c1.522-1.64 2.66-2.08 5.784-2.358.563-.05-2.031-1.989-1.183-4.581C15.482.667 18.226.199 19.336.184c.993-.014 2.989.125 4.071 1.506 0 .045 3.139-2.605 5.947-1.161 1.3.668 2.839 2.126 3.155 3.712.366 1.84-.998 4.352-1.03 4.299 1.853.1 4.151.928 5.766 3.017 1.077 1.392 1.592 5.211 1.546 11.458l-30.736-.48c0-6.503.584-10.382 1.75-11.637z"/>
        <g>
            <use fill="#FFF" xlink:href="#a"/>
            <path stroke="#503A12" stroke-width=".7" d="M9.294 21.69l28.139.284c.217-5.154-.12-8.316-.958-9.403-1.362-1.769-3.095-2.78-4.918-2.844-.343-.013-.76-.01-3.706.016l-1.821.014c-2.416.016-4.039.01-4.947-.03-.289-.013-.524-.362-.583-.684-.083-.462.23-.802.791-.773 1.175.06 1.741-1.543 1.741-3.263v-.06c.002-.738-.052-1.29-.257-1.899-.396-1.17-1.225-1.878-2.686-1.967-2.731-.165-4.836 1.924-4.836 3.926 0 1.409.828 2.68 1.9 3.31.237.14.436.401.487.662.078.395-.182.706-.634.746-.711.064-1.224.073-2.143.058-.894-.015-1.216-.006-1.635.067-.561.097-1.084.313-1.694.72-1.648 1.1-2.427 4.82-2.24 11.12z"/>
        </g>
        <path fill="#503A12" d="M7.909 22.585c2.403-2.232 3.909-3.806 4.517-4.721.364-.547-.5-3.606 2.267-4.845 1.383-.62 4.391-.9 9.025-.843 4.616-.113 7.576.168 8.882.843 1.958 1.012 1.252 3.274 2.04 4.845.725 1.443 2.079 3.017 4.06 4.72 7.782 5.914 10.012 11.369 6.691 16.363-4.981 7.492-14.304 5.856-22.26 5.856-7.958 0-19.023 1-22.206-6.973-2.122-5.316.206-10.398 6.984-15.245z"/>
        <path fill="#FFF" stroke="#503A12" stroke-width=".7" d="M30.304 8.265c.447-.262 1.621-1.919 1.255-3.587-.453-2.068-2.213-3.417-3.785-3.417s-3.517.802-3.839 1.47c-.196.406.158.754 0 2.526-.158 1.771-1.109 2.346-.425 3.008.684.661 2.542.418 4.057.415 1.417-.004 2.378.005 2.737-.415z"/>
    </g>
</svg>
