<svg xmlns="http://www.w3.org/2000/svg" width="45" height="47" viewBox="0 0 45 47">
    <g fill="none" fill-rule="evenodd">
        <path fill="#503A12" d="M7.242 3.292h3.147c-.356 4.601 1.006 6.904 4.088 6.908 3.08.003 4.46-2.3 4.135-6.908h8.092c-.336 4.605 1.03 6.908 4.1 6.908 3.068 0 4.46-2.303 4.176-6.908h2.685a7.2 7.2 0 0 1 7.2 7.2v29.295a7.2 7.2 0 0 1-7.2 7.2H7.242a7.2 7.2 0 0 1-7.2-7.2V10.492a7.2 7.2 0 0 1 7.2-7.2z"/>
        <path fill="#FFF" d="M1.737 12.902h41.47v27.255a5 5 0 0 1-5 5H6.737a5 5 0 0 1-5-5V12.902z"/>
        <path fill="#503A12" d="M5.673 35.066h5.846v6.059H5.673zM15.236 35.066h5.846v6.059h-5.846zM23.917 35.066h5.846v6.059h-5.846z"/>
        <rect width="4.606" height="8.262" x="12.224" fill="#503A12" rx="2.303"/>
        <rect width="4.606" height="8.262" x="28.524" fill="#503A12" rx="2.303"/>
        <path fill="#503A12" d="M15.236 26.07h5.846v6.059h-5.846zM5.496 26.07h5.846v6.059H5.496zM23.917 16.891h5.846v6.059h-5.846zM33.658 16.891h5.846v6.059h-5.846zM33.658 26.07h5.846v6.059h-5.846zM22.923 29.784l1.397-1.748 1.797 1.524 2.957-4.02 1.644 1.406-4.3 5.815z"/>
    </g>
</svg>
