<svg xmlns="http://www.w3.org/2000/svg" width="45" height="46" viewBox="0 0 45 46">
  <g fill="none" fill-rule="evenodd">
    <path fill="#796CBA" d="M45,24.7253728 C45,36.3494304 34.9264069,45.7725909 22.5,45.7725909 C10.0735931,45.7725909 0,36.3494304 0,24.7253728 C0,15.2508351 6.69244718,7.23847554 15.8965168,4.59917101 C16.1183977,4.25146183 16.2293382,3.93120525 16.2293382,3.63840127 C16.2293382,1.94982233 15.8190719,0.737021906 14.9985394,0 C15.9873182,0.301209926 16.8103197,0.61544838 17.4675441,0.942715361 C18.1247685,1.26998234 18.7249115,1.66440333 19.2679733,2.12597833 C20.0063862,1.45472685 20.5973247,0.984489912 21.0407889,0.715267509 C21.4663218,0.456931006 21.9872396,0.226953997 22.6035423,0.0253364798 C23.30555,0.226738407 23.8353349,0.456809915 24.2715076,0.715267509 C24.725847,0.984489912 25.3312774,1.45472685 26.0877987,2.12597833 C26.6441783,1.66440333 27.2590389,1.26998234 27.9323807,0.942715361 C28.6057224,0.61544838 29.4489068,0.301209926 30.4619339,0 C29.6212791,0.737021906 29.2009516,1.94982233 29.2009516,3.63840127 C29.2009516,3.97516724 29.3448151,4.34824821 29.6325422,4.75764417 C33.6858835,6.02400332 37.2255879,8.34010517 39.8828888,11.360993 C39.9389267,11.3883223 39.995185,11.4157072 40.0516639,11.4431477 C43.1089366,15.0657733 45,19.6889915 45,24.7253728 Z"/>
    <text fill="#FFF" font-family="YuGo-Bold, YuGothic" font-size="9" font-weight="bold">
      <tspan x="13" y="35">TOP</tspan>
    </text>
    <g fill="#FFF" transform="translate(18 14)">
      <polygon points="6.123 1.625 2.887 -1.629 2.887 -.362 5.511 2.257 2.887 4.866 2.887 6.153 6.123 2.891" transform="rotate(-90 4.505 2.262)"/>
      <polygon points="4.207 .641 5.15 .641 5.15 8.376 3.853 8.376 3.853 .641"/>
    </g>
  </g>
</svg>
