<svg xmlns="http://www.w3.org/2000/svg" width="47" height="45" viewBox="0 0 47 45">
    <g fill="none" fill-rule="evenodd">
        <path fill="#503A12" d="M7.85 0h31.305L47 13.938V45H0V13.938z"/>
        <path fill="#FFF" d="M20.984 0h5.051c.906 9.633 1.174 15.966.804 19h-6.687c-.36-2.027-.082-8.36.832-19z"/>
        <path fill="#FFF" d="M23 13h23.417L47 14H23.359z"/>
        <path fill="#FFF" d="M24 13H.5c-.397.634-.558.95-.482.95h23.62L24 13zM18.507 22h8.963c.816 0 1.488.64 1.528 1.455a1.399 1.399 0 0 1-1.384 1.468L18.507 25A1.494 1.494 0 0 1 17 23.507c0-.832.675-1.507 1.507-1.507z"/>
    </g>
</svg>
