<svg xmlns="http://www.w3.org/2000/svg" width="82" height="21" viewBox="0 0 82 21">
    <path fill="#FFF" fill-rule="evenodd" d="M16.96 2.14c.04-.06.08-.16.1-.3v-.12c-.02-.08-.04-.14-.08-.18a.646.646 0 0 0-.48-.26h-.2c-.06.04-.18.1-.34.18-2.04 1.18-3.8 1.76-5.28 1.76h-.3c-.08 0-.12-.04-.12-.12.08-.3.26-.64.54-1 .14-.24.22-.48.22-.76 0-.08-.06-.18-.16-.28-.16-.14-.3-.22-.44-.22-.24 0-.4.1-.52.28-.28.26-.54.6-.76 1.04-.22.42-.32.84-.32 1.28 0 .32.08.56.28.76.22.28.56.4 1.02.4.66 0 1.34-.06 2.06-.2.6-.1 1.22-.26 1.84-.5 1.64-.62 2.62-1.2 2.94-1.76zm-.18 6.4c-.76.26-1.62.58-2.56.98-.04.76-.06 1.54-.1 2.36-.04.8-.12 1.42-.2 1.9-.1.56-.22 1-.36 1.36-.24.32-.48.48-.72.48-.3 0-.46-.12-.46-.36 0-.12.02-.24.1-.32.04-.26.08-.52.12-.76.1-.74.18-1.96.24-3.64v-.46c-.66.28-1.24.54-1.74.76-.12.06-.2.1-.28.12 0 .54.02 1.46.04 2.78.08 2.16.5 3.62 1.26 4.42.56.52 1.26.78 2.08.78 1.16 0 1.98-.2 2.46-.6.36-.34.62-.82.76-1.42.06-.66.1-1.4.12-2.2.08-.18.28-.3.56-.34.34 0 .56.18.64.54v1.72c-.02.88-.16 1.56-.42 2.08-.4.7-1.1 1.18-2.12 1.44-.64.14-1.38.22-2.24.22-.84 0-1.54-.18-2.1-.5-.78-.48-1.38-1.34-1.82-2.56-.26-.84-.4-1.9-.44-3.2-.04-.76-.06-1.62-.06-2.56l-.04.02c-.62.3-1 .44-1.14.44-.38-.06-.6-.28-.68-.68v-.14c0-.24.1-.44.32-.6.3-.16.58-.3.86-.42.24-.08.46-.16.66-.26-.02-.6-.08-1.26-.18-1.96.08-.42.34-.64.78-.64.28 0 .48.16.58.44.04.36.08.9.1 1.66.68-.24 1.34-.5 1.96-.74.04 0 .08-.02.12-.04 0-.64.02-1.46.04-2.42 0-.4.2-.62.56-.66h.28c.36.04.54.26.54.66 0 .54-.02 1.16-.02 1.88.5-.18 1.02-.36 1.54-.52.84-.28 1.36-.44 1.6-.44.22 0 .38.06.5.16.18.2.28.42.3.7 0 .32-.08.78-.24 1.4-.16.54-.36 1.06-.58 1.56-.42.88-.98 1.62-1.68 2.26-.2.12-.4.16-.56.16-.3-.02-.44-.18-.44-.48 0-.12.04-.24.14-.34.08-.12.18-.26.34-.42.28-.28.58-.8.94-1.54.16-.32.3-.64.42-1 .14-.48.22-.82.22-1.06zM4.64 10.02c-.28 1.3-.62 2.46-1.02 3.46-.32.72-.66 1.56-1.06 2.52-.24.56-.48 1.02-.7 1.46-.24.46-.44.76-.62.92-.12.1-.26.16-.44.16-.26-.04-.4-.18-.42-.46 0-.2.04-.38.14-.5.12-.28.28-.58.44-.92.32-.6.64-1.32.96-2.14.24-.68.5-1.4.76-2.2.32-.94.54-1.86.66-2.74.12-.7.2-1.36.24-1.98-.34.14-.66.26-.96.38-.22.08-.38.12-.46.14-.3.06-.54.08-.74.08-.38 0-.6-.26-.64-.78 0-.24.18-.46.54-.66.2-.06.48-.14.84-.24.9-.28 1.78-.6 2.66-.96 1.2-.52 2.16-.96 2.86-1.34.2 0 .34.08.42.24.04.06.06.14.06.22 0 .2-.1.4-.3.6C7.5 5.76 6.54 6.32 5.02 7c-.08.04-.12.06-.16.06.04.16.06.3.06.46 0 .32-.02.66-.06 1.02.2.04.38.12.54.24.44.24.8.56 1.12.96.24.28.44.64.64 1.1.18.52.28 1.08.28 1.66 0 1.44-.26 2.86-.78 4.26C6.18 18 5.62 19.02 5 19.86c-.22.16-.4.24-.54.24-.2 0-.38-.06-.54-.14a.602.602 0 0 1-.16-.44c0-.1.06-.22.2-.38.68-.8 1.22-1.74 1.66-2.82.38-1.1.58-2.4.58-3.88 0-.56-.24-1.12-.68-1.66-.26-.28-.56-.54-.88-.76zm.04-6.36c1.26-.08 1.9-.32 1.9-.72 0-.1-.14-.28-.4-.56-.4-.04-.84-.06-1.32-.06-.92 0-1.68-.08-2.28-.26-.54.08-.82.28-.82.56 0 .44.18.72.54.82.5.16 1.3.22 2.38.22zm24.76 11.98c0 .2-.06.42-.14.68-.18.4-.44.78-.76 1.16-.34.36-.72.64-1.14.88-.14.1-.28.18-.42.22-.44.3-.86.52-1.24.68-.02.36-.28.56-.78.56-.22 0-.46-.26-.72-.74-.24-.62-.44-1.4-.64-2.34-.16-.78-.22-1.42-.22-1.94 0-.64.22-.96.68-1 .48 0 .72.22.74.64.38-.08.88-.12 1.5-.14.84.02 1.52.14 2.08.36.7.28 1.06.6 1.06.98zm-4.52.24c0 .16.02.32.04.48.1.6.22 1.1.34 1.56.32-.12.58-.22.8-.3.34-.16.66-.3.98-.44.16-.14.3-.26.44-.4.34-.32.52-.52.52-.6-.34-.24-.9-.36-1.68-.36-.44 0-.92.02-1.44.06zm-2.3-9.24c1.32-.08 2.74-.3 4.24-.62.84-.18 1.5-.38 2-.6.14-.08.26-.22.36-.42 0-.12.02-.22.02-.3-.06-.22-.3-.34-.7-.34-3.3.44-5.28.66-5.94.66-.44.06-.64.3-.64.74 0 .6.22.88.66.88zm.54 3.26c1.08-.12 2.22-.38 3.46-.74.68-.22 1.22-.46 1.62-.72.16-.08.28-.22.36-.4 0-.08.02-.18.02-.3-.06-.18-.28-.28-.64-.28-2.68.64-4.3.94-4.84.94-.4.08-.58.3-.58.7 0 .54.2.8.6.8zm5.02 1.02c0-.12-.02-.22-.02-.3a.646.646 0 0 0-.48-.26c-.1 0-.2.02-.3.06-.08.04-.34.16-.76.36-.72.3-1.54.58-2.44.86-.4.12-.86.26-1.4.4-.26.12-.4.3-.4.54 0 .32.04.56.16.72.12.2.28.3.48.3.06 0 .16-.02.3-.1.84-.2 1.74-.52 2.66-.94.8-.36 1.44-.72 1.96-1.08.16-.2.24-.38.24-.56zm-.4-7.52c.3-.08.46-.32.46-.72a.823.823 0 0 0-.32-.48c-.88-.3-2.04-.48-3.48-.54H24c-.22.12-.38.3-.48.5 0 .42.12.76.38 1 1.4.08 2.7.16 3.88.24zm4.06 2.42c-.04-.96-.1-1.76-.18-2.38-.2-.32-.44-.48-.74-.48-.24.02-.44.12-.58.32-.1.16-.14.32-.14.5.02.24.12.44.28.62.02 2.76.24 4.14.66 4.14.6-.02 1.02-.26 1.28-.74 1.2-2.24 2.02-3.76 2.44-4.6.24 3.22.92 4.82 2.08 4.82.48 0 1.04-.16 1.66-.52.66-.38 1.24-.92 1.74-1.64.08-.16.14-.36.14-.6-.08-.32-.24-.5-.48-.5-.12 0-.24.06-.36.18-1.38 1.08-2.18 1.62-2.38 1.62-.16-.02-.3-.2-.46-.54-.3-.62-.46-1.4-.48-2.34-.04-.62-.04-1.18-.04-1.66-.02-.2-.06-.36-.14-.5-.16-.2-.36-.3-.6-.3-.26 0-.52.12-.76.32-.46.48-1.02 1.22-1.7 2.22-.46.76-.88 1.44-1.24 2.06zm6.48 4.94c0-.4-.1-.7-.3-.9-.22-.28-.46-.42-.72-.42h-.28c-.36 0-1.32.32-2.88.94-1.34.48-2.2.86-2.56 1.12-.16.2-.24.38-.24.58 0 .22.06.4.18.54.12.16.26.22.44.22.08 0 .22-.04.42-.16 1.62-.66 3.12-1.24 4.5-1.76-.32 1.16-1 2.54-2.04 4.14-.24.3-.44.58-.64.84-.2-.12-.36-.26-.52-.38-.52-.44-1-.84-1.44-1.18-.2-.14-.38-.24-.52-.32-.08-.06-.22-.1-.4-.1-.2 0-.36.08-.48.22-.14.18-.2.38-.2.6.02.1.1.22.22.38.86.72 1.66 1.36 2.42 1.92-.32.36-.6.68-.86.96-.58.54-1.14 1.02-1.68 1.42-.2.2-.3.36-.3.5s.04.26.16.34c.06.1.18.16.34.16.2 0 .44-.1.68-.28.52-.32 1.06-.76 1.6-1.3.36-.34.7-.7 1.06-1.08.66.46 1.32.86 2 1.18.86.46 1.68.8 2.44 1.02.42.1.82.16 1.18.2.24 0 .44-.02.6-.02.26-.06.4-.18.44-.34 0-.2-.18-.36-.5-.5-.26-.12-.52-.2-.78-.28-1.38-.5-2.82-1.26-4.3-2.26a.435.435 0 0 1-.16-.1c.24-.3.48-.62.72-.96.66-.86 1.22-1.72 1.66-2.6.48-1 .74-1.78.74-2.34zm10.7 6.36c-.04.34-.08.68-.14 1.04-.04.4-.04.7-.04.94 0 .2 0 .4.04.64 0 .44-.2.66-.6.66-.36 0-.58-.16-.68-.46-.12-.32-.2-.86-.2-1.64-.02-.36-.02-.7-.02-1.04 0-.28.04-.48.12-.64.12-.28.36-.42.72-.42.24 0 .46.14.66.4.08.18.14.36.14.52zm10.3-5.6c0 .16-.08.34-.24.5-.74.6-2.6 1.3-5.56 2.12.08 1.2.18 2.5.28 3.88.04.64.06 1.2.06 1.68 0 .76-.28 1.16-.84 1.16-1-.1-1.62-.5-1.84-1.18 0-.4.1-.62.3-.68.32.08.64.14 1 .14 0-.34-.04-.76-.08-1.28-.12-1.3-.22-2.42-.34-3.34-1.28.34-2.48.64-3.62.9-.46.1-.78.16-.98.18-.24.04-.46.04-.64.04-.32 0-.52-.22-.56-.66 0-.2.16-.38.48-.54.18-.08.42-.16.72-.24 1.52-.3 3-.64 4.44-1.02-.04-.18-.06-.34-.06-.48-.04-.2-.06-.38-.08-.58 0-.12.04-.24.12-.34.12-.18.3-.28.54-.28.54 0 .86.36.94 1.08 0 .08.02.14.02.22 2.36-.6 4.22-1.16 5.54-1.66.18 0 .3.08.36.2.02.06.04.12.04.18zm-2.68 3.96c.08 0 .14.02.22.02.12.04.24.08.34.12.44.4 1.12 1.38 2.02 2.98.22.38.36.74.4 1.08 0 .42-.18.64-.52.64-.18 0-.38-.12-.58-.34-.2-.26-.44-.62-.76-1.08-.52-.8-1.1-1.52-1.7-2.2a.543.543 0 0 1-.12-.34v-.2c.02-.2.12-.36.3-.52.1-.08.24-.12.4-.16zm-9.02-10.8c0-.82-.08-1.5-.2-2.04-.12-.2-.24-.38-.36-.52a.853.853 0 0 0-.48-.14c-.2.02-.34.06-.44.14-.18.16-.26.4-.26.68 0 .1.04.26.14.48.12.44.18 1 .18 1.72 0 .22-.02.44-.04.66-.04.32-.1.6-.14.86-.06.16-.08.3-.08.4 0 .3.14.46.44.48.28 0 .48-.1.62-.28.08-.1.14-.24.2-.42.12-.24.2-.52.28-.84.08-.44.14-.82.14-1.18zm8.5-.62c0-.16.1-.3.32-.46.36-.44.7-.92.98-1.4-.8.1-2.54.42-5.22.94-.02.1-.04.18-.04.26-.16.62-.34 1.24-.5 1.86-.1.36-.16.68-.2.94.76-.08 1.44-.16 2.04-.22-.06-.36-.12-.68-.18-.94-.08-.2-.14-.42-.2-.62-.06-.1-.08-.2-.08-.3 0-.16.08-.3.22-.42.12-.1.26-.16.42-.16.16 0 .32.1.46.26.18.24.32.6.44 1.08.06.34.1.68.12 1.04h.24c.6 0 1.12.02 1.52.02.34.1.52.34.52.72 0 .22-.1.36-.3.44-.3.08-.86.14-1.68.18-.16.02-.28.02-.4.02-.16.64-.44 1.24-.84 1.76-.2.24-.4.46-.6.64.06.04.12.06.2.1.4.16.84.28 1.34.4.08.08.12.2.12.36-.06.32-.3.52-.74.58h-.2c-.34-.02-.76-.14-1.24-.34-.18-.08-.34-.16-.5-.28a7.8 7.8 0 0 1-1.34.7c-.2.14-.38.2-.54.2-.32 0-.52-.12-.58-.4 0-.2.08-.38.26-.5.44-.16.9-.38 1.34-.62l-.02-.02c-.62-.64-.96-1.32-1.04-2.02-.14.04-.26.06-.38.08-.64.12-1.2.18-1.64.18-.08 0-.18-.04-.28-.12-.14-.12-.2-.32-.2-.64 0-.24.12-.4.36-.52.68-.2 1.42-.36 2.22-.46h.02c0-.04 0-.1.02-.18.1-.7.22-1.4.36-2.08.06-.26.1-.5.14-.7-.42.08-.84.18-1.26.26-.34.08-.6.1-.8.1-.22 0-.38-.04-.48-.16a.753.753 0 0 1-.22-.56c0-.16.08-.3.24-.42.2-.08.48-.18.8-.26.54-.12 1.18-.24 1.9-.36v-.2c0-.14-.02-.3-.04-.46-.06-.16-.08-.32-.08-.46 0-.22.08-.4.26-.56.16-.08.32-.14.48-.14.14 0 .28.06.42.16.18.18.28.54.28 1.1v.32c.98-.16 2.1-.36 3.36-.56C57.04 1 58 .88 58.56.88c.14 0 .28.02.42.04.28.12.42.32.42.6 0 .62-.6 1.46-1.76 2.52-.14.16-.28.28-.42.38-.24.16-.44.24-.56.24-.16 0-.3-.08-.4-.24a.549.549 0 0 1-.14-.36zM53.4 7.42c-.16 0-.28.02-.4.02-.48.04-1 .12-1.6.22.12.6.38 1.08.8 1.44.04.04.08.06.12.08.28-.26.52-.54.72-.86.16-.34.28-.64.36-.9zm16.24.8c-.06-1-.24-1.76-.54-2.24-.16-.22-.36-.34-.56-.34-.16 0-.3.04-.44.12-.24.18-.34.42-.34.72.2.6.32 1.2.32 1.82v1.38c0 1.4-.16 2.7-.48 3.92-.56 1.86-.84 3.14-.84 3.82 0 .48.2.74.62.74.36 0 .6-.22.68-.66.28-.72.54-1.56.74-2.48.56-2.12.84-4.4.84-6.8zm1.8 7.12c.22-.28.48-.7.78-1.26.84-1.62 1.5-3.22 2-4.78a30.3 30.3 0 0 1 2.48 2.76c.56.7 1 1.24 1.36 1.6.16.18.32.26.48.26.28 0 .44-.18.44-.54-.06-.44-.3-.92-.7-1.46-1.56-2.18-2.74-3.54-3.5-4.06-.04 0-.08-.02-.14-.06.2-.82.38-1.66.54-2.52 2.22-.44 3.8-.66 4.72-.66.24 0 .36.12.36.36-.16 2.72-.22 4.94-.22 6.66 0 .92.02 1.78.08 2.6.1 1.32.16 2.38.16 3.18 0 1-.16 1.58-.44 1.72-.2 0-.38-.14-.54-.38-.36-.48-.74-.84-1.12-1.06-.2-.14-.42-.2-.66-.2-.08.02-.12.3-.12.82.16.44.38.82.68 1.14.58.68 1.18 1.02 1.82 1.02 1.14 0 1.72-.92 1.76-2.72 0-.62-.06-1.7-.14-3.26-.08-.96-.1-1.78-.1-2.46 0-1.04.06-2.9.18-5.62.02-.58.04-1.1.04-1.54 0-1.12-.46-1.68-1.38-1.68-.82 0-2.44.2-4.88.58.08-.7.12-1.42.14-2.14v-.6c-.04-.4-.26-.6-.7-.6-.56 0-.82.24-.82.68v.62c-.02.8-.06 1.56-.14 2.3-2.04.38-3.18.62-3.44.7-.42.18-.62.42-.62.7 0 .24.06.42.2.54.14.24.32.34.54.34.96-.28 2-.52 3.1-.74-.12.84-.28 1.66-.48 2.42-.52 1.8-1.06 3.36-1.64 4.66-.28.68-.52 1.3-.72 1.88-.2.32-.28.54-.28.7 0 .26.1.38.3.38.2 0 .4-.1.62-.28z"/>
</svg>
