<svg xmlns="http://www.w3.org/2000/svg" width="231" height="62" viewBox="0 0 231 62">
    <path fill="#503A12" fill-rule="evenodd" stroke="#503A12" d="M33.418 5.078c.116 0 .232-.059.348-.059.464 0 .812.175 1.044.525.058.233.116.407.174.524 0 .466-.174.874-.522 1.223-1.508.758-3.363 1.515-5.567 2.214 0 .116.058.233.058.291v1.049c-.232 3.728-2.552 7.747-7.017 12.058 3.015-.524 6.437-1.398 10.38-2.621 2.088-.7 3.654-1.049 4.582-1.049h1.044c1.856 0 2.783 1.631 2.783 4.893v10.37c0 2.562 0 6.873.058 13.048v11.3c-.058 1.282-.753 1.981-2.087 2.156-3.712 0-6.786-1.515-9.163-4.427-.348-.466-.464-.932-.464-1.456 0-.35.29-.467.812-.467.58.292 1.798.933 3.653 1.923 1.276.582 2.842 1.165 4.582 1.864A330.966 330.966 0 0 1 38 50.165c-.058-2.097-.058-4.427-.058-6.99-.058-3.612-.058-6.816-.058-9.612 0-3.961-.058-7.34-.058-10.136-.174-.932-.522-1.456-1.102-1.456-.522 0-2.552.582-6.09 1.69-2.435.756-4.87 1.397-7.19 1.98-1.624.291-3.19.64-4.756.99 0 .117.058.233.058.35-.058.64-.464 1.514-1.218 2.62-3.363 5.127-5.857 8.098-7.481 9.03-.348.233-.58.35-.812.35-.754 0-1.16-.466-1.16-1.282 0-.233.232-.582.754-1.107 2.726-2.68 5.046-5.825 6.901-9.32-1.45.35-2.9.64-4.35.99-.87 0-1.333-.524-1.333-1.573 0-.64.348-1.106 1.102-1.456.406-.175 1.566-.466 3.421-.874-.116-.116-.174-.175-.174-.291-.231-1.282-.29-3.612-.29-6.99-.057-1.165-.057-2.272-.057-3.437-3.48.64-6.67.99-9.57 1.107-.58 0-.985-.175-1.217-.583-.348-.291-.58-.699-.58-1.165 0-.699.29-1.165.928-1.282 3.131-.233 6.495-.64 10.207-1.223 7.48-1.281 14.034-3.087 19.601-5.417zM16.658 23.95c.928-.233 1.856-.407 2.784-.582 3.074-3.146 5.161-6.408 6.205-9.903.348-1.165.522-2.155.522-3.03-2.668.816-5.741 1.69-9.22 2.506a66.237 66.237 0 0 0-.175 4.66c-.116 2.097-.116 3.67-.116 4.835 0 .408 0 .815.058 1.165 0 .175-.058.291-.058.35zM12.483 4.03c-.638-.116-.928-.64-.928-1.456 0-.175.174-.408.522-.757A2.316 2.316 0 0 1 13.7 1c0 .233.348.408 1.043.408C16.6 1.874 20.08 2.63 25.241 3.62c.29.059.464.292.464.641 0 .524-.232.932-.696 1.223-.464.292-.87.408-1.334.408-3.48 0-7.19-.582-11.192-1.864zM3.668 58.087c-.232 1.049-.754 1.631-1.624 1.631-.696 0-1.044-.582-1.044-1.63.638-2.33 1.044-4.894 1.276-7.806l.406-6.233.058-6.874c0-3.612.058-7.515.174-11.767 0-1.165.58-1.806 1.798-1.806.985.058 1.507.699 1.507 1.98-.174 4.02-.232 7.107-.232 9.32l-.29 7.807a127.353 127.353 0 0 1-.29 6.174c-.231 4.078-.811 7.166-1.74 9.204zm15.194-7.223h.058a130.949 130.949 0 0 0 6.67-1.806c1.449-1.98 2.377-3.495 2.84-4.543.117-.583.233-.99.233-1.34-.638-.99-2.088-1.515-4.292-1.515a53.345 53.345 0 0 0-6.727.583c.174.699.348 1.456.464 2.213.406 2.913.638 5.01.754 6.408zM17.064 39.33c2.03-.233 4.35-.35 6.96-.35 1.623 0 3.131.234 4.523.7 1.74.64 2.668 1.922 2.668 3.903-.232 1.398-.812 2.796-1.798 4.135.116 0 .174-.058.29-.058.348.058.58.175.812.35 0 .116.058.291.058.466-.058.35-.174.699-.406.99-1.682.932-3.77 1.864-6.264 2.796a69.751 69.751 0 0 1-8.467 2.388c-.29.059-.464.117-.58.117-.348 0-.638-.233-.87-.583-.231-.29-.347-.699-.347-1.223 0-.466.29-.815.811-1.048.812-.233 1.508-.35 2.204-.466-.116-1.457-.348-3.03-.696-4.777-.812-3.262-1.45-5.942-1.971-8.097 0-.233.174-.524.405-.816.232-.233.464-.407.812-.407.29 0 .522.058.754.058.348.116.638.408.812.757.116.35.174.7.29 1.165zm18.558-3.204c0 .35-.116.641-.232.874-.232.233-.406.35-.638.35-.348 0-.58 0-.696-.117a20.869 20.869 0 0 1-2.725-1.631 76.082 76.082 0 0 1-6.612-5.068c-.928-.7-1.45-1.165-1.566-1.456-.173-.117-.231-.35-.231-.641 0-.175.058-.408.231-.7a2.22 2.22 0 0 1 .522-.523c.174 0 .348-.059.522-.059.174 0 .522.117.986.292.58.35 1.45.873 2.61 1.689 1.276 1.048 2.726 2.214 4.35 3.553a49.723 49.723 0 0 0 2.841 2.622c.406.35.638.64.638.815zM74.956 23.37c.985-.524 1.971-1.049 2.9-1.631 1.971-2.039 4-4.719 6.147-8.097 1.391-2.097 2.087-3.437 2.087-3.903 0-.233-.58-.408-1.74-.408-1.507 0-4.175-.058-8.003-.058-.927 0-1.74.058-2.32.058l-.985.117c.406 1.398.812 2.97 1.218 4.66.464 2.796.696 5.883.696 9.262zm9.163-4.252c.116.174.232.29.232.407 0 .466-.174.932-.464 1.34-.696.757-1.798 1.573-3.248 2.505a74.053 74.053 0 0 1-8.235 4.427 2.806 2.806 0 0 1-1.218.466h-.348c-.754-.35-1.102-.874-1.102-1.63 0-.35.232-.7.696-.991.29-.233.696-.466 1.16-.583l.348-.175c.232-1.922.406-3.611.406-5.01 0-1.397-.29-3.203-.812-5.358-.58-2.098-1.276-3.903-2.146-5.36-.638-1.048-.928-1.864-.928-2.505 0-.466.232-.932.812-1.34.232-.174.522-.29.812-.29.522 0 .986.232 1.392.698.116.233.232.408.348.641.116 0 .232-.058.348-.058 1.102 0 2.146-.058 3.132-.058 4.987 0 8.467.174 10.38.524 2.262.466 3.422 1.107 3.422 1.98 0 1.748-.638 3.845-1.914 6.175a35.573 35.573 0 0 1-3.073 4.195zM76.52 41.31c0 .582-.174 1.34-.406 2.213a9.957 9.957 0 0 1-.811 1.573c.348-.175.637-.35.985-.582 1.276-.99 2.146-1.573 2.552-1.69.174-.058.348-.116.522-.116.232.058.464.174.696.408 0 .116.058.233.058.466-.058.349-.174.64-.406.99-1.624 1.63-3.712 3.204-6.205 4.777-2.958 1.864-5.8 3.203-8.525 4.077-.116 0-.232.058-.232.058-.116.932-.58 1.457-1.276 1.515-.812 0-1.276-.408-1.276-1.107-.174-1.98-.638-4.369-1.334-7.281-1.334-4.195-2.494-7.69-3.421-10.486 0-.291.174-.582.464-.932.232-.35.58-.524.985-.524.348 0 .58.058.754.058.406.233.696.524.928.932.348.7.696 1.748 1.16 3.088.058-.117.116-.175.174-.233.928-.408 2.726-.641 5.451-.7 2.494.059 4.524.408 6.148.99 1.972.7 3.015 1.574 3.015 2.506zm-12.12 8.97c.58-.232 1.16-.465 1.624-.64l.348-.35c1.74-.932 3.48-2.272 5.103-4.02 1.392-1.63 2.146-2.562 2.146-2.912-1.218-.757-3.248-1.165-6.148-1.165-1.45 0-3.073.058-4.929.117-.058 0-.116 0-.116-.059.232.816.464 1.631.696 2.505.58 2.68 1.044 4.893 1.276 6.525zm41.06-12.99c0 1.049-.233 2.04-.697 3.03a24.524 24.524 0 0 1-1.74 2.854c.232.058.464.175.58.408 0 .233.058.407.058.582 0 .35-.29.757-.754 1.282-1.275 1.456-2.957 2.68-4.929 3.728-2.61 1.573-4.987 2.68-7.075 3.378-.58.233-.928.35-1.16.35-.174.699-.58 1.048-1.218 1.107-.812 0-1.218-.35-1.218-1.049-.116-2.33-.464-5.184-1.044-8.563-1.044-4.777-1.855-8.854-2.551-12.175 0-.233.174-.524.464-.873.232-.408.521-.641.985-.641.348 0 .638.058.87.058.464.233.812.583.986 1.049.116.466.232.99.348 1.572.116-.058.232-.116.348-.233 1.044-.233 2.958-.35 5.742-.35 4.929.117 8.409.816 10.496 2.098.986.757 1.508 1.573 1.508 2.388zm-17.515-.99c.232 1.456.464 3.087.812 4.951.464 3.612.754 6.466.928 8.505 1.45-.699 2.552-1.223 3.306-1.573l1.043-.524c1.74-1.63 3.538-3.611 5.336-5.883 1.334-1.69 2.32-3.03 2.957-4.02-1.913-1.048-4.755-1.573-8.525-1.573-2.087 0-3.943.117-5.509.233-.174 0-.29 0-.348-.116zm76.333-19.282c0 .408-.232.816-.58 1.165-1.45 1.748-5.219 3.787-11.308 6.117a158.094 158.094 0 0 1-9.57 3.32c-.811.292-1.449.466-1.913.525-.58.058-1.044.058-1.45.058-.812 0-1.276-.583-1.392-1.631 0-.466.348-.874 1.102-1.282.464-.174 1.044-.35 1.74-.524 1.276-.35 2.61-.757 3.886-1.223.116-.117.29-.233.406-.408.812-.932 1.565-2.155 2.32-3.67.347-.816.637-1.69.87-2.621a60.888 60.888 0 0 1-4.176 1.572c-.464.233-1.044.35-1.624.408h-.29c-.812-.408-1.16-.99-1.16-1.806 0-.35.29-.699.754-.99a3.666 3.666 0 0 1 1.276-.524 54.616 54.616 0 0 0 5.973-2.097c.116-.525.232-1.049.348-1.631.058-.641.116-1.282.116-1.98 0-.409-.058-.758-.058-1.108-3.48 1.049-6.785 1.748-9.917 2.156-.87 0-1.276-.525-1.276-1.631 0-.816.406-1.282 1.218-1.398 1.334 0 4.408-.758 9.163-2.272-.116-.175-.174-.292-.174-.35-.696-1.165-.986-1.98-.986-2.446 0-.525.174-.932.58-1.224.232-.174.464-.291.812-.291.638 0 1.16.466 1.624 1.398.348.7.696 1.34.986 1.98 2.204-.698 4.697-1.572 7.481-2.562.812 0 1.334.233 1.45.64 0 .233-.058.466-.058.7-.232.349-.464.698-.696.931-1.624 1.165-3.77 2.214-6.553 3.263-.29.116-.522.174-.754.233.058.582.116 1.223.116 1.864 0 .815-.058 1.689-.174 2.504a55.398 55.398 0 0 0 2.494-1.165c1.043-.582 1.74-.873 2.203-.873.29 0 .58.116.87.29.29.234.464.467.522.7 0 .466-.174.874-.522 1.281-.87.7-2.146 1.399-3.885 2.156-.87.408-1.682.757-2.378.99a49.848 49.848 0 0 1-1.392 3.787 14.635 14.635 0 0 1-1.682 2.97 48.017 48.017 0 0 0 3.074-1.165c4.987-1.864 8.873-3.553 11.657-5.01.348 0 .637.117.87.35 0 .175.057.35.057.524zm-17.398 17.534h-.058l-.29 3.03c-.116.699-.174 1.398-.231 2.038 1.101-.116 2.261-.35 3.48-.582 2.899-.757 5.45-1.748 7.654-3.03v-4.252c-.058-.466-.29-.757-.754-.815-1.45.175-4.697 1.398-9.8 3.611zm10.555 4.428c-1.682.932-4.06 1.805-7.075 2.62-1.392.35-2.726.583-3.886.642-.173 0-.29 0-.405-.059-.232 2.098-.406 4.195-.638 6.35.116 0 .174-.058.232-.117 1.507-.407 2.783-.757 3.827-1.106a120.404 120.404 0 0 0 6.553-2.272 7.768 7.768 0 0 1 1.45-.7c-.058-1.747-.058-3.494-.058-5.358zm.058 7.864c-1.102.699-2.32 1.281-3.653 1.864-2.494 1.107-4.872 1.922-7.134 2.446-.29.117-.463.175-.58.175-.347 0-.695-.233-.927-.582-.058.233-.058.407-.058.64-.232 2.68-.348 4.777-.406 6.408-.058.816-.174 1.34-.348 1.69-.348.465-.812.757-1.276.757-.58-.059-.928-.408-1.044-.99-.058-.292-.058-.7-.058-1.224 0-1.165.348-5.126 1.102-11.883.58-6.059.928-10.602.986-13.631V29.95c0-.699.348-1.165 1.044-1.398h.928c.695.059 1.043.525 1.101 1.398 0 .466-.058.932-.058 1.34 1.74-.815 4.292-1.806 7.598-2.854 1.043-.233 1.913-.408 2.725-.408 1.624.058 2.494 1.107 2.61 3.146 0 .466 0 3.728.058 9.728.058 3.029.174 6.757.348 11.126 0 1.631.058 3.437.174 5.418 0 1.456-.464 2.213-1.276 2.271-1.044 0-2.146-.35-3.364-.932a9.45 9.45 0 0 1-3.827-3.728c-.174-.35-.29-.699-.29-.99 0-.583.232-.874.812-.99.87 0 2.551 1.048 4.987 3.262-.116-2.971-.174-6.117-.174-9.495zM121.538 31.29c0-2.563-.232-4.66-.696-6.291-.232-.466-.406-.757-.638-.932a1.396 1.396 0 0 0-.985-.408c-.406.058-.696.175-.87.35-.348.291-.464.699-.464 1.223 0 .408.116.932.348 1.573.348 1.281.522 3.029.522 5.126 0 .7-.058 1.515-.174 2.33a116.71 116.71 0 0 1-.696 2.971c-.174.583-.29 1.049-.29 1.34 0 .582.232.932.754.99.522-.058.928-.233 1.276-.582.232-.292.405-.7.58-1.282.347-.816.637-1.69.87-2.68.29-1.398.463-2.68.463-3.728zm7.481 7.515v-6s.058 0 .116-.058c1.218-.292 2.552-.816 4.06-1.573 1.16-.525 2.146-1.107 2.9-1.748.464-.582.696-.99.696-1.281 0-.175-.058-.408-.058-.641-.174-.233-.464-.35-.812-.35-.232 0-.464.059-.754.059-.29.116-.754.29-1.334.582-1.508.7-2.842 1.282-3.886 1.631-.232.117-.58.175-.986.291 0-1.398-.058-2.737-.058-4.019a779.446 779.446 0 0 0-.985-12.233c-.058-.583-.174-1.049-.406-1.34-.348-.35-.696-.524-1.044-.524-.348 0-.638.058-.928.175-.522.35-.754.815-.754 1.398.696 4.66 1.102 9.029 1.16 13.165.058 3.029.116 7.165.116 12.291 0 1.398-.058 4.369-.174 8.913-.058 3.145-.058 5.708-.058 7.63 0 1.108.406 1.69 1.334 1.69.812 0 1.334-.582 1.565-1.69 0-1.28.116-2.737.232-4.252 0-5.242.058-9.32.058-12.116zm64.561-15.787c0-.815-.116-1.456-.232-2.038a1.101 1.101 0 0 1-.116-.466 79.735 79.735 0 0 1-3.711 1.572 94.628 94.628 0 0 1-4.06 1.573c.116.233.232.466.29.7a42.632 42.632 0 0 0-.174 3.844c0 .874.174 2.097.638 3.728.116.466.174.816.29 1.107a77.447 77.447 0 0 1 4.581-1.748c.348-.582.754-1.281 1.218-1.98.58-1.34.986-3.03 1.218-5.01 0-.466.058-.874.058-1.282zm-4.755 12.99c-.812.35-1.624.7-2.378.991-2.378.99-3.712 1.456-4.06 1.456h-.464c-.29 0-.521-.233-.753-.64-.174-.233-.232-.583-.232-.933 0-.582.232-1.106.753-1.572.696-.408 1.624-.874 2.726-1.398-.696-1.282-1.102-2.913-1.276-4.835-.116-1.34-.116-2.855-.116-4.486-.696.291-1.392.525-1.971.7-.812.29-1.392.465-1.74.524-.58.058-1.102.058-1.508.058-.812 0-1.218-.583-1.334-1.631 0-.466.348-.874 1.102-1.224.464-.233 1.044-.407 1.74-.582 2.667-.816 5.22-1.69 7.713-2.738.116-.816.232-1.573.348-2.33.116-.99.174-2.155.174-3.495v-.932a43.457 43.457 0 0 1-6.437 1.63c-.87 0-1.276-.523-1.276-1.63 0-.874.406-1.398 1.218-1.515.927 0 3.015-.582 6.147-1.747a81.018 81.018 0 0 0-.174-1.34c-.29-1.515-.638-2.855-1.102-4.02-.058-.29-.174-.64-.29-1.048.232-.7.638-1.049 1.276-1.107h.348c.58.058 1.044.524 1.392 1.398.522 1.049.928 2.447 1.16 4.136 0 .35.058.64.116.874a134.98 134.98 0 0 0 5.567-2.33c.812 0 1.276.233 1.392.64 0 .234-.058.467-.058.7-.174.407-.406.699-.696.873-1.218 1.049-2.842 2.097-4.872 3.03-.406.174-.754.29-.985.407 0 .641.058 1.224.058 1.69 0 1.864-.174 3.553-.406 5.01 4.001-1.632 7.133-3.088 9.394-4.37.348 0 .696.175.928.466 0 .117.058.292.058.525 0 .35-.232.757-.638 1.165-.695.932-2.145 1.98-4.233 3.029.058.116.116.233.232.35.348 1.048.522 2.038.522 3.087 0 2.097-.464 4.31-1.392 6.699-.116.233-.174.407-.29.582 1.044-.291 1.972-.466 2.668-.466.348.058.696.233 1.044.583.232.35.348.699.348.99 0 .466-.348.816-.986 1.049a129.962 129.962 0 0 1-6.032 2.62c.058 1.515.116 3.03.116 4.486v4.602c4.292-1.514 7.655-2.854 10.091-4.02.348 0 .638.176.87.409 0 .116.058.233.058.407 0 .35-.174.758-.522 1.107-1.45 1.515-4.93 3.32-10.497 5.418 0 1.223-.058 2.272-.058 3.32-.116 3.67-.232 6.466-.464 8.447-.232.99-.754 1.514-1.45 1.572-.695 0-1.043-.407-1.043-1.223.116-1.98.232-4.544.232-7.806 0-.99.058-2.097.058-3.32-2.668.932-5.162 1.69-7.597 2.505-.87.233-1.508.408-1.914.524-.58 0-1.102.058-1.508.058-.812-.058-1.218-.582-1.334-1.63 0-.467.348-.875 1.102-1.282.464-.175 1.044-.35 1.74-.583a85.92 85.92 0 0 0 9.51-2.97v-5.535c0-1.048-.057-2.213-.115-3.378zm18.848-5.533v2.213c1.507-1.165 3.363-2.272 5.509-3.378 3.48-1.457 6.38-2.214 8.699-2.214.232 0 .58.058.928.058 1.218.292 1.856 1.107 1.856 2.505-.058 2.33-.986 5.825-2.842 10.37-1.044 2.446-2.03 4.543-3.016 6.29a31.261 31.261 0 0 0 3.828 4.428 30.123 30.123 0 0 0 6.785 5.01c.348.116.58.349.58.815 0 .35-.174.699-.464.932-.116.233-.406.408-.87.408-.754 0-1.508-.175-2.32-.466a14.495 14.495 0 0 1-3.073-1.748c-1.74-1.282-3.596-3.087-5.626-5.476-.232-.291-.464-.582-.638-.815l-.058.058c-2.087 3.03-4.06 5.243-5.915 6.64-.522.35-.986.525-1.392.525-.754 0-1.16-.35-1.16-.99 0-.408.174-.758.522-.99 1.624-1.573 3.364-3.67 5.162-6.292.29-.466.58-.99.928-1.456a45.502 45.502 0 0 1-3.654-5.534 119.567 119.567 0 0 1-2.958-5.243c-.116-.116-.232-.175-.232-.291-.29.116-.521.233-.637.35-.29 7.805-1.102 14.504-2.494 20.213-.116 1.049-.638 1.573-1.45 1.573-.812 0-1.218-.524-1.218-1.573.638-4.427 1.218-8.505 1.74-12.35.464-3.844.696-8.271.696-13.165 0-3.786-.29-7.805-.754-12-.464-3.145-.928-6-1.508-8.563-.116-.233-.174-.582-.29-.99.232-.699.638-1.107 1.218-1.165h.348c.638.058 1.16.524 1.508 1.34.116.466.29.932.406 1.398a9.402 9.402 0 0 0 1.566-.757c2.261-.932 4.465-1.748 6.553-2.505 2.784-.874 4.813-1.34 6.205-1.34.754.058 1.334.408 1.798.99.406.583.638 1.457.638 2.68-.058 1.573-.232 3.379-.522 5.417-.348 1.864-.696 3.437-1.044 4.602-.348 1.398-.754 2.33-1.334 2.855a3.14 3.14 0 0 1-1.972.699c-.87 0-2.145-.408-3.827-1.224a27.628 27.628 0 0 1-1.334-.99c-.232-.233-.348-.524-.348-.932 0-.466.232-.699.696-.757.928 0 2.552.408 4.871 1.107.348-.641.754-2.505 1.334-5.534.406-2.447.638-4.253.638-5.301 0-.466-.29-.758-.754-.816-.58 0-2.146.583-4.755 1.69-4.06 1.747-6.611 2.737-7.771 2.97.232 1.34.406 2.796.58 4.427.406 4.02.638 8.098.638 12.292zm3.305 3.611c.116.233.174.408.29.525a124.084 124.084 0 0 0 2.262 4.02c1.16 1.863 2.262 3.552 3.363 5.067a55.477 55.477 0 0 0 2.262-4.951 51.29 51.29 0 0 0 2.668-8.797 37.895 37.895 0 0 0-10.845 4.136z"/>
</svg>
