<svg xmlns="http://www.w3.org/2000/svg" width="298" height="61" viewBox="0 0 298 61">
    <path fill="#503A12" fill-rule="evenodd" stroke="#503A12" d="M13.832 54.31c0-4.589-.059-9.873-.059-16.028V23.938c-.116.639-.348 1.336-.58 2.09-1.161 3.6-2.845 7.608-5.051 12.08a88.26 88.26 0 0 1-4.936 7.665c-.464.29-.813.406-1.16.406-.35 0-.64-.174-.872-.522a2.408 2.408 0 0 1-.174-.93c0-.116.116-.348.406-.58 2.323-3.485 4.587-7.55 6.852-12.195a106.679 106.679 0 0 0 3.31-7.317 273.3 273.3 0 0 1-5.4 1.742c-.93.232-1.626.348-1.975.465-.58.058-1.045.058-1.451.058-.813 0-1.22-.523-1.278-1.51 0-.465.349-.871 1.046-1.22.406-.174.987-.348 1.683-.522 3.252-.813 6.445-1.8 9.58-2.846-.116-3.31-.116-6.213-.116-8.769V3.787c0-.813.465-1.277 1.51-1.393.929 0 1.451.464 1.451 1.393-.058 4.123-.058 7.608-.058 10.511v5.575c.233-.058.465-.174.64-.29 2.09-2.904 3.483-5.982 4.18-9.117.116-.988.232-1.917.232-2.73V6.633c.232-.523.58-.813 1.103-.871.929 0 1.451.58 1.51 1.742v.813c-.175 3.136-1.626 6.62-4.297 10.337 2.613-.988 4.82-1.917 6.56-2.73.35 0 .582.174.756.407 0 .116.058.232.058.406 0 .29-.174.639-.523.987-1.393 1.51-4.76 3.252-10.219 5.227v1.858c.349.348.697.755 1.104 1.103a95.065 95.065 0 0 0 4.296 4.181c.871.755 1.684 1.568 2.439 2.44.348.464.58.87.58 1.335 0 .58-.232.93-.58 1.045h-.233c-.174 0-.464-.058-.929-.29-.638-.465-1.335-1.045-2.148-1.742-1.626-1.278-3.135-2.788-4.529-4.413 0 3.658-.058 7.316-.058 11.033 0 5.226-.058 9.988-.058 14.402 0 1.161-.232 2.09-.58 2.67a2.852 2.852 0 0 1-1.742.582c-1.8 0-3.368-1.51-4.761-4.472-.349-.639-.465-1.277-.465-1.916 0-.697.407-1.046 1.162-1.046.348 0 .696.29 1.045.813 1.103 2.498 2.032 3.775 2.729 3.775zm-5.69-36.934l-2.439-6.62C5.18 9.594 4.948 8.84 4.948 8.49c0-.232.116-.464.407-.697.232-.232.522-.348.929-.406.696 0 1.103.29 1.335.755a287.36 287.36 0 0 1 2.264 5.69c.407 1.627.639 2.672.639 3.136 0 .813-.29 1.336-.755 1.452l-.406.058c-.639 0-1.045-.348-1.22-1.103zm27.346-3.542c-2.496 0-4.296-.349-5.457-1.046-.755-.232-1.104-.87-1.104-1.916 0-.523.581-.871 1.8-1.103 1.336.755 3.078 1.103 5.284 1.103h1.335c.697.58 1.045.987 1.045 1.22 0 1.045-.987 1.626-2.903 1.742zm3.31 9.059c-1.626.813-3.948 2.032-6.967 3.542-1.568.813-2.439 1.22-2.613 1.22h-.349c-.232 0-.522-.233-.754-.64-.175-.29-.233-.58-.233-.928 0-.465.233-.93.755-1.394 1.336-.93 3.948-2.149 7.78-3.659.813-.232 1.51-.348 2.033-.348.29.058.522.174.754.407.233.348.349.58.349.813 0 .348-.29.696-.755.987zm15.386 2.903c0 .349-.174.697-.464 1.104-1.278 1.626-4.123 3.484-8.42 5.458 0 2.207.059 4.53.117 7.085.232 4.878.348 9.059.348 12.543 0 2.323-.464 4.24-1.335 5.75-.349.58-.871.87-1.452.87-1.045 0-1.51-.522-1.51-1.51.93-1.626 1.452-3.193 1.51-4.82-.058-5.284-.174-10.743-.29-16.433-.058-.755-.058-1.51-.058-2.323-.813.348-1.568.697-2.264.929-4.007 1.568-7.78 3.02-11.264 4.355-1.045.232-1.8.465-2.265.58-.522.059-.987.059-1.451.059-.755 0-1.161-.523-1.278-1.51 0-.465.349-.871 1.045-1.22a8.59 8.59 0 0 1 1.684-.464 123.721 123.721 0 0 0 12.658-4.878c1.045-.348 2.09-.755 3.019-1.22a621.088 621.088 0 0 1-.174-14.575c0-3.949-.058-8.13-.058-12.602 0-.755.348-1.277 1.045-1.567h.87c.813.29 1.22.812 1.22 1.567 0 1.975-.058 5.401-.058 10.22-.116 3.95-.116 8.247-.116 13.009v2.73c3.31-1.395 5.98-2.73 8.07-4.008.349 0 .639.174.813.465 0 .116.058.232.058.406zM86.57 1c.349 0 .697.174 1.046.407.29.348.464.754.464 1.219 0 .465-.174.93-.406 1.51.929.406 1.974.929 3.077 1.626 3.019 1.742 7.606 4.355 13.76 7.956 3.31 1.8 5.98 3.31 7.955 4.471.638.348 1.161.755 1.625 1.103.29.465.465.813.523 1.104 0 .929-.464 1.335-1.277 1.335-.175 0-.349-.058-.523-.116-1.161-.464-2.961-1.394-5.458-2.787l-9.522-4.994a181.276 181.276 0 0 1-9.638-5.575c-.87-.465-1.568-.871-2.09-1.336a82.292 82.292 0 0 1-2.613 4.181 123.48 123.48 0 0 1-8.303 11.208c.465-.116.93-.174 1.394-.232 7.2-1.394 13.354-2.846 18.347-4.356 1.684-.522 2.845-.813 3.484-.813.348 0 .639.117.987.29.348.291.58.581.639.814 0 .464-.233.929-.581 1.393-1.335.697-3.368 1.336-6.154 2.033-1.626.465-3.194.813-4.703 1.161.522 2.149.87 4.588 1.103 7.375 2.032-.58 3.948-1.161 5.748-1.742 1.626-.58 2.729-.87 3.425-.87.349 0 .64.115.93.29.29.232.464.522.522.754 0 .407-.174.813-.523 1.22-1.335.755-3.367 1.51-6.038 2.207a55.707 55.707 0 0 1-3.89 1.045c.058 1.452.116 2.903.116 4.355 0 2.44-.174 5.285-.523 8.42-.348 2.091-.696 4.065-1.103 5.982-.058.29-.116.522-.174.697.987-.29 1.916-.64 2.787-.988 1.335-.696 2.613-1.567 3.89-2.613 1.51-1.452 2.613-3.31 3.31-5.575.116-.522.232-.987.232-1.451 0-.93-.174-1.684-.523-2.381-.348-.58-.464-.987-.464-1.22 0-.522.174-.929.58-1.277.233-.174.465-.29.813-.29.639 0 1.162.464 1.626 1.393.697 1.161 1.103 2.381 1.103 3.659 0 2.322-1.219 4.761-3.6 7.375-1.16 1.161-2.554 2.206-4.064 3.135a147.46 147.46 0 0 1 8.535-.232c4.355 0 7.78.058 10.219.232.929.175 1.451.64 1.451 1.452 0 .755-.464 1.22-1.335 1.452-.813-.116-2.148-.174-4.006-.232-1.626-.058-3.89-.058-6.735-.058-5.806 0-12.135.406-18.986 1.335-5.865.697-11.09 1.568-15.677 2.613-.58.117-.929.175-1.161.175-.348 0-.639-.175-.93-.465-.347-.406-.58-.755-.58-1.103 0-.813.465-1.336 1.51-1.626 3.31-.813 7.141-1.51 11.438-2.033 2.787-.464 5.342-.813 7.78-1.045.058-.58.174-1.278.29-1.974.465-2.207.813-4.53 1.104-7.085.232-1.975.348-3.775.348-5.517 0-1.568-.058-3.02-.174-4.355-2.845.813-5.69 1.568-8.535 2.148-.697.233-1.452.349-2.38.465h-.349c-.813-.406-1.22-1.045-1.22-1.916 0-.349.291-.697.814-1.046.464-.232 1.16-.406 2.09-.522a199.111 199.111 0 0 0 9.406-2.033c-.233-1.8-.465-3.368-.697-4.703-.348-1.162-.58-2.033-.639-2.672-2.554.581-5.167 1.162-7.722 1.684-.813.233-1.626.407-2.438.465h-.407c-.697-.349-1.103-.871-1.161-1.51a119.238 119.238 0 0 1-4.413 4.878c-1.567 1.568-2.903 2.904-4.006 3.949-.464.406-.813.58-1.103.58-.639 0-.987-.348-.987-.929 0-.464.174-.929.58-1.277 5.807-5.691 12.077-13.705 18.754-24.158a70.828 70.828 0 0 0 2.787-4.703C85.64 1.465 86.047 1 86.57 1zm-5.167 48.373c0 .232-.116.465-.348.697-.175.174-.407.29-.755.29-.349 0-.58-.058-.813-.174-.406-.232-.813-.639-1.161-1.103-2.09-2.904-3.542-5.343-4.239-7.317-.058-.233-.058-.407-.058-.581 0-.29.116-.58.29-.871.175-.232.465-.465.871-.697.117 0 .349-.058.64-.058.406.058.812.348 1.16.93.813 1.509 1.626 3.019 2.439 4.645.987 1.8 1.626 3.078 1.974 3.89v.349zm68.267-28.222c-2.961 0-5.342 2.38-5.342 5.284a5.328 5.328 0 0 0 5.342 5.343c2.903 0 5.284-2.381 5.284-5.343 0-2.903-2.38-5.284-5.284-5.284zm61.182-14.983c0 .349-.174.755-.522 1.104-.697.696-2.09 1.451-4.064 2.264v.29c-.059 2.556-.059 5.401-.059 8.537 0 2.323 0 5.285.117 8.885.116 3.252.232 6.097.232 8.42 0 1.22-.116 2.265-.349 3.136 2.555-.929 4.645-1.742 6.271-2.497.348 0 .58.116.813.349 0 .116.058.232.058.406 0 .348-.232.697-.58 1.045-1.51 1.626-5.574 3.543-12.135 5.75-.871.348-1.742.58-2.555.812-.232 1.684-.987 3.775-2.264 6.33-1.568 3.02-3.078 5.4-4.471 7.143-.407.522-.871.813-1.336.813-.464 0-.754-.29-.812-.755 0-.174.058-.349.29-.58.058-.175.174-.35.348-.524a81.338 81.338 0 0 0 4.006-8.536c.349-.93.64-1.858.987-2.787-1.51.464-2.96.929-4.296 1.277-.987.29-1.684.465-2.09.523-.58.116-1.045.116-1.452.116-.813 0-1.22-.523-1.335-1.568 0-.464.348-.93 1.103-1.278.464-.232.987-.406 1.684-.58a119.61 119.61 0 0 0 11.496-3.31 59.633 59.633 0 0 0 3.02-1.046c.754-1.277 1.16-2.555 1.218-3.948-.058-1.51-.058-3.078-.058-4.588-.464.29-.987.523-1.51.697-1.973.929-4.122 1.684-6.328 2.323-.348.232-.639.348-.987.348h-.174c-.29 2.323-.697 4.123-1.22 5.517-.232.929-.696 1.336-1.393 1.336-.58 0-.87-.407-.87-1.336.58-2.788.986-5.981 1.218-9.524l.465-16.201v-.872c-.523.175-.987.29-1.452.407-.87.232-1.451.406-1.8.406-.58.059-1.103.059-1.51.059-.754 0-1.16-.581-1.276-1.626 0-.465.348-.872 1.045-1.278a16.39 16.39 0 0 1 1.741-.523c1.104-.232 2.207-.464 3.31-.755 0-1.51.058-3.077.116-4.703 0-.988.465-1.51 1.51-1.51.929.058 1.393.639 1.393 1.684a48.626 48.626 0 0 0-.174 3.774c1.161-.29 2.264-.638 3.426-.987 1.451-.348 2.787-.755 3.948-1.103 0-1.394-.058-2.904-.058-4.413 0-.697.29-1.104.929-1.336h.754c.697.232 1.104.639 1.104 1.336v3.542c1.393-.465 2.612-.871 3.657-1.336.349 0 .581.174.813.465 0 .116.058.232.058.406zM195.465 32.01c2.903-.813 5.4-1.8 7.432-2.846.523-.29.929-.464 1.161-.522-.058-1.22-.116-2.44-.116-3.659a66.838 66.838 0 0 1-.174-4.82c-.871.581-1.8 1.162-2.787 1.626-1.8.93-3.484 1.626-5.11 2.033-.057 2.148-.116 4.007-.232 5.517a210.23 210.23 0 0 1-.174 2.67zm.465-11.15c.638-.174 1.219-.348 1.683-.522 1.742-.64 3.31-1.278 4.761-1.975a18.16 18.16 0 0 1 1.278-.697c-.058-2.09-.058-4.123-.058-6.155v-.987c-1.045.406-2.207.755-3.368 1.103a97.988 97.988 0 0 1-4.064 1.22l-.232 8.013zm12.193 35.598a117.04 117.04 0 0 1-5.574-8.42c-.29-.581-.465-1.046-.465-1.51 0-.93.349-1.51 1.161-1.626.407 0 .755.174.987.464 1.626 1.626 3.484 4.588 5.69 9.001.465.813.697 1.336.697 1.626 0 .93-.406 1.394-1.161 1.394-.58 0-1.045-.349-1.335-.93zm24.56-2.149c-.465-2.555-.813-5.575-1.046-8.943-.29-3.02-.464-5.981-.58-8.885-1.858.871-4.355 1.742-7.49 2.555-1.51.349-2.845.581-4.123.64-.116.58-.174 1.16-.232 1.625-1.22 7.201-2.787 12.311-4.645 15.447a1.4 1.4 0 0 1-.987.407c-.638-.059-1.045-.407-1.219-.988 0-.116.058-.464.29-.929 3.6-11.033 5.458-22.241 5.458-33.507 0-5.226-.464-10.046-1.277-14.517-.29-.581-.407-1.046-.407-1.278 0-.348.233-.58.755-.813.348-.174.813-.29 1.394-.29.348 0 .638.348.987 1.045.116.697.29 1.452.406 2.207.232-.058.523-.117.755-.233 3.483-1.161 7.025-2.322 10.625-3.542a6.641 6.641 0 0 1 1.626-.406c.232 0 .522.058.755.058.812.232 1.219 1.161 1.277 2.845 0 .58-.058 1.742-.174 3.368-.116.93-.233 2.09-.349 3.368a264.352 264.352 0 0 0-.813 15.39c0 1.741.059 3.425.175 4.935.232 7.55.813 15.33 1.742 23.519-.059.406-.523.697-1.394.929-1.045 0-2.264-.58-3.658-1.684-1.393-1.278-2.496-3.02-3.31-5.226-.348-.697-.522-1.278-.522-1.859 0-.232.116-.406.232-.522.233 0 .407.058.523.174 1.858.87 3.6 2.555 5.225 5.11zm-12.31-43.205a92.26 92.26 0 0 1 .407 8.479c0 1.451-.058 2.845-.058 4.18 1.916-.58 4.819-1.277 8.709-2.148.639-.116 1.22-.174 1.742-.232 0-.697.058-1.336.116-1.916.058-1.22.174-3.02.406-5.401.058-1.626.233-3.484.465-5.517 0-1.161-.116-1.742-.232-1.742-3.368 1.103-6.62 2.323-9.813 3.6-.638.233-1.219.465-1.742.697zm.233 15.505c-.116 3.6-.407 6.969-.755 10.105.987-.117 1.974-.233 3.02-.407 3.076-.639 5.747-1.51 8.07-2.555-.058-1.045-.058-2.033-.058-3.02 0-2.497 0-4.878.116-7.2-1.974.638-4.471 1.393-7.548 2.322-1.394.465-2.323.697-2.845.755zm32.442 26.248c-.233.987-.755 1.51-1.51 1.51-.697 0-.987-.523-.987-1.51.987-3.949 1.626-8.304 1.916-13.182l.58-10.336.059-11.73c0-3.369.058-6.97.174-10.918 0-1.045.522-1.626 1.684-1.626.929 0 1.451.639 1.451 1.8l1.394-.697c2.032-.697 4.354-1.103 6.909-1.103 1.858 0 3.251.29 4.18.813 1.394.755 2.09 2.149 2.09 4.123-.174 3.078-.87 5.923-2.148 8.594-.116.233-.174.465-.29.581.232.232.406.465.464.697 0 .465-.232.93-.58 1.336-.755 1.161-1.858 2.323-3.31 3.484-2.67 2.265-5.4 4.297-8.244 6.097-.407.349-.755.523-1.104.581-.116 2.613-.232 4.878-.406 6.736-.29 6.62-1.045 11.498-2.322 14.75zm2.787-24.738l.116-.058c3.6-2.323 6.677-4.82 9.173-7.375 1.162-2.787 1.974-5.11 2.497-6.968a664.48 664.48 0 0 1-8.36 4.994c-1.685 1.045-2.788 1.684-3.252 1.916l-.174 7.491zm.232-10.104c1.974-1.568 5.341-3.484 9.986-5.691.755-.349 1.394-.58 1.974-.697.058-.523.117-.987.117-1.452-.175-1.626-1.278-2.439-3.31-2.439-.755 0-1.684.232-2.729.58a8.23 8.23 0 0 0-3.251.872c-1.394.523-2.265.813-2.613.93-.116 2.264-.116 4.064-.116 5.4l-.058 2.497zM294.794 60c-3.02 0-5.516-1.161-7.49-3.368-.174-.465-.232-.813-.232-1.162 0-.522.29-.813.754-.813 1.51.059 3.6.872 6.155 2.381-.174-1.742-.349-4.239-.58-7.375-.233-4.065-.465-9.814-.581-17.305 0-4.18.058-8.304.232-12.253-2.323 1.336-5.4 2.672-9.29 3.95-2.032.58-3.89.87-5.574.986-.522 0-.929-.174-1.22-.522-.348-.349-.522-.755-.522-1.22 0-.58.233-.929.755-1.045-.058-.116-.058-.232-.058-.348 0-.697 0-1.568.058-2.73.058-1.626.116-2.73.116-3.252 0-2.265-.058-4.065-.058-5.458-.116-1.8-.522-3.717-1.335-5.75 0-.522.174-.929.638-1.219.29-.116.581-.174.813-.174.349 0 .697.174.987.406.233.29.349.697.407 1.22a17.373 17.373 0 0 1 3.251-1.22c2.323-.464 4.529-.697 6.503-.697 1.394 0 2.439.059 3.193.059.697 0 1.51.116 2.323.29 1.742.348 2.67 1.161 2.787 2.439 0 .813-.058 1.8-.116 3.078a690.747 690.747 0 0 0-.813 11.846c-.174 3.31-.232 7.143-.232 11.44 0 3.833.058 8.072.29 12.718.348 6.039.697 10.22 1.045 12.485 0 1.684-.755 2.555-2.206 2.613zm-14.98-38.269c1.045-.116 2.148-.348 3.367-.697 3.832-.987 7.142-2.322 9.987-3.948 0-1.336.058-2.672.174-4.065-3.31.58-7.722 1.684-13.238 3.368 0 1.045-.058 2.38-.058 4.007-.116.58-.232.987-.232 1.335zm.29-8.072c1.742-.638 4.18-1.335 7.374-2.09 2.903-.58 4.935-.871 5.98-.93l.349-4.18c0-.349-1.104-.581-3.31-.581h-2.09c-3.368.058-6.387.755-9 2.09.233.814.407 1.568.581 2.381 0 1.104.058 2.207.116 3.31zm-10.16 36.41c1.103-.231 2.032-.464 2.786-.638 2.555-.697 4.82-1.394 6.91-2.09l.116-.117a36.036 36.036 0 0 0 1.626-6.039c0-.116.058-.29.058-.465a.801.801 0 0 0-.233.175c-2.09.697-5.167 1.742-9.231 3.02-1.394.464-2.323.696-2.787.812.348 2.207.638 3.95.754 5.343zm12.657-3.6c.348.117.638.233.87.407.059.116.117.348.117.58-.116.465-.29.93-.639 1.336-1.51.755-3.367 1.568-5.574 2.381a57.661 57.661 0 0 1-7.315 1.975c-.117.813-.523 1.22-1.22 1.277-.813 0-1.219-.406-1.219-1.161-.174-2.09-.523-4.646-1.103-7.666-1.161-4.413-2.032-8.071-2.73-10.975 0-.348.175-.639.465-.93.233-.348.523-.522.871-.522.349 0 .639.058.813.058.465.233.755.523.93.871.057.175.115.349.173.581 1.278-.697 2.73-1.277 4.355-1.8 2.09-.58 4.297-.93 6.619-.93 1.51 0 2.845.407 4.006 1.22.93.465 1.626 1.336 2.09 2.555.29.813.465 1.8.465 2.962-.058 1.568-.29 3.136-.755 4.646a25.125 25.125 0 0 1-1.22 3.135zm-.93-7.258c0-.349.059-.697.059-.93 0-2.555-1.161-3.89-3.368-3.89-3.135 0-6.677.987-10.625 2.845.29 1.452.639 3.136 1.045 5.11 1.974-.813 5.168-1.858 9.58-3.135 1.045-.175 1.858-.29 2.555-.29.232.057.523.173.755.29z"/>
</svg>
