<svg xmlns="http://www.w3.org/2000/svg" width="286" height="63" viewBox="0 0 286 63">
    <path fill="#503A12" fill-rule="evenodd" stroke="#503A12" d="M44.459 22.187c0 1.28-.407 1.863-1.22 1.863-.465 0-.93-.175-1.278-.582a9.495 9.495 0 0 1-.988-1.165 17.246 17.246 0 0 0-3.602-2.619c-.814-.35-1.162-.931-1.162-1.746s.406-1.339 1.336-1.572c.64 0 1.336.233 2.034.64.406.35 1.045.757 1.859 1.281 1.975 1.339 3.02 2.62 3.02 3.9zm-4.822 16.414c0 2.503-1.046 4.831-3.08 7.043-2.382 2.561-5.17 4.831-8.366 6.927-.407.232-.697.407-.872.407-1.278 0-1.859-.757-1.859-2.154 0-.582.233-1.047.755-1.397 2.557-1.571 4.474-3.026 5.869-4.307 2.44-2.328 3.66-4.482 3.66-6.46 0-1.921-1.278-3.435-3.777-4.54-2.033-.874-4.299-1.34-6.855-1.34-2.324 0-4.707.408-7.147 1.165-.116 3.434-.697 6.46-1.685 9.08-1.452 3.609-3.486 5.413-6.158 5.413-2.034 0-3.719-.582-4.997-1.863-1.336-1.28-1.975-2.677-1.975-4.249 0-1.979.987-4.074 2.963-6.286 1.975-2.095 4.764-3.842 8.308-5.297 0-1.397-.058-4.423-.116-9.08-7.67 1.048-11.62 1.572-11.969 1.572-.348 0-.639-.175-.93-.524-.29-.35-.406-.757-.406-1.222 0-1.165.813-1.863 2.498-2.096 4.358-.466 7.902-.99 10.633-1.513-.233-2.678-.407-4.599-.523-5.88 0-1.28.697-1.92 2.091-1.92.93 0 1.453.699 1.569 2.096l.29 4.772c1.395-.232 3.196-.698 5.52-1.513 2.44-.757 4.241-1.513 5.461-2.212.175-.058.465-.116.872-.116.232 0 .465.233.813.582.233.407.407.757.407 1.106 0 .815-.174 1.397-.523 1.63-.348.349-1.394.814-3.253 1.455-2.092.815-5.113 1.804-8.948 3.026l.174 8.731c2.847-.523 5.346-.814 7.437-.814 3.486 0 6.566.814 9.296 2.328 3.196 1.862 4.823 4.365 4.823 7.45zm-25.216-3.9c-2.324 1.63-3.834 2.736-4.474 3.26-1.975 1.688-2.905 3.085-2.905 4.249 0 .757.349 1.339 1.104 1.804.756.466 1.51.64 2.324.64 1.569 0 2.905-3.317 3.951-9.953zM76.575 4.143c-.639-.174-.93-.698-.93-1.513 0-.117.117-.35.407-.699.465-.465 1.046-.698 1.743-.756 0 .29.291.465.93.465 1.394.466 4.067 1.164 8.018 2.212.232 0 .407.175.407.524 0 .466-.233.873-.64 1.164-.406.233-.755.35-1.103.35-2.79 0-5.694-.583-8.832-1.747zM70.301 16.25c0 1.455-.29 3.143-.814 5.006-.348 1.164-.871 2.328-1.51 3.492-.349.64-.698 1.164-1.046 1.572-.29.349-.756.582-1.337.582-.522 0-.755-.35-.755-1.048 0-.407.233-.99.64-1.804a16.002 16.002 0 0 0 1.51-3.958c.232-1.106.407-2.154.407-3.085 0-2.096-.175-3.842-.465-5.122-.233-.64-.349-1.106-.349-1.456 0-.582.116-.99.465-1.338.232-.175.523-.291.871-.35.407 0 .756.117 1.046.35.233.174.523.523.756.99.348 1.629.58 3.666.58 6.169zm21.206.058c0-.349.174-.698.581-1.047 2.092-2.329 3.95-4.773 5.52-7.276-2.905.349-10.11 1.92-21.672 4.714-.813.233-1.568.35-2.15.35-.464 0-.813-.117-.987-.408a1.713 1.713 0 0 1-.523-1.28c0-.35.174-.64.581-.873.465-.35 1.162-.582 2.092-.815 3.834-.99 9.644-2.212 17.43-3.667C95.923 5.307 98.42 4.9 99.932 4.9c.29 0 .58.058.871.058.581.35.872.815.872 1.455 0 2.27-2.15 5.355-6.333 9.313a30.32 30.32 0 0 1-1.569 1.28c-.523.35-.93.466-1.162.466-.349 0-.64-.116-.871-.465-.175-.175-.233-.408-.233-.699zM80.003 21.14c.93-.349 1.86-.756 2.731-1.164 4.241-1.63 6.856-2.444 7.785-2.444 1.22.174 1.86.873 1.86 2.153 0 1.688-1.627 4.773-4.823 9.197-.871 1.28-1.8 2.444-2.73 3.608.58.233 1.22.524 1.917.815 3.137 1.456 6.623 2.561 10.458 3.318 2.208.524 4.3.931 6.333 1.28 2.208.292 4.241.408 6.042.408.581 0 1.162-.058 1.801-.29.581 0 .93.29 1.046.814 0 .466-.174.815-.407.99-.232.29-.639.523-1.22.698-.697.233-1.452.35-2.324.35-1.743 0-4.067-.117-6.914-.466-3.079-.35-6.042-.932-8.83-1.747-2.906-.698-5.869-1.688-9.006-3.026a3.544 3.544 0 0 1-1.162-.524 81.673 81.673 0 0 1-5.868 5.995c-.465.407-.872.757-1.279 1.106.233.233.465.524.64.757.174.407.348.873.522 1.338.233-.232.523-.465.872-.64 2.672-.233 5.868-.407 9.528-.407 2.208 0 4.125.232 5.81.64 2.324.815 3.544 2.27 3.544 4.424-.29 1.92-1.045 3.783-2.265 5.53.639-.234 1.103-.35 1.336-.35a.66.66 0 0 1 .465-.175c.348.059.58.175.813.408 0 .058.058.174.058.407-.058.35-.174.699-.407 1.048-1.859.931-4.24 1.92-7.03 2.968-3.253 1.106-6.333 1.921-9.354 2.445-.116.873-.523 1.339-1.22 1.397-.813 0-1.22-.35-1.22-1.048-.174-1.979-.64-4.423-1.394-7.275-1.162-3.726-2.15-6.869-2.964-9.546a53.665 53.665 0 0 1-7.262 4.773c-.407.64-.872.93-1.336.93-.814 0-1.279-.348-1.279-1.105 0-.35.233-.815.756-1.513 5.461-3.435 10.458-7.625 15.106-12.573l.523-.698c-.814-.291-1.51-.582-2.15-.815-1.86-.699-4.241-1.28-7.03-1.688-.523 0-.755-.35-.755-1.164 0-.35.116-.699.348-1.048.349-.35.697-.524 1.046-.582 2.382.116 5.229.757 8.483 1.804.755.291 1.51.582 2.266.815 2.556-3.26 4.996-6.752 7.204-10.593-4.532 1.513-9.122 3.55-13.712 6.053-1.278 0-1.859-.407-1.859-1.222 0-1.048.988-2.387 3.08-4.133 2.033-1.979 3.079-4.19 3.079-6.752 0-.582.232-1.047.813-1.455.349-.233.697-.35 1.046-.35.813.06 1.278.525 1.336 1.456 0 1.863-.871 4.016-2.556 6.577l-.29.291zm9.703 34.05c.116-.232.174-.348.29-.465 1.744-2.27 2.847-4.074 3.312-5.355.175-.582.29-1.047.29-1.397-.87-1.338-2.962-2.037-6.274-2.037-3.08.058-6.275.291-9.529.757-.232 0-.406 0-.522-.058.348 1.28.697 2.677 1.162 4.307.58 2.736 1.045 4.947 1.278 6.577 1.568-.35 2.905-.64 4.067-.873 2.091-.466 4.067-.99 5.926-1.455zm41.82-28.578a103.852 103.852 0 0 1 3.137 5.238c.871 1.63 1.568 2.852 2.15 3.667.348.466.755.64 1.103.64.64 0 .988-.407.988-1.222-.116-.99-.465-2.095-1.162-3.376-2.556-5.006-4.532-8.09-5.81-9.255-.116 0-.232-.058-.465-.116 0-1.106-.058-2.27-.058-3.434 3.718-2.154 5.984-4.016 6.914-5.646.349-.35.523-.699.523-1.048 0-.116-.058-.29-.058-.407-.233-.233-.465-.408-.814-.408-1.626 1.223-3.834 2.62-6.623 4.25-.058-1.689-.116-3.318-.174-4.832-.175-1.28-.349-2.444-.465-3.55-.349-.815-.814-1.28-1.453-1.34-.987 0-1.568.467-1.685 1.34 0 .582.059 1.397.233 2.444a78.31 78.31 0 0 1 .697 7.509 52.434 52.434 0 0 1-5.752 2.794c-.697.174-1.278.349-1.743.582-.755.35-1.104.757-1.104 1.222.116 1.048.523 1.63 1.336 1.63.465 0 .93 0 1.511-.058.232-.058.697-.233 1.395-.524 1.394-.699 2.905-1.513 4.531-2.387 0 .64.058 1.281.058 1.863-.348 1.863-.813 3.609-1.336 5.355-.697 2.677-1.627 5.18-2.672 7.509-1.279 2.852-2.557 5.296-3.893 7.392-.349.29-.523.64-.523.99 0 .64.29.989.755.989.233 0 .523-.058.872-.175.174-.116.406-.233.639-.466 1.104-1.396 2.15-3.026 3.195-4.947a62.544 62.544 0 0 0 2.847-6.46c.116-.35.233-.7.349-1.107.116 5.122.174 10.42.174 15.89 0 3.26.058 6.345.058 9.313-1.568-2.153-3.021-3.725-4.415-4.772-.698 0-.988.465-.988 1.338.116.466.29 1.048.523 1.63 1.51 3.492 3.486 5.297 5.868 5.297.813 0 1.22-.64 1.278-1.805 0-4.307.058-13.678.058-28.171V26.61zm20.857-15.309c.29-.058.523-.116.755-.232.35-.35.756-.699 1.162-1.164.988-1.048 1.802-1.98 2.383-2.794a5.201 5.201 0 0 0 .697-2.62c0-.465-.175-1.047-.523-1.63-.116-.174-.116-.407-.116-.64 0-.64.348-.99 1.162-1.047.639 0 1.104.174 1.394.523.697.757 1.104 1.688 1.104 2.794 0 1.397-.581 2.736-1.627 4.017-.348.465-.697.873-1.046 1.222 2.673-.757 4.358-1.164 5.055-1.164.407 0 .697.174.93.465.174.291.29.582.29.815 0 .35-.232.582-.639.757-2.44.99-5.287 2.037-8.483 3.201v.175c.175 1.513.35 3.027.465 4.482 1.162-.466 2.324-.99 3.37-1.455 1.51-.757 2.498-1.223 2.963-1.397.174-.058.349-.117.523-.117.349.059.64.233.872.466 0 .175.058.35.058.582-.058.35-.233.757-.523 1.106-1.86 1.28-4.183 2.561-6.972 3.842 0 .698.058 1.397.174 2.153.058 1.106.116 1.921.116 2.503 4.939-1.63 8.773-3.027 11.562-4.307.349 0 .64.174.814.407 0 .117.058.233.058.35 0 .349-.175.698-.523 1.047-1.627 1.63-5.81 3.609-12.55 5.82a879.383 879.383 0 0 1-10.4 3.26c-.987.233-1.685.408-2.15.466-.58.058-1.045.058-1.452.058-.755 0-1.162-.524-1.278-1.513 0-.466.348-.873 1.046-1.222.464-.175.987-.35 1.685-.466 3.602-.931 7.088-1.92 10.458-3.027-.059-.174-.059-.35-.059-.582v-3.958c-2.73 1.106-5.345 1.92-7.843 2.445-.29.116-.465.116-.581.116-.349 0-.581-.116-.813-.466-.29-.29-.407-.756-.407-1.338 0-.466.29-.757.813-.99 2.034-.64 3.777-1.164 5.23-1.63 1.161-.407 2.323-.814 3.427-1.28a44.548 44.548 0 0 0-.755-4.598c-2.673.99-5.578 1.979-8.715 3.026-.814 0-1.278-.407-1.395-1.106v-.465c0-.291.175-.582.523-.873 1.627-.99 4.125-2.096 7.495-3.26l-.058-.058c-2.15-2.328-3.544-4.365-4.183-6.053-.058-.175-.058-.35-.058-.583 0-.232.116-.523.232-.814.175-.175.407-.35.756-.582.116-.059.29-.117.58-.117.465.117.814.408 1.163.931a79.889 79.889 0 0 1 2.265 3.958 46.678 46.678 0 0 1 1.57 2.561zm-3.66 36.263c1.162-.931 2.44-1.804 3.776-2.736.814-.524 1.57-1.048 2.266-1.513-.232-2.445-.465-5.064-.755-7.8-.174-.99-.232-1.746-.232-2.27 0-.582.406-.873 1.162-.931.348 0 .755.116 1.162.233.464.233.755.756.813 1.63.116 2.677.349 5.063.581 7.275 4.706-2.91 8.018-4.423 9.993-4.598h.175c.58.116.987.524 1.22 1.339-.581 1.397-.872 2.735-.872 4.016 0 1.863.523 3.783 1.569 5.646 1.046 2.095 1.569 3.55 1.569 4.482 0 1.048-.407 2.27-1.104 3.55-.872 1.223-1.918 2.096-3.08 2.62-.348.29-.697.465-1.162.465-.755 0-1.162-.407-1.162-1.164 0-.233.117-.524.349-.757 2.208-1.513 3.37-2.91 3.428-4.249 0-.873-.581-2.328-1.627-4.307-.697-1.63-1.162-2.968-1.452-4.016-.233-1.048-.291-2.037-.291-2.969 0-.407 0-.814.116-1.222-.813.466-1.568.873-2.382 1.222-1.336.699-3.021 1.688-5.113 3.027.058 2.561.116 4.598.116 6.054 0 3.26-.232 5.53-.697 6.926-.406 1.513-1.162 2.27-2.208 2.27-.406 0-.755-.116-1.103-.233-.465-.232-.698-.698-.698-1.28 0-.757.407-1.164 1.279-1.164.464-1.28.755-3.493.755-6.636-.058-1.339-.116-2.677-.174-4.074-2.964 1.979-6.45 4.482-10.517 7.508-.406.466-.813.757-1.22.757-.348 0-.697-.175-.93-.524a.923.923 0 0 1-.29-.698c0-.35.116-.64.349-.873.813-.699 1.51-1.223 2.091-1.572.988-.698 1.511-1.28 1.511-1.746 0-2.037-.755-3.143-2.208-3.26-1.046 0-2.091.291-3.08.873-.696-.116-1.045-.64-1.103-1.513 0-.233.174-.582.523-.99.988-.698 2.266-1.105 3.893-1.105.464 0 1.104.116 1.859.232 1.627.99 2.614 2.329 2.905 4.075zm73.426-19.383c0 4.191-1.57 8.731-4.59 13.679-3.138 4.947-6.508 8.207-10.168 9.72-.465.175-.813.291-1.104.291-1.046 0-1.568-.698-1.568-2.095 0-.699.697-1.63 2.15-2.852.464-.35 1.161-.524 1.975-.524a34.95 34.95 0 0 0 6.855-8.09c2.15-3.493 3.254-6.87 3.254-10.129 0-2.095-.871-3.725-2.614-4.89-1.395-.93-3.138-1.454-5.23-1.57-2.207 6.402-5.054 12.048-8.598 16.937-2.324 3.202-4.648 4.773-6.972 4.773-1.743 0-3.138-.815-4.242-2.56-1.162-1.747-1.685-3.61-1.685-5.647 0-3.841 2.79-7.741 8.367-11.816 4.938-3.492 9.238-5.296 12.84-5.296 3.254 0 5.926.814 7.96 2.444 2.208 1.805 3.37 4.366 3.37 7.625zm-14.584-5.937c-3.37 1.048-6.565 2.794-9.586 5.355-3.486 2.852-5.171 5.53-5.171 8.033 0 .815.29 1.746.871 2.735.581 1.048 1.22 1.514 1.976 1.514 1.917 0 4.706-3.202 8.424-9.72 1.046-1.863 2.208-4.54 3.486-7.917zM280.41 4.492a90.05 90.05 0 0 1-9.528 1.805c-.175-.64-.465-1.28-.814-1.921a10.69 10.69 0 0 0-2.15-3.143c-.29-.117-.58-.233-.813-.233-.465 0-.93.116-1.336.291-.407.407-.581.873-.581 1.339 0 .465.232.873.813 1.164.697.931 1.22 1.92 1.685 2.91-1.046.117-2.091.233-3.253.291-3.08.35-5.869.524-8.367.64-.639.175-.93.583-.93 1.281 0 .466.233.815.582 1.164.29.408.697.582 1.278.582 2.44-.058 5.054-.29 7.843-.64a39.322 39.322 0 0 0 3.777-.524c.116.524.174 1.048.232 1.572 0 .815-.058 1.513-.174 2.211-.233.699-.581 1.514-.93 2.329-1.859.407-3.892.756-6.1 1.106-.697.116-1.22.174-1.685.29-.407.292-.64.583-.64.932 0 .815.291 1.339.988 1.63h.407c.697 0 1.336-.058 1.917-.233a236.732 236.732 0 0 0 12.143-2.328c2.092-.466 3.66-.932 4.765-1.397.29-.35.464-.757.464-1.223-.058-.232-.232-.465-.464-.698-.29-.116-.581-.233-.872-.233-.58 0-1.452.175-2.73.466-1.627.407-3.37.815-5.288 1.164.058-.117.116-.35.233-.64.464-1.34.697-2.62.697-3.842 0-.524-.058-1.048-.116-1.63 4.357-.698 7.727-1.513 10.051-2.328.349-.233.523-.582.523-1.048-.058-.174-.116-.349-.174-.582-.233-.349-.523-.524-.93-.524h-.523zm-.639 30.966c-1.162.698-2.789 1.339-4.997 2.037-4.067 1.339-8.308 2.503-12.724 3.55-.58.234-1.22.35-1.917.408-.407 1.805-.871 3.493-1.452 5.006-1.279 3.26-2.673 6.17-4.067 8.847-1.22 2.096-2.44 3.842-3.719 5.355-.406.582-.93.932-1.568.932-.64-.059-.93-.466-.93-1.165 0-.232.116-.698.349-1.28 1.394-1.572 2.556-3.26 3.602-5.122 1.336-2.037 2.556-4.482 3.718-7.45 1.51-4.424 2.324-9.546 2.324-15.25 0-2.096-.465-4.366-1.336-6.927 0-1.048.407-1.688 1.336-1.921.93 0 1.51.524 1.801 1.572.116.407.233.814.407 1.222 2.556-1.048 6.565-2.037 11.969-3.027 4.415-1.047 7.96-1.571 10.632-1.571.465 0 .988.29 1.452.815.233.349.349.698.349.989 0 1.339-.465 2.91-1.394 4.773-.93 1.63-2.324 3.434-4.126 5.413-.29.35-.522.64-.755.757h.29c.291 0 .524.116.756.233.232.232.407.407.465.64 0 .407-.175.815-.465 1.164zm-4.59-.99v-.058c.581-.873 1.278-1.688 2.092-2.503 2.498-3.608 4.009-6.46 4.59-8.556-.93 0-4.59.757-10.981 2.27.232.99.348 2.154.348 3.493-.116 1.862-.523 3.608-1.104 5.296a21.467 21.467 0 0 1-.697 1.863c2.092-.582 4.01-1.164 5.752-1.804zm-8.076 2.387c1.162-2.328 1.801-4.773 1.801-7.276 0-.815-.116-1.979-.232-3.434-2.324.582-4.822 1.164-7.495 1.804.116.932.174 1.805.174 2.503a55.63 55.63 0 0 1-.58 7.916c.115 0 .174-.058.29-.058 2.091-.466 4.125-.931 6.042-1.455z"/>
</svg>
