<svg xmlns="http://www.w3.org/2000/svg" width="234" height="62" viewBox="0 0 234 62">
    <path fill="#503A12" fill-rule="evenodd" stroke="#503A12" d="M49.242 6.111a6.03 6.03 0 0 0 .174-.697v-.29c-.058-.116-.116-.174-.174-.29a1.356 1.356 0 0 0-.929-.581h-.348c-.174.058-.58.232-1.22.58-6.56 4.182-12.248 6.215-17.125 6.215h-.929c-.174 0-.232-.116-.232-.232.232-1.22.987-2.556 2.264-4.008.465-.929.755-1.916.755-2.962 0-.116-.116-.348-.232-.58-.349-.233-.697-.407-.93-.407-.464 0-.87.232-1.16.58-.929.872-1.8 2.091-2.613 3.66-.696 1.278-1.045 2.73-1.045 4.356 0 .639.175 1.162.581 1.51.406.581 1.103.813 2.09.813 1.974 0 4.064-.232 6.27-.697 1.857-.232 3.773-.755 5.747-1.452 5.109-1.975 8.127-3.775 9.056-5.518zm.697 17.774a153.024 153.024 0 0 0-8.418 3.31 3.001 3.001 0 0 1-.929.407c-.116 2.323-.232 4.763-.348 7.377-.174 2.381-.464 4.298-.813 5.808-.29 1.626-.638 2.962-1.045 4.066-.58.639-1.045.93-1.51.93-.58 0-.928-.233-.928-.756 0-.232.058-.406.174-.639.232-.813.407-1.568.523-2.323.464-2.207.754-5.925.987-11.094 0-.174 0-.871.116-2.091-2.148.93-4.006 1.684-5.631 2.381-.523.233-1.045.465-1.51.64 0 1.742.058 4.53.116 8.48.174 6.505 1.452 10.861 3.774 13.184 1.8 1.627 3.947 2.44 6.444 2.44 3.599 0 6.211-.64 7.72-1.859 1.162-1.161 1.974-2.73 2.439-4.705.116-1.974.174-4.123.232-6.563.116-.348.523-.58 1.103-.697.697 0 1.161.349 1.393.987v5.693c-.058 2.381-.464 4.24-1.219 5.576-1.045 1.916-3.018 3.252-5.863 4.007-1.742.349-3.832.523-6.27.523-2.38 0-4.354-.523-5.98-1.452-2.205-1.278-3.889-3.717-5.166-7.202-.697-2.44-1.103-5.518-1.22-9.177-.057-2.324-.057-4.996-.057-7.958l-.93.465c-1.973.93-3.134 1.394-3.598 1.394-.755-.058-1.22-.465-1.336-1.278v-.349c0-.464.233-.87.697-1.161.929-.465 1.8-.93 2.612-1.336.871-.349 1.742-.697 2.555-1.046-.058-2.09-.232-4.414-.465-6.97.175-.813.697-1.22 1.51-1.22.58 0 .987.291 1.219.814.116 1.278.232 3.369.29 6.273 2.322-.93 4.528-1.8 6.618-2.672.174-.058.349-.116.58-.232.059-2.033.117-4.705.233-7.958 0-.813.406-1.278 1.103-1.336h.58c.697.058 1.104.523 1.104 1.336 0 1.917-.059 4.182-.117 6.738 1.916-.697 3.832-1.452 5.69-2.15 2.554-.929 4.121-1.393 4.818-1.393.464 0 .813.116 1.045.29.348.465.522.93.58 1.394 0 .988-.29 2.44-.812 4.415-.465 1.626-1.103 3.194-1.858 4.704-1.393 2.73-3.193 5.054-5.515 7.028-.406.233-.813.29-1.161.29-.58 0-.87-.348-.87-.929 0-.29.057-.522.29-.697.29-.464.696-.929 1.219-1.394 1.044-1.045 2.206-2.788 3.483-5.343.638-1.104 1.103-2.265 1.451-3.427.58-1.568.87-2.73.87-3.543zM12.785 28.59v.058c-.871 3.95-1.916 7.492-3.193 10.629a156.9 156.9 0 0 1-3.019 7.435 88.317 88.317 0 0 1-2.09 4.472c-.696 1.394-1.277 2.323-1.8 2.788-.232.116-.58.232-.928.232-.465-.058-.755-.348-.755-.871 0-.407.058-.697.29-.93.407-.929.871-1.858 1.394-2.845.928-1.86 1.915-4.066 2.96-6.564.813-1.975 1.626-4.182 2.497-6.621.87-2.846 1.567-5.634 2.031-8.306.407-2.382.639-4.589.697-6.564-1.567.64-3.019 1.22-4.354 1.743-.813.232-1.335.406-1.625.465-.581.058-1.045.058-1.452.058-.754 0-1.16-.523-1.277-1.569 0-.406.348-.755 1.045-1.103.464-.233.987-.407 1.684-.581a75.302 75.302 0 0 0 8.475-3.31c3.948-1.743 7.083-3.253 9.289-4.531.348 0 .638.174.87.406 0 .175.059.349.059.523 0 .407-.233.813-.58 1.162-1.162 1.51-4.123 3.31-8.941 5.46-.29.116-.523.232-.697.232.116.348.174.697.174 1.045 0 1.278-.116 2.672-.29 4.124a4.49 4.49 0 0 1 1.8.697c1.16.697 2.264 1.569 3.193 2.672.638.697 1.277 1.743 1.858 3.079.522 1.452.812 2.962.812 4.53 0 4.298-.812 8.422-2.38 12.488-1.51 3.66-3.193 6.68-5.167 9.06-.464.35-.812.524-1.16.524a1.62 1.62 0 0 1-1.046-.349c-.232-.232-.29-.58-.29-.93 0-.173.116-.406.348-.754 2.206-2.44 4.006-5.228 5.4-8.48 1.218-3.37 1.857-7.203 1.857-11.617 0-1.743-.755-3.485-2.264-5.228a15.748 15.748 0 0 0-3.425-2.73zm.754-18.18c3.6-.117 5.457-.581 5.457-1.453 0-.116-.29-.464-.812-.987a46.755 46.755 0 0 0-4.238-.174c-3.019 0-5.457-.233-7.315-.697-1.045.174-1.625.522-1.625 1.045 0 .93.348 1.452 1.045 1.627 1.567.464 4.063.638 7.488.638zm70.522 35.605c0 .522-.174 1.161-.406 1.916-.523 1.104-1.277 2.15-2.322 3.195-1.045.93-2.148 1.742-3.425 2.44-.349.116-.639.29-.871.464l-.116.058c-1.452.871-2.787 1.568-4.064 2.033.058.232.116.465.116.58 0 .814-.522 1.279-1.51 1.279-.522 0-.986-.523-1.45-1.51-.813-2.033-1.51-4.59-2.09-7.667-.523-2.498-.755-4.59-.755-6.273 0-1.278.464-1.917 1.451-2.033.987 0 1.51.464 1.51 1.394 0 .464.058.929.116 1.277 1.16-.116 2.786-.174 4.76-.29 2.438.116 4.412.407 5.98.871 2.031.64 3.076 1.394 3.076 2.266zm-13.584-.059c0 .814.058 1.51.174 2.091.348 2.033.755 3.834 1.22 5.344.696-.29 1.334-.523 1.857-.697.87-.406 1.683-.755 2.438-1.045 1.103-.697 2.148-1.51 3.193-2.324 1.277-1.278 1.916-2.033 1.916-2.265-1.22-.755-3.251-1.162-6.154-1.162-1.393 0-2.96.058-4.644.058zm-6.792-26.834c4.063-.232 8.36-.813 12.887-1.743 2.555-.464 4.587-1.045 6.154-1.684.29-.232.523-.523.697-.871 0-.233.058-.465.058-.64-.116-.406-.58-.638-1.394-.638-10.275 1.568-16.429 2.323-18.46 2.323-.871.116-1.278.64-1.278 1.452 0 1.22.407 1.801 1.336 1.801zm1.683 9.468a63.53 63.53 0 0 0 10.566-2.033c2.09-.697 3.715-1.394 4.992-2.091.29-.175.523-.465.697-.814 0-.174.058-.406.058-.638-.116-.349-.58-.581-1.277-.581-8.36 2.149-13.41 3.194-15.094 3.194-.813.175-1.22.64-1.22 1.394 0 1.046.407 1.569 1.278 1.569zm15.094 3.02c0-.232-.058-.407-.058-.581a1.597 1.597 0 0 0-.87-.465c-.233 0-.465.058-.698.117-.348.116-1.16.522-2.38 1.22-2.322 1.045-4.876 2.032-7.663 3.078-1.219.348-2.67.813-4.412 1.336-.522.29-.813.697-.813 1.161 0 .581.117 1.046.349 1.336.232.407.58.581.929.581.116 0 .29 0 .638-.116 2.67-.639 5.457-1.626 8.36-3.02 2.438-1.104 4.528-2.266 6.154-3.427.232-.349.406-.755.464-1.22zm-.755-21.84c.58-.116.871-.58.871-1.393-.058-.349-.232-.64-.58-.93-2.787-.93-6.56-1.51-11.32-1.626h-.756c-.522.29-.87.639-1.045 1.103 0 .756.233 1.394.813 1.917 4.412.349 8.418.64 12.017.93zM90.1 20.11c-.058-4.299-.174-7.726-.349-10.281-.406-.581-.928-.93-1.509-.93-.464.058-.87.233-1.219.581-.174.29-.232.64-.232.988 0 .522.232.929.638 1.277 0 8.83.465 13.243 1.278 13.243 1.973-.116 3.309-.87 4.063-2.381 3.89-7.435 6.444-12.488 7.721-15.16.58 10.455 2.264 15.683 4.993 15.683 1.51 0 3.135-.465 4.992-1.452 1.974-1.162 3.658-2.788 5.167-4.88.116-.29.232-.696.232-1.161-.232-.697-.522-1.046-.986-1.046-.233 0-.465.175-.64.407-4.76 3.485-7.488 5.228-8.185 5.228-.406-.117-.812-.697-1.219-1.743-.87-1.917-1.335-4.356-1.335-7.318-.116-1.975-.116-3.776-.116-5.344a1.963 1.963 0 0 0-.348-.697c-.233-.232-.58-.407-1.045-.407-.755 0-1.51.349-2.264.988-1.394 1.452-3.135 3.717-5.11 6.795-1.45 2.44-2.728 4.59-3.889 6.564-.232.348-.406.697-.638 1.045zm19.506 10.629c0-.814-.233-1.394-.639-1.743-.406-.58-.87-.871-1.335-.871h-.639c-1.045 0-4.063.987-8.94 2.962-4.064 1.685-6.676 2.904-7.837 3.66-.348.348-.523.754-.523 1.161 0 .465.117.813.349 1.046.232.348.464.522.812.522.233 0 .523-.116.93-.406a342.943 342.943 0 0 1 14.919-6.099c-.929 3.601-3.077 7.957-6.328 12.953a83.004 83.004 0 0 0-2.496 3.252c-.697-.464-1.335-.93-1.916-1.452-1.625-1.162-3.077-2.265-4.412-3.253-.638-.464-1.16-.813-1.51-.987-.231-.174-.522-.29-.986-.29-.407 0-.697.174-.871.464-.29.349-.406.755-.406 1.22 0 .232.174.465.406.755 2.787 2.323 5.34 4.356 7.663 5.983a77.22 77.22 0 0 1-3.019 3.427 56.767 56.767 0 0 1-5.225 4.472c-.406.349-.58.697-.58.93 0 .29.116.522.348.696.116.233.349.349.639.349.348 0 .813-.233 1.393-.581 1.568-.987 3.193-2.265 4.819-3.892 1.219-1.161 2.496-2.497 3.773-3.891 2.264 1.568 4.47 2.904 6.676 3.95a33.56 33.56 0 0 0 7.547 3.02c1.277.29 2.438.464 3.483.58h1.22c.522-.116.812-.348.87-.696 0-.407-.348-.755-1.045-1.046-.813-.29-1.567-.58-2.38-.813-4.296-1.452-8.708-3.66-13.236-6.563a13.391 13.391 0 0 1-1.103-.814 36.877 36.877 0 0 0 2.438-3.136c1.916-2.614 3.541-5.228 4.877-7.841 1.509-2.963 2.264-5.286 2.264-7.028zm29.42 18.586c-.116 1.336-.174 2.672-.29 4.066-.117 1.51-.117 2.73-.117 3.601 0 .465 0 .872.116 1.336 0 .871-.406 1.336-1.219 1.336-.696 0-1.103-.348-1.335-.93-.348-.987-.464-2.787-.464-5.401-.058-1.278-.058-2.556-.058-3.717 0-.581.058-.988.232-1.336.232-.523.755-.813 1.51-.813.464 0 .87.29 1.276.755.233.406.349.755.349 1.103zm30.478-15.74c0 .29-.174.639-.465.987-2.264 1.859-8.011 4.066-17.242 6.564.29 3.833.639 7.899.987 12.139.175 1.975.29 3.775.29 5.402 0 1.51-.58 2.323-1.625 2.323-3.019-.174-4.876-.93-5.573-2.323 0-.813.174-1.278.58-1.394 1.278.116 2.555.232 3.832.232 0-1.045-.116-2.44-.232-4.124-.348-4.53-.755-8.364-1.103-11.5-4.18 1.103-8.186 2.149-12.017 3.078-1.393.349-2.38.523-2.96.58h-1.278c-.639 0-.987-.464-1.103-1.393 0-.349.29-.697.87-1.046a6.58 6.58 0 0 0 1.51-.406 224.231 224.231 0 0 0 14.63-3.601 91.774 91.774 0 0 0-.349-2.208c-.116-.638-.174-1.277-.232-1.858 0-.233.058-.407.29-.64a1.32 1.32 0 0 1 1.103-.58c1.103 0 1.742.755 1.916 2.15.116.87.174 1.625.232 2.322 7.315-2.149 13.062-4.007 17.184-5.517.29 0 .522.174.697.406 0 .116.058.232.058.407zm-8.302 11.79c.116 0 .29.059.464.059.233.058.407.116.581.232 1.451 1.162 3.715 4.182 6.85 9.177.697 1.162 1.161 2.265 1.277 3.31 0 .814-.348 1.279-1.044 1.279-.349 0-.697-.233-1.162-.697-.696-.813-1.509-2.033-2.496-3.601a60.88 60.88 0 0 0-5.631-7.319 1.117 1.117 0 0 1-.232-.697v-.406c0-.349.174-.64.522-.988.232-.174.523-.29.871-.348zm-26.356-31.248c0-2.672-.29-4.937-.755-6.68a3.61 3.61 0 0 0-.696-.987 2.004 2.004 0 0 0-1.045-.29c-.349.057-.639.174-.813.29-.348.348-.465.813-.465 1.336 0 .348.117.871.407 1.568.348 1.394.58 3.195.58 5.46 0 .697-.058 1.336-.174 2.033-.116 1.045-.348 1.975-.58 2.788-.174.522-.29.93-.29 1.22 0 .696.232 1.045.812 1.045.58 0 .987-.232 1.277-.58.233-.291.407-.698.58-1.22.291-.756.523-1.569.697-2.498.29-1.278.465-2.44.465-3.485zm25.427-1.452c0-.349.174-.697.639-.988 1.858-1.916 3.425-3.95 4.818-6.04-2.67.348-8.534 1.51-17.706 3.485-.058.174-.058.29-.058.406-.406 1.975-.813 3.892-1.161 5.809-.348 1.394-.639 2.671-.755 3.717 2.67-.349 5.05-.58 7.14-.697-.115-1.51-.348-2.846-.754-3.95-.232-.697-.522-1.336-.813-1.975-.116-.232-.116-.406-.116-.58 0-.29.174-.581.407-.814.232-.232.522-.348.87-.348.349 0 .639.174.93.523.58.697 1.044 1.8 1.45 3.31.233 1.22.349 2.44.407 3.718h1.219c1.974 0 3.6.058 4.935.058.638.174.986.639.986 1.452 0 .465-.232.697-.638.813-.929.174-2.613.29-5.167.349-.58.116-1.045.116-1.451.116-.407 2.149-1.277 4.124-2.67 5.866-.64.697-1.278 1.278-1.858 1.859.348.232.754.464 1.16.58a26.78 26.78 0 0 0 4.122 1.278c.117.117.233.407.233.756-.116.638-.639.987-1.452 1.103h-.522c-.929 0-2.148-.348-3.541-.987a16.327 16.327 0 0 1-2.032-1.046 26.38 26.38 0 0 1-5.05 2.672c-.465.232-.814.349-1.162.349-.638 0-.987-.233-1.103-.814 0-.29.116-.58.465-.87 1.741-.582 3.483-1.453 5.224-2.557a1.603 1.603 0 0 1-.464-.348c-2.09-2.033-3.135-4.124-3.251-6.273l-1.916.348c-1.858.407-3.483.581-4.818.581a.643.643 0 0 1-.58-.29c-.291-.232-.407-.639-.407-1.22 0-.465.232-.813.696-1.103 1.974-.581 4.18-1.046 6.619-1.453.174-.058.348-.116.58-.116.058-.464.116-.929.232-1.394.29-2.207.639-4.414.987-6.563.116-.58.174-1.104.29-1.685-1.45.349-2.96.697-4.47.988-1.045.29-1.857.406-2.554.406-.464 0-.755-.116-.929-.406-.29-.232-.406-.639-.406-1.104 0-.348.116-.58.464-.755.58-.348 1.393-.639 2.38-.871 1.684-.407 3.658-.871 5.98-1.394.116-.93.174-1.743.174-2.381 0-.233-.058-.523-.116-.872a3.223 3.223 0 0 1-.174-.987c0-.407.174-.755.522-1.104.349-.116.697-.232.987-.232.232 0 .523.116.813.232.348.407.522 1.162.522 2.266 0 .929-.058 1.8-.116 2.613a382.345 382.345 0 0 1 11.088-2.033c4.064-.697 6.967-1.103 8.65-1.103.349 0 .639.058.93.058.464.29.754.697.754 1.162 0 1.974-1.974 4.646-5.863 7.957-.465.465-.987.813-1.452 1.162-.464.29-.813.406-1.103.406-.29 0-.522-.116-.755-.406-.232-.233-.29-.407-.29-.64zm-7.198 8.538c-.813.116-1.51.174-2.148.174-1.51.174-3.135.407-4.993.755.174 2.15.987 3.892 2.496 5.17.29.174.523.348.755.464a13.847 13.847 0 0 0 2.554-3.02c.697-1.336 1.103-2.498 1.336-3.543zm44.397 3.136c-.116-3.078-.696-5.343-1.625-6.853-.29-.465-.639-.697-1.103-.697-.29 0-.58.058-.87.174-.465.406-.64.93-.64 1.51.697 1.917 1.104 3.892 1.104 5.983v4.124c0 4.123-.523 8.015-1.452 11.674-1.741 5.576-2.554 9.352-2.554 11.443 0 .929.348 1.452 1.161 1.452.755 0 1.22-.465 1.451-1.278a65.78 65.78 0 0 0 2.032-7.319c1.626-6.389 2.496-13.126 2.496-20.213zm5.167 20.852c.58-.813 1.335-2.09 2.264-3.775 2.438-4.995 4.412-9.874 5.98-14.695 0-.116.058-.349.174-.697 2.903 2.904 5.631 5.982 8.243 9.235 1.626 2.207 3.02 3.892 4.064 5.053.407.349.755.523 1.045.523.58 0 .87-.348.87-1.103-.173-1.278-.928-2.788-2.205-4.415-4.935-6.621-8.592-10.687-10.914-12.197-.058 0-.174-.058-.29-.116.696-2.614 1.219-5.286 1.625-8.016 7.605-1.626 12.888-2.44 15.907-2.44.58 0 .87.291.87.814-.87 8.596-1.277 15.682-1.277 21.2 0 2.672.116 5.111.407 7.435.58 3.833.87 6.854.87 9.119 0 3.601-.348 5.634-.928 6.157-.813-.058-1.568-.581-2.322-1.51-1.568-1.917-3.193-3.253-4.819-4.066-.464-.349-.87-.465-1.277-.465-.174 0-.232.58-.232 1.684.464 1.394 1.277 2.614 2.322 3.66 2.09 2.207 4.18 3.31 6.386 3.31 2.322 0 3.54-2.671 3.599-8.015 0-1.859-.232-4.937-.697-9.41-.406-2.788-.58-5.169-.58-7.202 0-3.194.29-9.003.987-17.483.116-1.742.232-3.31.29-4.705 0-2.207-.929-3.369-2.729-3.369-2.728 0-8.185.814-16.37 2.324.348-2.614.58-5.286.638-7.958V2.975c-.058-.813-.522-1.278-1.451-1.278-1.103 0-1.626.523-1.626 1.452v1.162c-.116 2.904-.29 5.692-.58 8.364-6.56 1.336-10.276 2.149-11.088 2.44-.813.406-1.22.87-1.22 1.451 0 .465.117.872.407 1.104.29.465.696.639 1.219.639 3.135-.93 6.56-1.8 10.275-2.614a97.885 97.885 0 0 1-1.683 7.841c-1.626 5.518-3.367 10.281-5.225 14.289a79.06 79.06 0 0 0-2.322 5.692c-.348.697-.523 1.22-.523 1.452 0 .58.175.813.58.813.35 0 .756-.232 1.336-.58z"/>
</svg>
